#VRML V2.0 utf8
# 3D model generated by easyeda2kicad.py (https://github.com/uPesy/easyeda2kicad.py)

Shape{
    appearance Appearance {
        material  Material 	{
            diffuseColor 0.25098039215686274 0.25098039215686274 0.25098039215686274
            specularColor 0.12549019607843137 0.12549019607843137 0.12549019607843137
            ambientIntensity 0.2
            transparency 0
            shininess 0.5
        }
    }
    geometry IndexedFaceSet {
        ccw TRUE
        solid FALSE
        coord DEF co Coordinate {
            point [
                -0.1993 -2.0079 0.8338, -0.1993 -2.0079 0.779, -0.0195 -2.0079 0.779, 0.052 -2.0079 1.0221, 0.066 -2.0079 1.0238, -0.0083 -2.0079 1.0238, -0.0083 -2.0079 0.4634, -0.0083 -2.0079 0.0, 0.1498 -2.0079 0.0, 2.5591 -2.0079 -0.0, 3.4646 -2.0079 0.0, 3.4646 -2.0079 0.4634, 0.1848 -2.0079 1.0007, 0.1848 -2.0079 0.9409, 0.2352 -2.0079 0.9409, 0.1962 -2.0079 0.5383, 0.1886 -2.0079 0.5374, 0.2352 -2.0079 0.5374, 0.4187 -2.0079 0.6231, 0.4187 -2.0079 0.5603, 0.4537 -2.0079 0.5603, 0.4951 -2.0079 0.539, 0.4537 -2.0079 0.539, 0.4537 -2.0079 0.5374, -0.3612 -2.0079 0.8765, -0.3252 -2.0079 0.846, -0.1993 -2.0079 1.0238, -0.5086 -2.0079 1.0238, -0.479 -2.0079 1.0033, -0.433 -2.0079 0.9493, -0.4073 -2.0079 0.8983, -0.4008 -2.0079 0.8961, -0.7812 -2.0079 1.0434, -0.7196 -2.0079 1.0656, -2.2939 -2.0079 5.7874, -0.1993 -2.0079 5.7874, -0.5967 -2.0079 1.0647, -0.5308 -2.0079 1.0392, -0.6597 -2.0079 1.0723, -0.8137 -2.0079 1.0238, -2.2939 -2.0079 1.0238, -0.8191 -2.0079 1.0205, -2.2939 -2.0079 0.8338, -1.1044 -2.0079 0.8338, -1.0928 -2.0079 0.8601, -1.0609 -2.0079 0.901, -0.9604 -2.0079 0.9583, -0.9081 -2.0079 0.9647, -0.8503 -2.0079 0.9938, -0.8928 -2.0079 0.9639, -0.8775 -2.0079 0.9621, -1.0519 -2.0079 0.9095, -1.0096 -2.0079 0.9392, -1.026 -2.0079 0.5694, -1.0675 -2.0079 0.6048, -2.2939 -2.0079 0.5374, -0.978 -2.0079 0.546, -1.0979 -2.0079 0.6481, -1.1169 -2.0079 0.6976, -2.2939 -2.0079 0.779, -1.1233 -2.0079 0.7495, -1.1229 -2.0079 0.7623, -1.1199 -2.0079 0.779, -1.114 -2.0079 0.8122, -0.9612 -2.0079 0.541, -0.9596 -2.0079 0.5374, -0.9479 -2.0079 0.5125, -0.9282 -2.0079 0.4881, -1.5748 -2.0079 -0.1969, -1.378 -2.0079 0.0, -2.2939 -2.0079 0.4634, -0.0195 -2.0079 0.0, -0.1993 -2.0079 0.4634, -0.1993 -2.0079 0.0, -0.78 -2.0079 0.4634, -0.8029 -2.0079 0.4546, -0.835 -2.0079 0.4507, -0.8402 -2.0079 0.4508, -0.8715 -2.0079 0.4557, -0.89 -2.0079 0.4634, -0.9022 -2.0079 0.4685, -0.7106 -2.0079 0.5374, -0.7107 -2.0079 0.5369, -0.7264 -2.0079 0.5073, -0.7468 -2.0079 0.4844, -0.7733 -2.0079 0.466, -0.2819 -2.0079 0.7676, -0.2758 -2.0079 0.7243, -0.541 -2.0079 0.6158, -0.5318 -2.0079 0.6194, -0.5162 -2.0079 0.6951, -0.7354 -2.0079 0.6725, -0.5574 -2.0079 0.7655, -0.7586 -2.0079 0.6936, -0.7868 -2.0079 0.7087, -0.5491 -2.0079 0.61, -0.2986 -2.0079 0.6348, -0.325 -2.0079 0.5981, -0.1993 -2.0079 0.5374, -0.3588 -2.0079 0.7346, -0.3651 -2.0079 0.7601, -0.3752 -2.0079 0.779, -1.0363 -2.0079 0.779, -0.2819 -2.0079 0.6769, -0.5216 -2.0079 0.6207, -0.5203 -2.0079 0.6206, -0.5163 -2.0079 0.6197, -1.0285 -2.0079 0.6992, -1.0127 -2.0079 0.6723, -0.9452 -2.0079 0.6586, -0.9888 -2.0079 0.6478, -0.9599 -2.0079 0.63, -0.8961 -2.0079 0.7025, -0.9233 -2.0079 0.6837, -1.0396 -2.0079 0.7522, -1.038 -2.0079 0.7318, -0.8668 -2.0079 0.7138, -0.835 -2.0079 0.7177, -0.8189 -2.0079 0.7167, -0.3611 -2.0079 0.5675, -0.4016 -2.0079 0.5477, -0.4458 -2.0079 0.5383, -0.5627 -2.0079 0.5795, -0.5624 -2.0079 0.5848, -0.7022 -2.0079 0.5968, -0.5597 -2.0079 0.5949, -0.5546 -2.0079 0.6039, -0.3851 -2.0079 0.6527, -0.3705 -2.0079 0.6734, -0.3614 -2.0079 0.6971, -0.3582 -2.0079 0.723, -0.5242 -2.0079 0.5383, -0.5317 -2.0079 0.5395, -0.5405 -2.0079 0.543, -0.5491 -2.0079 0.5491, -0.5522 -2.0079 0.5523, -0.558 -2.0079 0.5606, -0.5615 -2.0079 0.5696, -0.7029 -2.0079 0.5697, -0.7022 -2.0079 0.5835, -0.5136 -2.0079 0.6194, -0.4538 -2.0079 0.6194, -0.43 -2.0079 0.6239, -0.4065 -2.0079 0.6348, -0.3869 -2.0079 0.6508, -0.4724 -2.0079 0.8266, -1.0243 -2.0079 0.814, -1.0356 -2.0079 0.7844, -0.4618 -2.0079 0.8266, -0.3774 -2.0079 0.783, -0.3927 -2.0079 0.8002, -0.4133 -2.0079 0.8145, -0.4365 -2.0079 0.8235, -0.501 -2.0079 0.9064, -0.531 -2.0079 0.9422, -0.8364 -2.0079 0.8651, -0.5344 -2.0079 0.9452, -0.5717 -2.0079 0.9711, -0.8161 -2.0079 0.9071, -1.0105 -2.0079 0.8338, -0.8459 -2.0079 0.8703, -0.474 -2.0079 0.8338, -0.4805 -2.0079 0.8636, -0.8757 -2.0079 0.8812, -0.9068 -2.0079 0.885, -0.9206 -2.0079 0.8843, -0.7863 -2.0079 0.9427, -0.6133 -2.0079 0.9871, -0.7507 -2.0079 0.9688, -0.6584 -2.0079 0.9926, -0.7073 -2.0079 0.9863, -0.9534 -2.0079 0.8766, -0.983 -2.0079 0.8608, -1.0059 -2.0079 0.8404, -0.3165 -2.0079 0.8338, -0.2981 -2.0079 0.8082, -0.2864 -2.0079 0.779, 0.5127 -2.0079 0.779, 0.4908 -2.0079 0.7258, 0.4908 -2.0079 0.7043, 0.4855 -2.0079 0.6445, 0.4855 -2.0079 0.6231, 0.4951 -2.0079 0.5603, 0.4537 -2.0079 0.6231, 0.4537 -2.0079 0.7043, 0.4537 -2.0079 0.6445, 0.4187 -2.0079 0.7043, 0.4187 -2.0079 0.6445, 0.382 -2.0079 0.5374, 0.3946 -2.0079 0.539, 0.3946 -2.0079 0.7258, 0.4537 -2.0079 0.7258, 0.4537 -2.0079 0.779, 0.382 -2.0079 0.779, 0.0099 -2.0079 0.603, 0.0131 -2.0079 0.6403, 0.0051 -2.0079 0.5964, 0.0018 -2.0079 0.5882, 0.1073 -2.0079 0.539, 0.0839 -2.0079 0.539, 0.0552 -2.0079 0.5374, -0.0083 -2.0079 0.5374, 0.0041 -2.0079 0.5561, 0.0012 -2.0079 0.564, 0.0354 -2.0079 0.6726, -0.0083 -2.0079 0.779, 0.018 -2.0079 0.6659, 0.0131 -2.0079 0.6631, 0.0172 -2.0079 0.6092, 0.0275 -2.0079 0.6142, 0.0268 -2.0079 0.6493, 0.0443 -2.0079 0.6183, 0.0648 -2.0079 0.6556, 0.0569 -2.0079 0.6565, 0.0414 -2.0079 0.6547, 0.0839 -2.0079 0.5596, 0.0833 -2.0079 0.5596, 0.0772 -2.0079 0.5511, 0.0695 -2.0079 0.544, 0.0194 -2.0079 0.5408, 0.0115 -2.0079 0.5463, 0.009 -2.0079 0.549, 0.065 -2.0079 0.5411, 0.0557 -2.0079 0.5375, 0.0001 -2.0079 0.5747, 0.0002 -2.0079 0.5782, 0.1429 -2.0079 0.6523, 0.0973 -2.0079 0.6605, 0.1401 -2.0079 0.6448, 0.102 -2.0079 0.6529, 0.1056 -2.0079 0.642, 0.0591 -2.0079 0.6755, 0.0736 -2.0079 0.6741, 0.0833 -2.0079 0.6711, 0.0839 -2.0079 0.6238, 0.0831 -2.0079 0.6342, 0.0807 -2.0079 0.6425, 0.0779 -2.0079 0.6473, 0.1496 -2.0079 0.6113, 0.139 -2.0079 0.5678, 0.1498 -2.0079 0.6112, 0.1484 -2.0079 0.562, 0.1498 -2.0079 0.5615, 0.1458 -2.0079 0.6153, 0.1427 -2.0079 0.6202, 0.1073 -2.0079 0.6249, 0.1402 -2.0079 0.6273, 0.1391 -2.0079 0.6364, 0.0744 -2.0079 0.6511, 0.0702 -2.0079 0.6537, 0.139 -2.0079 0.5437, 0.1498 -2.0079 0.5397, 0.1498 -2.0079 0.5374, 0.1532 -2.0079 0.5384, 0.1618 -2.0079 0.5374, 0.1498 -2.0079 0.4634, 0.1752 -2.0079 0.5358, 0.1472 -2.0079 0.6586, 0.1498 -2.0079 0.661, 0.1498 -2.0079 0.779, 0.1541 -2.0079 0.6649, 0.1618 -2.0079 0.6694, 0.228 -2.0079 0.5659, 0.2251 -2.0079 0.5585, 0.2208 -2.0079 0.5523, 0.1748 -2.0079 0.6738, 0.1911 -2.0079 0.6755, 0.2352 -2.0079 0.779, 0.2075 -2.0079 0.674, 0.2227 -2.0079 0.6696, 0.2213 -2.0079 0.5973, 0.2257 -2.0079 0.5909, 0.2227 -2.0079 0.6468, 0.2282 -2.0079 0.584, 0.2291 -2.0079 0.5753, 0.2141 -2.0079 0.5464, 0.2085 -2.0079 0.543, 0.1888 -2.0079 0.6565, 0.1819 -2.0079 0.656, 0.1633 -2.0079 0.6385, 0.1756 -2.0079 0.6543, 0.1704 -2.0079 0.6515, 0.1635 -2.0079 0.6354, 0.1644 -2.0079 0.6318, 0.1661 -2.0079 0.6286, 0.1684 -2.0079 0.6261, 0.1766 -2.0079 0.6209, 0.2038 -2.0079 0.6548, 0.1911 -2.0079 0.6146, 0.217 -2.0079 0.6501, 0.2002 -2.0079 0.611, 0.2157 -2.0079 0.6023, 0.1669 -2.0079 0.6484, 0.1648 -2.0079 0.6454, 0.1637 -2.0079 0.6422, 0.1631 -2.0079 0.5566, 0.1746 -2.0079 0.5976, 0.1606 -2.0079 0.604, 0.1775 -2.0079 0.5549, 0.1785 -2.0079 0.5549, 0.1899 -2.0079 0.5912, 0.1905 -2.0079 0.5563, 0.2051 -2.0079 0.573, 0.2049 -2.0079 0.5759, 0.1966 -2.0079 0.5585, 0.1987 -2.0079 0.5598, 0.2014 -2.0079 0.5622, 0.2034 -2.0079 0.5652, 0.2046 -2.0079 0.5685, 0.2038 -2.0079 0.5796, 0.202 -2.0079 0.5827, 0.1991 -2.0079 0.5857, 0.5813 -2.0079 0.8865, 0.5127 -2.0079 0.8865, 0.6003 -2.0079 0.8354, 0.5127 -2.0079 0.8338, 0.627 -2.0079 0.8354, 3.4646 -2.0079 0.8338, 3.4646 -2.0079 1.0238, 0.5558 -2.0079 1.0222, 0.5127 -2.0079 1.0238, 0.5035 -2.0079 0.8865, 0.4855 -2.0079 0.8354, 0.4537 -2.0079 0.8338, 0.4589 -2.0079 0.8354, 0.4537 -2.0079 1.0238, 0.5127 -2.0079 0.9768, 0.53 -2.0079 1.0222, 0.382 -2.0079 0.8338, 0.3795 -2.0079 0.8392, 0.3478 -2.0079 0.8354, 0.3497 -2.0079 1.0222, 0.382 -2.0079 1.0238, 0.2788 -2.0079 1.0238, 0.2788 -2.0079 0.8338, 0.2964 -2.0079 0.8354, 0.2964 -2.0079 1.0222, 0.4434 -2.0079 0.8974, 0.4342 -2.0079 0.8781, 0.427 -2.0079 0.991, 0.4385 -2.0079 0.9747, 0.4203 -2.0079 0.8615, 0.4008 -2.0079 0.8475, 0.382 -2.0079 0.8402, 0.4203 -2.0079 0.9975, 0.3782 -2.0079 1.0191, 0.382 -2.0079 1.0177, 0.4008 -2.0079 1.0108, 0.4454 -2.0079 0.9569, 0.4485 -2.0079 0.9312, 0.448 -2.0079 0.9193, 0.2352 -2.0079 1.0238, 0.2569 -2.0079 1.0222, 0.2352 -2.0079 1.0222, 0.1848 -2.0079 0.8567, 0.2352 -2.0079 0.8567, 0.1848 -2.0079 0.9195, 0.2352 -2.0079 0.9195, 0.2516 -2.0079 0.9195, 0.2611 -2.0079 0.8567, 0.2516 -2.0079 0.9409, 0.2569 -2.0079 1.0007, 0.2352 -2.0079 1.0007, 0.1606 -2.0079 0.8354, 0.1498 -2.0079 0.8338, 0.2352 -2.0079 0.8338, 0.2611 -2.0079 0.8354, 0.2352 -2.0079 0.8354, 0.1606 -2.0079 1.0222, 0.1498 -2.0079 1.0238, 0.5127 -2.0079 0.4634, 0.5127 -2.0079 0.0, 1.378 -2.0079 0.0, 0.2352 -2.0079 0.0, 0.2352 -2.0079 0.4634, 0.2788 -2.0079 0.0, 0.2788 -2.0079 0.4634, 0.382 -2.0079 0.0, 0.382 -2.0079 0.4634, -0.0195 -2.0079 0.4634, -3.4646 -2.0079 0.0, -2.5591 -2.0079 0.0, -2.2939 -2.0079 -0.1969, -2.3622 -2.0079 -0.1969, 0.099 -2.0079 1.0238, 0.1034 -2.0079 1.0234, 0.1232 -2.0079 1.0177, 0.1232 -2.0079 0.9925, 0.1232 -2.0079 0.8662, 0.1232 -2.0079 0.8431, 0.0792 -2.0079 1.0036, 0.0703 -2.0079 1.0031, 0.1201 -2.0079 0.8415, 0.1 -2.0079 0.8349, 0.088 -2.0079 0.8338, 0.1022 -2.0079 1.0008, 0.1212 -2.0079 0.9936, 0.0543 -2.0079 0.9997, 0.0398 -2.0079 0.9925, 0.0283 -2.0079 0.9829, 0.027 -2.0079 0.9815, 0.018 -2.0079 0.9685, 0.0117 -2.0079 0.9523, 0.0087 -2.0079 0.9267, 0.009 -2.0079 0.9182, 0.1048 -2.0079 0.858, 0.0837 -2.0079 0.854, 0.075 -2.0079 0.8537, 0.0122 -2.0079 0.8999, 0.0185 -2.0079 0.885, 0.027 -2.0079 0.8734, 0.0323 -2.0079 0.8683, 0.0587 -2.0079 0.8554, 0.045 -2.0079 0.8601, 0.079 -2.0079 1.0254, -0.0083 -2.0079 5.7874, 0.1498 -2.0079 5.7874, -0.0032 -2.0079 0.9802, 0.0103 -2.0079 0.9978, 0.015 -2.0079 1.0023, 0.0325 -2.0079 1.0145, -0.0083 -2.0079 0.8829, -0.013 -2.0079 0.8949, -0.0195 -2.0079 0.8338, -0.0166 -2.0079 0.9253, -0.0163 -2.0079 0.935, -0.0195 -2.0079 1.0238, -0.0121 -2.0079 0.9594, -0.0083 -2.0079 0.9683, 0.0223 -2.0079 0.8453, 0.0073 -2.0079 0.8577, -0.0083 -2.0079 0.8338, 0.0058 -2.0079 0.8594, -0.0054 -2.0079 0.8754, 0.0715 -2.0079 0.8322, 0.0602 -2.0079 0.8328, 0.0552 -2.0079 0.8338, 0.04 -2.0079 0.8369, 0.0911 -2.0079 0.6666, 0.0424 -2.0079 0.5358, 0.0288 -2.0079 0.5374, 0.0284 -2.0079 0.5375, 0.3023 -2.0079 0.5721, 0.3052 -2.0079 0.5611, 0.3058 -2.0079 0.5611, 0.3451 -2.0079 0.6724, 0.2788 -2.0079 0.6399, 0.3087 -2.0079 0.5719, 0.3069 -2.0079 0.5657, 0.2788 -2.0079 0.5374, 0.2788 -2.0079 0.5771, 0.2413 -2.0079 0.6724, 0.2675 -2.0079 0.6724, 0.2788 -2.0079 0.779, 0.2936 -2.0079 0.5393, 0.2929 -2.0079 0.5374, 0.2834 -2.0079 0.515, 0.2461 -2.0079 0.4781, 0.2461 -2.0079 0.4989, 0.2744 -2.0079 0.5017, 0.2787 -2.0079 0.5065, 0.2788 -2.0079 0.5066, 0.2509 -2.0079 0.4973, 0.2594 -2.0079 0.4962, 0.2788 -2.0079 0.4803, 0.2707 -2.0079 0.4772, 0.2612 -2.0079 0.4761, 0.2561 -2.0079 0.4763, 0.2653 -2.0079 0.4969, 0.2704 -2.0079 0.4989, 0.3694 -2.0079 0.6724, 0.3162 -2.0079 0.5374, 0.3088 -2.0079 0.5188, 0.2982 -2.0079 0.4982, 0.2897 -2.0079 0.4879, 0.2881 -2.0079 0.4865, 0.2799 -2.0079 0.4807, -3.4646 -2.0079 5.7874, -3.4646 -2.0079 1.0238, -3.4646 -2.0079 0.8338, -3.4646 -2.0079 0.779, -3.4646 -2.0079 0.5374, -3.4646 -2.0079 0.4634, -0.0243 -2.0079 0.8567, -0.0243 -2.0079 0.8354, -0.1228 -2.0079 0.8354, -0.0987 -2.0079 1.0222, -0.0987 -2.0079 0.8567, -0.1228 -2.0079 1.0222, -0.0195 -2.0079 0.5374, -0.0223 -2.0079 0.539, -0.1228 -2.0079 0.539, -0.0223 -2.0079 0.5603, -0.0266 -2.0079 0.7043, -0.0987 -2.0079 0.6231, -0.0987 -2.0079 0.5603, -0.0319 -2.0079 0.6231, -0.0319 -2.0079 0.6445, -0.0987 -2.0079 0.6445, -0.0987 -2.0079 0.7043, -0.1228 -2.0079 0.7258, -0.0266 -2.0079 0.7258, -0.0195 -2.0079 5.7874, 0.4537 -2.0079 0.0, 0.4537 -2.0079 0.4634, 0.5127 -2.0079 0.5374, 0.2352 -2.0079 5.7874, 0.2788 -2.0079 5.7874, 0.382 -2.0079 5.7874, 0.4537 -2.0079 5.7874, 0.5127 -2.0079 5.7874, 3.4646 -2.0079 5.7874, 0.5304 -2.0079 0.539, 0.5304 -2.0079 0.7258, 0.861 -2.0079 0.539, 0.8343 -2.0079 0.539, 0.5818 -2.0079 0.539, 3.4646 -2.0079 0.5374, 3.4646 -2.0079 0.779, 0.7898 -2.0079 0.7258, 0.8153 -2.0079 0.5901, 0.7375 -2.0079 0.5901, 0.7195 -2.0079 0.539, 0.6929 -2.0079 0.539, 0.764 -2.0079 0.7258, 0.6682 -2.0079 0.5817, 0.6543 -2.0079 0.5652, 0.6348 -2.0079 0.5512, 0.6135 -2.0079 0.5428, 0.6543 -2.0079 0.7011, 0.6609 -2.0079 0.6946, 0.6725 -2.0079 0.6783, 0.6794 -2.0079 0.6605, 0.5837 -2.0079 0.7258, 0.6122 -2.0079 0.7227, 0.6348 -2.0079 0.7144, 0.6825 -2.0079 0.6348, 0.6819 -2.0079 0.6229, 0.6774 -2.0079 0.601, 1.5748 -2.0079 -0.1969, 2.3622 -2.0079 -0.1969, 2.5591 1.811 0.0, 2.5591 2.0079 0.0, 3.0079 1.7618 0.0, 2.5591 -1.811 0.0, 1.378 -1.811 0.0, 3.1654 1.7618 0.0, 3.5569 -1.9634 0.0, 3.571 -1.941 0.0, 3.5797 -1.916 0.0, 3.5382 -1.9821 0.0, 3.5158 -1.9962 0.0, 3.4908 -2.0049 0.0, -1.378 1.811 0.0, -1.378 2.0079 0.0, 2.0276 -1.2303 0.0, 2.0276 -1.7618 0.0, 2.1457 -1.7618 0.0, 3.5827 1.8898 0.0, 3.5827 -1.8898 0.0, -3.5827 1.8898 0.0, -3.0118 -1.3976 0.0, -3.5827 -1.8898 0.0, -3.0118 -1.5945 0.0, -3.5787 -1.9203 0.0, 3.0079 1.2303 0.0, 2.1457 -1.2303 0.0, 3.1654 1.2303 0.0, -1.378 -1.811 0.0, -3.4951 2.0038 0.0, -3.4646 2.0079 0.0, -3.0118 1.5945 0.0, -3.4951 -2.0038 0.0, -3.5236 -1.9921 0.0, -3.0118 1.3976 0.0, -2.815 1.3976 0.0, -2.815 -1.3976 0.0, -3.5481 -1.9733 0.0, -3.5669 -1.9488 0.0, 1.378 1.811 0.0, 1.378 2.0079 0.0, -2.5591 2.0079 0.0, -2.5591 1.811 0.0, -3.5787 1.9203 0.0, -3.5669 1.9488 0.0, -2.815 1.5945 0.0, -2.815 -1.5945 0.0, -2.5591 -1.811 0.0, 3.4646 2.0079 0.0, 3.4951 2.0038 0.0, 3.5236 1.9921 0.0, 3.5787 1.9203 0.0, -3.5481 1.9733 0.0, -3.5236 1.9921 0.0, 3.5481 1.9733 0.0, 3.5669 1.9488 0.0, 3.5827 -1.8898 5.7874, 3.5827 1.8898 5.7874, -3.4646 2.0079 5.7874, 3.4646 2.0079 5.7874, -1.5748 2.0079 -0.1969, -2.3622 2.0079 -0.1969, 2.3622 2.0079 -0.1969, 1.5748 2.0079 -0.1969, -3.5827 -1.8898 5.7874, -3.5827 1.8898 5.7874, 3.4646 -1.8898 5.9055, 3.4646 1.8898 5.9055, -3.4646 -1.8898 5.9055, -3.4646 1.8898 5.9055, -3.4951 2.0038 5.7874, -3.5236 1.9921 5.7874, -3.5481 1.9733 5.7874, -3.5669 1.9488 5.7874, -3.5787 1.9203 5.7874, 3.4646 1.9203 5.9015, -3.4646 1.9203 5.9015, 3.4646 1.9488 5.8897, -3.4646 1.9488 5.8897, 3.4646 1.9733 5.8709, -3.4646 1.9733 5.8709, 3.4646 1.9921 5.8465, -3.4646 1.9921 5.8465, 3.4646 2.0038 5.818, -3.4646 2.0038 5.818, 3.5787 1.9203 5.7874, 3.5669 1.9488 5.7874, 3.5481 1.9733 5.7874, 3.5236 1.9921 5.7874, 3.4951 2.0038 5.7874, -3.5787 1.8898 5.818, -3.5748 1.9193 5.818, -3.5157 1.9193 5.8897, -3.491 1.905 5.9015, -3.4862 1.9114 5.9015, -3.4725 1.9193 5.9015, -3.4941 1.8977 5.9015, -3.5216 1.905 5.8897, -3.5452 1.9114 5.8709, -3.4951 1.8898 5.9015, -3.5063 1.9315 5.8897, -3.4799 1.9162 5.9015, -3.4941 1.9409 5.8897, -3.4799 1.9468 5.8897, -3.5236 1.8898 5.8897, -3.5481 1.8898 5.8709, -3.5669 1.8898 5.8465, -3.5369 1.9315 5.8709, -3.5236 1.9488 5.8709, -3.5063 1.9621 5.8709, -3.4862 1.9704 5.8709, -3.5634 1.9162 5.8465, -3.5531 1.9409 5.8465, -3.5369 1.9621 5.8465, -3.5157 1.9783 5.8465, -3.491 1.9886 5.8465, -3.5634 1.9468 5.818, -3.5452 1.9704 5.818, -3.5216 1.9886 5.818, -3.4941 2.0 5.818, 3.4941 2.0 5.818, 3.4941 1.9409 5.8897, 3.4799 1.9162 5.9015, 3.4862 1.9114 5.9015, 3.4951 1.8898 5.9015, 3.4941 1.8977 5.9015, 3.4725 1.9193 5.9015, 3.4799 1.9468 5.8897, 3.4862 1.9704 5.8709, 3.5063 1.9315 5.8897, 3.491 1.905 5.9015, 3.5157 1.9193 5.8897, 3.5216 1.905 5.8897, 3.5236 1.8898 5.8897, 3.5063 1.9621 5.8709, 3.5236 1.9488 5.8709, 3.5369 1.9315 5.8709, 3.5452 1.9114 5.8709, 3.5481 1.8898 5.8709, 3.491 1.9886 5.8465, 3.5157 1.9783 5.8465, 3.5369 1.9621 5.8465, 3.5531 1.9409 5.8465, 3.5634 1.9162 5.8465, 3.5669 1.8898 5.8465, 3.5216 1.9886 5.818, 3.5452 1.9704 5.818, 3.5634 1.9468 5.818, 3.5748 1.9193 5.818, 3.5787 1.8898 5.818, -3.5787 -1.9203 5.7874, -3.5669 -1.9488 5.7874, -3.5481 -1.9733 5.7874, -3.5236 -1.9921 5.7874, -3.4951 -2.0038 5.7874, -3.4951 -1.8898 5.9015, -3.5236 -1.8898 5.8897, -3.5481 -1.8898 5.8709, -3.5669 -1.8898 5.8465, -3.5787 -1.8898 5.818, 3.4951 -1.8898 5.9015, 3.5236 -1.8898 5.8897, 3.5481 -1.8898 5.8709, 3.5669 -1.8898 5.8465, 3.5787 -1.8898 5.818, 3.4908 -2.0044 5.7874, 3.4951 -2.0038 5.7874, 3.5155 -1.9954 5.7874, 3.5236 -1.9921 5.7874, 3.5376 -1.9813 5.7874, 3.5561 -1.9628 5.7874, 3.5481 -1.9733 5.7874, 3.5792 -1.916 5.7874, 3.5787 -1.9203 5.7874, 3.5702 -1.9407 5.7874, 3.5669 -1.9488 5.7874, -3.4646 -2.0038 5.818, -3.4941 -2.0 5.818, -3.4941 -1.9409 5.8897, -3.4799 -1.9162 5.9015, -3.4862 -1.9114 5.9015, -3.4941 -1.8977 5.9015, -3.4725 -1.9193 5.9015, -3.4799 -1.9468 5.8897, -3.4862 -1.9704 5.8709, -3.4646 -1.9203 5.9015, -3.5063 -1.9315 5.8897, -3.491 -1.905 5.9015, -3.5157 -1.9193 5.8897, -3.5216 -1.905 5.8897, -3.4646 -1.9488 5.8897, -3.4646 -1.9733 5.8709, -3.4646 -1.9921 5.8465, -3.5063 -1.9621 5.8709, -3.5236 -1.9488 5.8709, -3.5369 -1.9315 5.8709, -3.5452 -1.9114 5.8709, -3.491 -1.9886 5.8465, -3.5157 -1.9783 5.8465, -3.5369 -1.9621 5.8465, -3.5531 -1.9409 5.8465, -3.5634 -1.9162 5.8465, -3.5216 -1.9886 5.818, -3.5452 -1.9704 5.818, -3.5634 -1.9468 5.818, -3.5748 -1.9193 5.818, 3.4941 -2.0 5.818, 3.5216 -1.9886 5.818, 3.5452 -1.9704 5.818, 3.5634 -1.9468 5.818, 3.5748 -1.9193 5.818, 3.5634 -1.9162 5.8465, 3.5452 -1.9114 5.8709, 3.5216 -1.905 5.8897, 3.4941 -1.8977 5.9015, 3.5531 -1.9409 5.8465, 3.5369 -1.9315 5.8709, 3.5157 -1.9193 5.8897, 3.491 -1.905 5.9015, 3.5369 -1.9621 5.8465, 3.5236 -1.9488 5.8709, 3.5063 -1.9315 5.8897, 3.4862 -1.9114 5.9015, 3.5157 -1.9783 5.8465, 3.5063 -1.9621 5.8709, 3.4941 -1.9409 5.8897, 3.4799 -1.9162 5.9015, 3.491 -1.9886 5.8465, 3.4862 -1.9704 5.8709, 3.4799 -1.9468 5.8897, 3.4725 -1.9193 5.9015, 3.4646 -2.0038 5.818, 3.4646 -1.9921 5.8465, 3.4646 -1.9733 5.8709, 3.4646 -1.9488 5.8897, 3.4646 -1.9203 5.9015, -1.5748 -1.811 -0.1969, -2.3622 -1.811 -0.1969, 1.5748 -1.811 -0.1969, 2.3622 -1.811 -0.1969, -2.3622 1.811 -0.1969, -1.5748 1.811 -0.1969, 1.5748 1.811 -0.1969, 2.3622 1.811 -0.1969, 2.3622 1.811 -0.1969
            ]
        }
        coordIndex [
            0,1,2,-1,3,4,5,-1,6,7,8,-1,9,10,11,-1,12,13,14,-1,15,16,17,-1,18,19,20,-1,21,22,23,-1,24,25,26,-1,26,25,0,-1,27,28,26,-1,26,28,29,-1,29,30,26,-1,26,30,31,-1,26,31,24,-1,32,33,34,-1,35,36,37,-1,34,33,35,-1,35,33,38,-1,35,38,36,-1,32,34,39,-1,39,34,40,-1,39,40,41,-1,42,43,40,-1,40,43,44,-1,40,44,45,-1,40,46,41,-1,41,46,47,-1,41,47,48,-1,48,47,49,-1,48,49,50,-1,45,51,40,-1,40,51,52,-1,40,52,46,-1,53,54,55,-1,53,55,56,-1,54,57,55,-1,55,57,58,-1,55,58,59,-1,59,58,60,-1,60,61,59,-1,59,61,62,-1,59,62,42,-1,42,62,63,-1,42,63,43,-1,64,56,65,-1,65,56,55,-1,65,55,66,-1,66,55,67,-1,68,69,70,-1,71,72,73,-1,73,72,74,-1,74,75,73,-1,73,75,76,-1,73,76,69,-1,76,77,69,-1,69,77,78,-1,69,78,70,-1,70,78,79,-1,70,79,55,-1,55,79,80,-1,55,80,67,-1,81,82,72,-1,72,82,83,-1,83,84,72,-1,72,84,85,-1,72,85,74,-1,86,87,1,-1,88,89,90,-1,91,92,93,-1,93,92,94,-1,88,90,95,-1,96,97,98,-1,99,100,92,-1,92,100,101,-1,92,101,102,-1,1,87,98,-1,98,87,103,-1,98,103,96,-1,89,104,90,-1,90,104,105,-1,90,105,106,-1,107,108,109,-1,109,108,110,-1,109,110,111,-1,112,102,113,-1,113,102,114,-1,113,114,109,-1,109,114,115,-1,109,115,107,-1,112,116,102,-1,102,116,117,-1,102,117,92,-1,92,117,118,-1,92,118,94,-1,97,119,98,-1,98,119,120,-1,98,120,121,-1,122,123,124,-1,124,123,125,-1,124,125,90,-1,90,125,126,-1,90,126,95,-1,127,128,90,-1,90,128,129,-1,90,129,92,-1,92,129,130,-1,92,130,99,-1,131,132,81,-1,132,133,81,-1,81,133,134,-1,81,134,135,-1,135,136,81,-1,81,136,137,-1,81,137,138,-1,138,137,122,-1,138,122,139,-1,139,122,124,-1,106,140,90,-1,90,140,141,-1,90,141,142,-1,142,143,90,-1,90,143,144,-1,90,144,127,-1,145,146,147,-1,147,102,145,-1,145,102,101,-1,145,101,148,-1,148,101,149,-1,149,150,148,-1,148,150,151,-1,148,151,152,-1,153,154,155,-1,154,156,155,-1,155,156,157,-1,155,157,158,-1,159,155,160,-1,146,145,159,-1,159,145,161,-1,159,161,155,-1,155,161,162,-1,155,162,153,-1,160,163,159,-1,159,163,164,-1,159,164,165,-1,158,157,166,-1,166,157,167,-1,166,167,168,-1,168,167,169,-1,168,169,170,-1,171,172,165,-1,165,172,173,-1,165,173,159,-1,25,174,0,-1,0,174,175,-1,0,175,1,-1,1,175,176,-1,1,176,86,-1,177,178,179,-1,180,181,182,-1,182,181,20,-1,20,181,183,-1,20,183,18,-1,179,184,185,-1,185,184,186,-1,185,186,187,-1,188,189,190,-1,178,177,191,-1,191,177,192,-1,191,192,190,-1,190,192,193,-1,190,193,188,-1,194,195,196,-1,196,195,197,-1,198,199,200,-1,201,202,203,-1,204,205,206,-1,206,205,207,-1,194,208,195,-1,195,208,209,-1,195,209,210,-1,210,209,211,-1,212,213,211,-1,211,213,214,-1,211,214,210,-1,215,216,199,-1,199,216,217,-1,199,217,218,-1,219,220,201,-1,201,220,221,-1,201,221,202,-1,218,222,199,-1,199,222,223,-1,199,223,200,-1,203,224,201,-1,201,224,225,-1,201,225,205,-1,205,225,197,-1,205,197,207,-1,207,197,195,-1,226,227,228,-1,228,227,229,-1,228,229,230,-1,204,231,205,-1,205,231,232,-1,205,232,233,-1,234,235,211,-1,211,235,236,-1,211,236,237,-1,238,239,240,-1,240,239,241,-1,240,241,242,-1,243,244,245,-1,245,244,246,-1,245,246,230,-1,230,246,247,-1,230,247,228,-1,237,248,211,-1,211,248,249,-1,211,249,212,-1,238,243,239,-1,239,243,245,-1,239,245,250,-1,250,245,198,-1,250,198,251,-1,251,198,252,-1,251,252,253,-1,253,252,254,-1,254,252,255,-1,254,255,256,-1,257,258,259,-1,259,258,260,-1,259,260,261,-1,262,263,17,-1,17,263,264,-1,261,265,259,-1,259,265,266,-1,259,266,267,-1,267,266,268,-1,267,268,269,-1,270,271,272,-1,272,271,273,-1,272,273,17,-1,17,273,274,-1,17,274,262,-1,264,275,17,-1,17,275,276,-1,17,276,15,-1,277,278,279,-1,279,278,280,-1,279,280,281,-1,279,282,277,-1,277,282,283,-1,277,283,284,-1,284,285,277,-1,277,285,286,-1,277,286,287,-1,287,286,288,-1,287,288,289,-1,289,288,290,-1,289,290,272,-1,272,290,291,-1,272,291,270,-1,292,293,281,-1,281,293,294,-1,281,294,279,-1,295,296,242,-1,242,296,297,-1,242,297,240,-1,295,298,296,-1,296,298,299,-1,296,299,300,-1,300,299,301,-1,300,302,303,-1,301,304,300,-1,300,304,305,-1,300,305,306,-1,306,307,300,-1,300,307,308,-1,300,308,302,-1,303,309,300,-1,300,309,310,-1,300,310,311,-1,312,313,314,-1,314,313,315,-1,314,315,316,-1,317,318,319,-1,319,318,320,-1,313,321,315,-1,315,321,322,-1,315,322,323,-1,323,322,324,-1,323,324,325,-1,325,324,326,-1,325,326,320,-1,320,326,327,-1,320,327,319,-1,328,329,330,-1,331,332,333,-1,328,330,334,-1,334,330,335,-1,334,335,333,-1,333,335,336,-1,333,336,331,-1,337,338,323,-1,339,340,325,-1,338,341,323,-1,323,341,342,-1,323,342,328,-1,328,342,343,-1,328,343,329,-1,339,325,344,-1,331,345,332,-1,332,345,346,-1,332,346,325,-1,325,346,347,-1,325,347,344,-1,340,348,325,-1,325,348,349,-1,325,349,323,-1,323,349,350,-1,323,350,337,-1,333,351,352,-1,352,351,353,-1,354,355,356,-1,356,355,357,-1,357,355,358,-1,358,355,359,-1,358,359,360,-1,360,359,361,-1,360,361,14,-1,14,361,362,-1,14,362,12,-1,363,364,365,-1,352,361,333,-1,333,361,359,-1,333,359,334,-1,334,359,366,-1,334,366,365,-1,365,366,367,-1,365,367,363,-1,353,351,368,-1,368,351,369,-1,368,369,363,-1,370,371,372,-1,255,373,374,-1,374,373,375,-1,374,375,376,-1,376,375,377,-1,376,377,378,-1,71,379,72,-1,72,379,98,-1,72,98,81,-1,81,98,121,-1,81,121,131,-1,380,381,70,-1,68,70,382,-1,382,70,381,-1,382,381,383,-1,384,385,369,-1,369,385,386,-1,369,386,387,-1,388,389,364,-1,390,391,388,-1,389,392,364,-1,364,392,393,-1,364,393,394,-1,390,388,395,-1,363,369,364,-1,364,369,387,-1,364,387,388,-1,388,387,396,-1,388,396,395,-1,391,397,388,-1,388,397,398,-1,388,398,399,-1,399,400,388,-1,388,400,401,-1,388,401,402,-1,402,403,388,-1,388,403,404,-1,388,404,405,-1,405,404,406,-1,406,404,407,-1,407,404,408,-1,407,408,409,-1,409,410,407,-1,407,410,411,-1,407,411,412,-1,412,411,413,-1,4,414,415,-1,415,414,384,-1,415,384,416,-1,5,417,418,-1,418,419,5,-1,5,419,420,-1,5,420,3,-1,421,422,423,-1,424,425,426,-1,426,425,427,-1,426,427,5,-1,5,427,428,-1,5,428,417,-1,429,430,431,-1,431,430,432,-1,431,432,433,-1,434,435,205,-1,205,435,436,-1,205,436,431,-1,431,436,437,-1,431,437,429,-1,394,434,259,-1,259,434,205,-1,259,205,257,-1,257,205,233,-1,257,233,226,-1,226,233,438,-1,226,438,227,-1,200,439,6,-1,6,439,440,-1,6,440,201,-1,201,440,441,-1,201,441,219,-1,198,200,252,-1,252,200,6,-1,252,6,255,-1,255,6,8,-1,255,8,373,-1,442,443,444,-1,445,446,447,-1,447,446,442,-1,447,442,448,-1,448,442,444,-1,449,450,17,-1,17,450,451,-1,452,453,451,-1,451,453,267,-1,451,267,17,-1,17,267,269,-1,17,269,272,-1,454,450,455,-1,455,450,449,-1,455,449,456,-1,374,457,458,-1,459,460,449,-1,449,460,461,-1,449,461,456,-1,256,255,16,-1,16,255,374,-1,16,374,17,-1,17,374,458,-1,17,458,449,-1,449,458,462,-1,449,462,463,-1,464,465,376,-1,376,465,466,-1,376,466,374,-1,374,466,467,-1,374,467,457,-1,463,468,449,-1,449,468,469,-1,449,469,459,-1,452,446,453,-1,453,446,445,-1,453,445,193,-1,193,445,470,-1,193,470,188,-1,188,470,471,-1,188,471,378,-1,378,471,472,-1,378,472,473,-1,473,474,378,-1,378,474,475,-1,378,475,376,-1,376,475,476,-1,376,476,464,-1,34,477,40,-1,40,477,478,-1,40,478,42,-1,42,478,479,-1,42,479,59,-1,59,479,480,-1,59,480,55,-1,55,480,481,-1,55,481,70,-1,70,481,482,-1,70,482,380,-1,483,484,423,-1,423,484,485,-1,486,426,26,-1,422,424,423,-1,423,424,426,-1,423,426,483,-1,483,426,486,-1,483,486,487,-1,2,423,0,-1,0,423,485,-1,0,485,26,-1,26,485,488,-1,26,488,486,-1,489,490,491,-1,490,489,492,-1,492,489,2,-1,492,2,493,-1,494,495,496,-1,496,495,492,-1,496,492,497,-1,497,492,493,-1,497,493,498,-1,498,493,499,-1,379,489,98,-1,98,489,491,-1,98,491,1,-1,1,491,500,-1,1,500,2,-1,2,500,501,-1,2,501,493,-1,4,415,5,-1,5,415,502,-1,5,502,426,-1,426,502,35,-1,426,35,26,-1,26,35,37,-1,26,37,27,-1,71,7,379,-1,379,7,6,-1,379,6,489,-1,489,6,201,-1,489,201,2,-1,2,201,205,-1,2,205,423,-1,423,205,431,-1,423,431,421,-1,421,431,433,-1,377,503,378,-1,378,503,504,-1,378,504,188,-1,188,504,23,-1,188,23,189,-1,189,23,22,-1,394,259,364,-1,364,259,267,-1,364,267,365,-1,365,267,453,-1,365,453,334,-1,334,453,193,-1,334,193,328,-1,328,193,192,-1,328,192,323,-1,323,192,177,-1,323,177,315,-1,503,371,504,-1,504,371,370,-1,504,370,23,-1,23,370,505,-1,23,505,21,-1,21,505,182,-1,384,369,416,-1,416,369,351,-1,416,351,506,-1,506,351,333,-1,506,333,507,-1,507,333,332,-1,507,332,508,-1,508,332,325,-1,508,325,509,-1,509,325,320,-1,509,320,510,-1,510,320,318,-1,510,318,511,-1,512,513,177,-1,514,515,505,-1,185,180,179,-1,179,180,182,-1,179,182,177,-1,177,182,505,-1,177,505,512,-1,512,505,516,-1,517,518,519,-1,520,521,515,-1,515,521,522,-1,515,522,505,-1,505,522,523,-1,505,523,516,-1,319,316,317,-1,317,316,315,-1,317,315,518,-1,518,315,177,-1,518,177,519,-1,519,177,524,-1,523,525,526,-1,526,527,523,-1,523,527,528,-1,523,528,516,-1,529,530,524,-1,524,530,531,-1,524,531,532,-1,513,533,177,-1,177,533,534,-1,177,534,524,-1,524,534,535,-1,524,535,529,-1,532,536,524,-1,524,536,537,-1,524,537,523,-1,523,537,538,-1,523,538,525,-1,539,540,372,-1,372,540,9,-1,372,9,370,-1,370,9,11,-1,370,11,505,-1,505,11,517,-1,505,517,514,-1,514,517,519,-1,541,542,543,-1,10,9,544,-1,545,372,69,-1,543,542,546,-1,547,10,548,-1,548,10,549,-1,547,550,10,-1,10,550,551,-1,10,551,552,-1,553,554,555,-1,556,557,544,-1,544,557,558,-1,544,558,10,-1,10,558,559,-1,10,559,549,-1,560,561,562,-1,562,561,563,-1,562,563,564,-1,555,565,566,-1,566,565,567,-1,544,545,556,-1,556,545,69,-1,556,69,555,-1,555,69,568,-1,555,568,553,-1,569,570,571,-1,380,572,563,-1,563,572,573,-1,574,575,576,-1,573,577,563,-1,563,577,578,-1,563,578,564,-1,543,565,541,-1,541,565,555,-1,541,555,579,-1,579,555,554,-1,579,554,580,-1,570,581,582,-1,576,561,574,-1,574,561,560,-1,574,560,571,-1,571,560,583,-1,571,583,584,-1,571,570,585,-1,585,570,582,-1,585,582,575,-1,575,582,553,-1,575,553,576,-1,576,553,568,-1,576,568,586,-1,586,568,587,-1,586,587,563,-1,563,587,381,-1,563,381,380,-1,542,588,546,-1,546,588,589,-1,546,589,590,-1,557,566,558,-1,558,566,567,-1,558,567,591,-1,591,567,546,-1,584,592,571,-1,571,592,593,-1,571,593,569,-1,590,594,546,-1,546,594,595,-1,546,595,591,-1,559,558,596,-1,596,558,597,-1,581,570,598,-1,599,588,598,-1,598,588,542,-1,554,600,601,-1,602,603,542,-1,542,603,580,-1,542,580,598,-1,598,580,554,-1,598,554,581,-1,581,554,601,-1,604,605,562,-1,562,605,560,-1,606,607,608,-1,608,607,609,-1,598,570,569,-1,598,569,610,-1,610,569,593,-1,610,593,611,-1,611,593,592,-1,611,592,612,-1,612,592,584,-1,612,584,613,-1,613,584,583,-1,613,583,614,-1,614,583,560,-1,614,560,605,-1,609,607,615,-1,609,615,616,-1,616,615,617,-1,616,617,618,-1,618,617,619,-1,618,619,620,-1,620,619,621,-1,620,621,622,-1,622,621,623,-1,622,623,624,-1,624,623,599,-1,624,599,598,-1,597,558,591,-1,597,591,625,-1,625,591,595,-1,625,595,626,-1,626,595,594,-1,626,594,627,-1,627,594,590,-1,627,590,628,-1,628,590,589,-1,628,589,629,-1,629,589,588,-1,629,588,599,-1,605,630,631,-1,632,633,634,-1,609,616,635,-1,634,633,609,-1,636,609,633,-1,636,633,637,-1,637,633,632,-1,637,632,638,-1,639,609,636,-1,640,641,642,-1,642,641,635,-1,642,635,643,-1,643,635,616,-1,643,616,618,-1,639,636,644,-1,644,636,637,-1,644,637,645,-1,645,637,638,-1,645,638,646,-1,647,640,648,-1,648,640,642,-1,648,642,649,-1,649,642,643,-1,649,643,650,-1,650,643,618,-1,650,618,620,-1,651,647,652,-1,652,647,648,-1,652,648,653,-1,653,648,649,-1,653,649,654,-1,654,649,650,-1,654,650,655,-1,655,650,620,-1,655,620,622,-1,630,651,631,-1,631,651,652,-1,631,652,656,-1,656,652,653,-1,656,653,657,-1,657,653,654,-1,657,654,658,-1,658,654,655,-1,658,655,659,-1,659,655,622,-1,659,622,624,-1,605,631,614,-1,614,631,656,-1,614,656,613,-1,613,656,657,-1,613,657,612,-1,612,657,658,-1,612,658,611,-1,611,658,659,-1,611,659,610,-1,610,659,624,-1,610,624,598,-1,641,609,635,-1,630,646,651,-1,651,646,638,-1,651,638,647,-1,647,638,632,-1,647,632,640,-1,640,632,634,-1,640,634,641,-1,641,634,609,-1,599,623,660,-1,661,662,663,-1,607,664,665,-1,663,662,607,-1,666,607,662,-1,666,662,667,-1,667,662,661,-1,667,661,668,-1,615,607,666,-1,669,670,671,-1,671,670,665,-1,671,665,672,-1,672,665,664,-1,672,664,673,-1,615,666,617,-1,617,666,667,-1,617,667,619,-1,619,667,668,-1,619,668,621,-1,674,669,675,-1,675,669,671,-1,675,671,676,-1,676,671,672,-1,676,672,677,-1,677,672,673,-1,677,673,678,-1,679,674,680,-1,680,674,675,-1,680,675,681,-1,681,675,676,-1,681,676,682,-1,682,676,677,-1,682,677,683,-1,683,677,678,-1,683,678,684,-1,623,679,660,-1,660,679,680,-1,660,680,685,-1,685,680,681,-1,685,681,686,-1,686,681,682,-1,686,682,687,-1,687,682,683,-1,687,683,688,-1,688,683,684,-1,688,684,689,-1,599,660,629,-1,629,660,685,-1,629,685,628,-1,628,685,686,-1,628,686,627,-1,627,686,687,-1,627,687,626,-1,626,687,688,-1,626,688,625,-1,625,688,689,-1,625,689,597,-1,670,607,665,-1,623,621,679,-1,679,621,668,-1,679,668,674,-1,674,668,661,-1,674,661,669,-1,669,661,663,-1,669,663,670,-1,670,663,607,-1,604,562,564,-1,604,564,690,-1,690,564,578,-1,690,578,691,-1,691,578,577,-1,691,577,692,-1,692,577,573,-1,692,573,693,-1,693,573,572,-1,693,572,694,-1,694,572,380,-1,694,380,477,-1,608,609,639,-1,608,639,695,-1,695,639,644,-1,695,644,696,-1,696,644,645,-1,696,645,697,-1,697,645,646,-1,697,646,698,-1,698,646,630,-1,698,630,699,-1,699,630,605,-1,699,605,604,-1,607,606,700,-1,607,700,664,-1,664,700,701,-1,664,701,673,-1,673,701,702,-1,673,702,678,-1,678,702,703,-1,678,703,684,-1,684,703,704,-1,684,704,689,-1,689,704,596,-1,689,596,597,-1,10,552,511,-1,511,552,705,-1,705,552,706,-1,706,552,551,-1,706,551,707,-1,707,551,708,-1,708,551,550,-1,708,550,709,-1,547,710,550,-1,550,710,711,-1,550,711,709,-1,712,713,548,-1,548,713,714,-1,548,714,547,-1,547,714,715,-1,547,715,710,-1,548,549,712,-1,712,549,559,-1,712,559,596,-1,477,716,717,-1,718,719,720,-1,608,695,721,-1,720,719,608,-1,722,608,719,-1,722,719,723,-1,723,719,718,-1,723,718,724,-1,725,608,722,-1,726,727,728,-1,728,727,721,-1,728,721,729,-1,729,721,695,-1,729,695,696,-1,725,722,730,-1,730,722,723,-1,730,723,731,-1,731,723,724,-1,731,724,732,-1,733,726,734,-1,734,726,728,-1,734,728,735,-1,735,728,729,-1,735,729,736,-1,736,729,696,-1,736,696,697,-1,737,733,738,-1,738,733,734,-1,738,734,739,-1,739,734,735,-1,739,735,740,-1,740,735,736,-1,740,736,741,-1,741,736,697,-1,741,697,698,-1,716,737,717,-1,717,737,738,-1,717,738,742,-1,742,738,739,-1,742,739,743,-1,743,739,740,-1,743,740,744,-1,744,740,741,-1,744,741,745,-1,745,741,698,-1,745,698,699,-1,477,717,694,-1,694,717,742,-1,694,742,693,-1,693,742,743,-1,693,743,692,-1,692,743,744,-1,692,744,691,-1,691,744,745,-1,691,745,690,-1,690,745,699,-1,690,699,604,-1,727,608,721,-1,716,732,737,-1,737,732,724,-1,737,724,733,-1,733,724,718,-1,733,718,726,-1,726,718,720,-1,726,720,727,-1,727,720,608,-1,705,706,746,-1,707,708,747,-1,709,711,748,-1,710,715,749,-1,714,713,750,-1,712,596,704,-1,713,712,750,-1,750,712,704,-1,750,704,751,-1,751,704,703,-1,751,703,752,-1,752,703,702,-1,752,702,753,-1,753,702,701,-1,753,701,754,-1,754,701,700,-1,754,700,606,-1,715,714,749,-1,749,714,750,-1,749,750,755,-1,755,750,751,-1,755,751,756,-1,756,751,752,-1,756,752,757,-1,757,752,753,-1,757,753,758,-1,758,753,754,-1,758,754,606,-1,711,710,748,-1,748,710,749,-1,748,749,759,-1,759,749,755,-1,759,755,760,-1,760,755,756,-1,760,756,761,-1,761,756,757,-1,761,757,762,-1,762,757,758,-1,762,758,606,-1,708,709,747,-1,747,709,748,-1,747,748,763,-1,763,748,759,-1,763,759,764,-1,764,759,760,-1,764,760,765,-1,765,760,761,-1,765,761,766,-1,766,761,762,-1,766,762,606,-1,706,707,746,-1,746,707,747,-1,746,747,767,-1,767,747,763,-1,767,763,768,-1,768,763,764,-1,768,764,769,-1,769,764,765,-1,769,765,770,-1,770,765,766,-1,770,766,606,-1,511,705,771,-1,771,705,746,-1,771,746,772,-1,772,746,767,-1,772,767,773,-1,773,767,768,-1,773,768,774,-1,774,768,769,-1,774,769,775,-1,775,769,770,-1,775,770,606,-1,606,608,725,-1,606,725,775,-1,775,725,730,-1,775,730,774,-1,774,730,731,-1,774,731,773,-1,773,731,732,-1,773,732,772,-1,772,732,716,-1,772,716,771,-1,771,716,477,-1,771,477,511,-1,776,568,68,-1,68,568,69,-1,777,776,383,-1,383,776,68,-1,587,777,381,-1,381,777,383,-1,776,777,568,-1,568,777,587,-1,545,778,372,-1,372,778,539,-1,779,544,540,-1,540,544,9,-1,778,779,539,-1,539,779,540,-1,544,779,545,-1,545,779,778,-1,780,582,601,-1,601,582,581,-1,781,780,600,-1,600,780,601,-1,553,781,554,-1,554,781,600,-1,780,781,582,-1,582,781,553,-1,782,579,603,-1,603,579,580,-1,783,782,602,-1,602,782,603,-1,541,783,542,-1,542,783,602,-1,783,541,782,-1,782,541,579,-1,
        ]
    }
}
Shape{
    appearance Appearance {
        material  Material 	{
            diffuseColor 1.0 1.0 1.0
            specularColor 0.5019607843137255 0.5019607843137255 0.5019607843137255
            ambientIntensity 0.2
            transparency 0
            shininess 0.5
        }
    }
    geometry IndexedFaceSet {
        ccw TRUE
        solid FALSE
        coord DEF co Coordinate {
            point [
                -2.815 -1.3976 -1.6929, -2.815 -1.3976 0.0, -2.815 -1.5945 -1.6929, -2.815 -1.5945 0.0, -3.0118 -1.5945 -1.6929, -3.0118 -1.5945 0.0, -3.0118 -1.3976 -1.6929, -3.0118 -1.3976 0.0, -2.8579 -1.4406 -1.811, -2.8579 -1.5515 -1.811, -2.9688 -1.4406 -1.811, -2.9688 -1.5515 -1.811, -3.0118 1.5945 -1.6929, -3.0118 1.5945 0.0, -2.815 1.5945 -1.6929, -2.815 1.5945 0.0, -2.815 1.3976 -1.6929, -2.815 1.3976 0.0, -3.0118 1.3976 -1.6929, -3.0118 1.3976 0.0, -2.9688 1.5515 -1.811, -2.8579 1.5515 -1.811, -2.9688 1.4406 -1.811, -2.8579 1.4406 -1.811, 3.1654 1.7618 -1.6929, 3.1654 1.7618 0.0, 3.1654 1.2303 -1.6929, 3.1654 1.2303 0.0, 3.0079 1.2303 -1.6929, 3.0079 1.2303 0.0, 3.0079 1.7618 -1.6929, 3.0079 1.7618 0.0, 3.1224 1.7188 -1.811, 3.1224 1.2733 -1.811, 3.0509 1.7188 -1.811, 3.0509 1.2733 -1.811, 2.1457 -1.2303 -1.6929, 2.1457 -1.2303 0.0, 2.1457 -1.7618 -1.6929, 2.1457 -1.7618 0.0, 2.0276 -1.7618 -1.6929, 2.0276 -1.7618 0.0, 2.0276 -1.2303 -1.6929, 2.0276 -1.2303 0.0, 2.1027 -1.2733 -1.811, 2.1027 -1.7188 -1.811, 2.0705 -1.2733 -1.811, 2.0705 -1.7188 -1.811, -0.0243 -2.0118 0.8567, -0.0243 -2.0118 0.8354, -0.0243 -2.0079 0.8567, -0.0243 -2.0079 0.8354, -0.0987 -2.0118 0.8567, -0.0987 -2.0079 0.8567, -0.0987 -2.0118 1.0222, -0.0987 -2.0079 1.0222, -0.1228 -2.0118 1.0222, -0.1228 -2.0079 1.0222, -0.1228 -2.0118 0.8354, -0.1228 -2.0079 0.8354, 0.0715 -2.0118 0.8322, 0.0715 -2.0079 0.8322, 0.1 -2.0118 0.8349, 0.088 -2.0079 0.8338, 0.1 -2.0079 0.8349, 0.1201 -2.0079 0.8415, 0.1201 -2.0118 0.8415, 0.1232 -2.0079 0.8431, 0.1232 -2.0118 0.8431, 0.1232 -2.0118 0.8662, 0.1232 -2.0079 0.8662, 0.1048 -2.0079 0.858, 0.1048 -2.0118 0.858, 0.0837 -2.0079 0.854, 0.0837 -2.0118 0.854, 0.075 -2.0079 0.8537, 0.075 -2.0118 0.8537, 0.0587 -2.0079 0.8554, 0.0587 -2.0118 0.8554, 0.045 -2.0079 0.8601, 0.045 -2.0118 0.8601, 0.0323 -2.0079 0.8683, 0.0323 -2.0118 0.8683, 0.027 -2.0079 0.8734, 0.027 -2.0118 0.8734, 0.0185 -2.0079 0.885, 0.0185 -2.0118 0.885, 0.0122 -2.0079 0.8999, 0.0122 -2.0118 0.8999, 0.009 -2.0079 0.9182, 0.009 -2.0118 0.9182, 0.0087 -2.0079 0.9267, 0.0087 -2.0118 0.9267, 0.0117 -2.0079 0.9523, 0.0117 -2.0118 0.9523, 0.018 -2.0079 0.9685, 0.018 -2.0118 0.9685, 0.027 -2.0079 0.9815, 0.027 -2.0118 0.9815, 0.0283 -2.0079 0.9829, 0.0283 -2.0118 0.9829, 0.0398 -2.0079 0.9925, 0.0398 -2.0118 0.9925, 0.0543 -2.0079 0.9997, 0.0543 -2.0118 0.9997, 0.0703 -2.0079 1.0031, 0.0703 -2.0118 1.0031, 0.0792 -2.0079 1.0036, 0.0792 -2.0118 1.0036, 0.1022 -2.0079 1.0008, 0.1022 -2.0118 1.0008, 0.1212 -2.0079 0.9936, 0.1212 -2.0118 0.9936, 0.1232 -2.0079 0.9925, 0.1232 -2.0118 0.9925, 0.1232 -2.0118 1.0177, 0.1232 -2.0079 1.0177, 0.079 -2.0079 1.0254, 0.079 -2.0118 1.0254, 0.099 -2.0079 1.0238, 0.1034 -2.0118 1.0234, 0.1034 -2.0079 1.0234, 0.066 -2.0079 1.0238, 0.052 -2.0118 1.0221, 0.052 -2.0079 1.0221, 0.0325 -2.0079 1.0145, 0.0325 -2.0118 1.0145, 0.015 -2.0079 1.0023, 0.015 -2.0118 1.0023, 0.0103 -2.0079 0.9978, 0.0103 -2.0118 0.9978, -0.0032 -2.0079 0.9802, -0.0083 -2.0079 0.9683, -0.0121 -2.0118 0.9594, -0.0032 -2.0118 0.9802, -0.0121 -2.0079 0.9594, -0.0163 -2.0079 0.935, -0.0163 -2.0118 0.935, -0.0166 -2.0079 0.9253, -0.0166 -2.0118 0.9253, -0.013 -2.0079 0.8949, -0.0083 -2.0079 0.8829, -0.0054 -2.0118 0.8754, -0.013 -2.0118 0.8949, -0.0054 -2.0079 0.8754, 0.0058 -2.0079 0.8594, 0.0058 -2.0118 0.8594, 0.0073 -2.0079 0.8577, 0.0073 -2.0118 0.8577, 0.04 -2.0079 0.8369, 0.0223 -2.0118 0.8453, 0.0223 -2.0079 0.8453, 0.0552 -2.0079 0.8338, 0.0602 -2.0118 0.8328, 0.04 -2.0118 0.8369, 0.0602 -2.0079 0.8328, 0.2611 -2.0118 0.8567, 0.2611 -2.0118 0.8354, 0.2611 -2.0079 0.8567, 0.2611 -2.0079 0.8354, 0.1848 -2.0079 0.8567, 0.1848 -2.0118 0.8567, 0.2352 -2.0079 0.8567, 0.1848 -2.0118 0.9195, 0.1848 -2.0079 0.9195, 0.2516 -2.0079 0.9195, 0.2516 -2.0118 0.9195, 0.2352 -2.0079 0.9195, 0.2516 -2.0118 0.9409, 0.2516 -2.0079 0.9409, 0.1848 -2.0079 0.9409, 0.1848 -2.0118 0.9409, 0.2352 -2.0079 0.9409, 0.1848 -2.0118 1.0007, 0.1848 -2.0079 1.0007, 0.2569 -2.0079 1.0007, 0.2569 -2.0118 1.0007, 0.2352 -2.0079 1.0007, 0.2569 -2.0118 1.0222, 0.2569 -2.0079 1.0222, 0.1606 -2.0079 1.0222, 0.1606 -2.0118 1.0222, 0.2352 -2.0079 1.0222, 0.1606 -2.0118 0.8354, 0.1606 -2.0079 0.8354, 0.2352 -2.0079 0.8354, 0.4203 -2.0118 0.8615, 0.401 -2.0118 0.8741, 0.4008 -2.0118 0.8475, 0.3889 -2.0118 0.8657, 0.3795 -2.0118 0.8392, 0.3735 -2.0118 0.8598, 0.3478 -2.0118 0.8354, 0.3477 -2.0118 0.8567, 0.2964 -2.0118 0.8354, 0.3205 -2.0118 0.8567, 0.2964 -2.0118 1.0222, 0.3205 -2.0118 1.0007, 0.3497 -2.0118 1.0222, 0.3488 -2.0118 1.0007, 0.3507 -2.0118 1.0007, 0.3782 -2.0118 1.0191, 0.3746 -2.0118 0.9976, 0.4008 -2.0118 1.0108, 0.3905 -2.0118 0.9915, 0.4203 -2.0118 0.9975, 0.4027 -2.0118 0.9831, 0.427 -2.0118 0.991, 0.4079 -2.0118 0.978, 0.4385 -2.0118 0.9747, 0.4151 -2.0118 0.9675, 0.4454 -2.0118 0.9569, 0.4204 -2.0118 0.9538, 0.4485 -2.0118 0.9312, 0.4232 -2.0118 0.9305, 0.448 -2.0118 0.9193, 0.4224 -2.0118 0.9177, 0.4434 -2.0118 0.8974, 0.4187 -2.0118 0.9008, 0.4342 -2.0118 0.8781, 0.4121 -2.0118 0.887, 0.4032 -2.0118 0.8762, 0.3478 -2.0079 0.8354, 0.2964 -2.0079 0.8354, 0.4203 -2.0079 0.8615, 0.3795 -2.0079 0.8392, 0.382 -2.0079 0.8402, 0.4008 -2.0079 0.8475, 0.4342 -2.0079 0.8781, 0.4434 -2.0079 0.8974, 0.448 -2.0079 0.9193, 0.4485 -2.0079 0.9312, 0.4454 -2.0079 0.9569, 0.4385 -2.0079 0.9747, 0.427 -2.0079 0.991, 0.4203 -2.0079 0.9975, 0.4008 -2.0079 1.0108, 0.382 -2.0079 1.0177, 0.3782 -2.0079 1.0191, 0.3497 -2.0079 1.0222, 0.2964 -2.0079 1.0222, 0.3488 -2.0079 1.0007, 0.3205 -2.0079 1.0007, 0.3205 -2.0079 0.8567, 0.3477 -2.0079 0.8567, 0.4032 -2.0079 0.8762, 0.401 -2.0079 0.8741, 0.3889 -2.0079 0.8657, 0.3735 -2.0079 0.8598, 0.4232 -2.0079 0.9305, 0.4224 -2.0079 0.9177, 0.4187 -2.0079 0.9008, 0.4121 -2.0079 0.887, 0.4027 -2.0079 0.9831, 0.4079 -2.0079 0.978, 0.4151 -2.0079 0.9675, 0.4204 -2.0079 0.9538, 0.3507 -2.0079 1.0007, 0.3746 -2.0079 0.9976, 0.3905 -2.0079 0.9915, 0.3905 -2.0079 0.9915
            ]
        }
        coordIndex [
            0,1,2,-1,2,1,3,-1,2,3,4,-1,4,3,5,-1,4,5,6,-1,6,5,7,-1,6,7,0,-1,0,7,1,-1,8,9,10,-1,10,9,11,-1,12,13,14,-1,14,13,15,-1,14,15,16,-1,16,15,17,-1,16,17,18,-1,18,17,19,-1,18,19,12,-1,12,19,13,-1,20,21,22,-1,22,21,23,-1,24,25,26,-1,26,25,27,-1,26,27,28,-1,28,27,29,-1,28,29,30,-1,30,29,31,-1,30,31,24,-1,24,31,25,-1,32,33,34,-1,34,33,35,-1,36,37,38,-1,38,37,39,-1,38,39,40,-1,40,39,41,-1,40,41,42,-1,42,41,43,-1,42,43,36,-1,36,43,37,-1,44,45,46,-1,46,45,47,-1,40,47,38,-1,38,47,45,-1,42,46,40,-1,40,46,47,-1,44,36,45,-1,45,36,38,-1,36,44,42,-1,42,44,46,-1,28,35,26,-1,26,35,33,-1,30,34,28,-1,28,34,35,-1,32,24,33,-1,33,24,26,-1,24,32,30,-1,30,32,34,-1,4,11,2,-1,2,11,9,-1,6,10,4,-1,4,10,11,-1,8,0,9,-1,9,0,2,-1,0,8,6,-1,6,8,10,-1,16,23,14,-1,14,23,21,-1,18,22,16,-1,16,22,23,-1,20,12,21,-1,21,12,14,-1,12,20,18,-1,18,20,22,-1,48,49,50,-1,50,49,51,-1,52,48,53,-1,53,48,50,-1,54,52,55,-1,55,52,53,-1,56,54,57,-1,57,54,55,-1,58,56,59,-1,59,56,57,-1,49,58,51,-1,51,58,59,-1,54,56,52,-1,52,56,58,-1,52,58,48,-1,48,58,49,-1,60,61,62,-1,62,61,63,-1,63,64,62,-1,62,64,65,-1,62,65,66,-1,66,65,67,-1,66,67,68,-1,69,68,70,-1,70,68,67,-1,69,70,71,-1,69,71,72,-1,72,71,73,-1,72,73,74,-1,74,73,75,-1,74,75,76,-1,76,75,77,-1,76,77,78,-1,78,77,79,-1,78,79,80,-1,80,79,81,-1,80,81,82,-1,82,81,83,-1,82,83,84,-1,84,83,85,-1,84,85,86,-1,86,85,87,-1,86,87,88,-1,88,87,89,-1,88,89,90,-1,90,89,91,-1,90,91,92,-1,92,91,93,-1,92,93,94,-1,94,93,95,-1,94,95,96,-1,96,95,97,-1,96,97,98,-1,98,97,99,-1,98,99,100,-1,100,99,101,-1,100,101,102,-1,102,101,103,-1,102,103,104,-1,104,103,105,-1,104,105,106,-1,106,105,107,-1,106,107,108,-1,108,107,109,-1,108,109,110,-1,110,109,111,-1,110,111,112,-1,112,111,113,-1,112,113,114,-1,115,114,116,-1,116,114,113,-1,117,118,119,-1,119,118,120,-1,119,120,121,-1,121,120,115,-1,121,115,116,-1,118,117,122,-1,118,122,123,-1,122,124,123,-1,123,124,125,-1,123,125,126,-1,126,125,127,-1,126,127,128,-1,128,127,129,-1,128,129,130,-1,130,129,131,-1,132,133,131,-1,131,133,134,-1,131,134,130,-1,132,135,133,-1,133,135,136,-1,133,136,137,-1,137,136,138,-1,137,138,139,-1,139,138,140,-1,141,142,140,-1,140,142,143,-1,140,143,139,-1,141,144,142,-1,142,144,145,-1,142,145,146,-1,146,145,147,-1,146,147,148,-1,149,150,151,-1,151,150,148,-1,151,148,147,-1,152,153,149,-1,149,153,154,-1,149,154,150,-1,152,155,153,-1,153,155,61,-1,153,61,60,-1,102,104,123,-1,94,96,134,-1,134,96,130,-1,123,104,118,-1,139,92,137,-1,137,92,94,-1,137,94,133,-1,133,94,134,-1,104,106,118,-1,118,106,108,-1,118,108,120,-1,120,108,110,-1,120,110,115,-1,115,110,112,-1,115,112,114,-1,68,69,66,-1,66,69,72,-1,66,72,62,-1,62,72,74,-1,62,74,60,-1,60,74,76,-1,60,76,153,-1,153,76,78,-1,153,78,154,-1,154,78,80,-1,154,80,150,-1,150,80,82,-1,150,82,148,-1,148,82,84,-1,148,84,146,-1,146,84,86,-1,146,86,142,-1,142,86,143,-1,143,86,88,-1,143,88,139,-1,139,88,90,-1,139,90,92,-1,96,98,130,-1,130,98,100,-1,130,100,128,-1,128,100,102,-1,128,102,126,-1,126,102,123,-1,156,157,158,-1,158,157,159,-1,160,161,162,-1,162,161,156,-1,162,156,158,-1,163,161,164,-1,164,161,160,-1,165,166,167,-1,167,166,163,-1,167,163,164,-1,168,166,169,-1,169,166,165,-1,170,171,172,-1,172,171,168,-1,172,168,169,-1,173,171,174,-1,174,171,170,-1,175,176,177,-1,177,176,173,-1,177,173,174,-1,178,176,179,-1,179,176,175,-1,180,181,182,-1,182,181,178,-1,182,178,179,-1,183,181,184,-1,184,181,180,-1,159,157,185,-1,185,157,183,-1,185,183,184,-1,183,157,156,-1,156,161,183,-1,183,161,163,-1,183,163,181,-1,176,178,173,-1,173,178,181,-1,173,181,171,-1,171,181,163,-1,171,163,168,-1,168,163,166,-1,186,187,188,-1,188,187,189,-1,188,189,190,-1,190,189,191,-1,190,191,192,-1,192,191,193,-1,192,193,194,-1,194,193,195,-1,194,195,196,-1,196,195,197,-1,196,197,198,-1,197,199,198,-1,198,199,200,-1,198,200,201,-1,201,200,202,-1,201,202,203,-1,203,202,204,-1,203,204,205,-1,205,204,206,-1,205,206,207,-1,207,206,208,-1,207,208,209,-1,209,208,210,-1,209,210,211,-1,211,210,212,-1,211,212,213,-1,213,212,214,-1,213,214,215,-1,215,214,216,-1,215,216,217,-1,217,216,218,-1,217,218,219,-1,219,218,220,-1,219,220,186,-1,186,220,221,-1,186,221,187,-1,192,194,222,-1,222,194,223,-1,224,186,188,-1,192,222,225,-1,192,225,190,-1,190,225,226,-1,190,226,188,-1,188,226,227,-1,188,227,224,-1,186,224,228,-1,186,228,219,-1,219,228,229,-1,219,229,217,-1,217,229,230,-1,217,230,215,-1,215,230,231,-1,215,231,213,-1,213,231,232,-1,213,232,211,-1,211,232,233,-1,211,233,209,-1,209,233,234,-1,209,234,207,-1,207,234,235,-1,207,235,205,-1,205,235,236,-1,237,201,236,-1,236,201,203,-1,236,203,205,-1,237,238,201,-1,201,238,239,-1,201,239,198,-1,196,198,240,-1,240,198,239,-1,194,196,223,-1,223,196,240,-1,199,197,241,-1,241,197,242,-1,197,195,242,-1,242,195,243,-1,195,193,243,-1,243,193,244,-1,221,245,246,-1,221,246,187,-1,187,246,247,-1,187,247,189,-1,189,247,248,-1,189,248,191,-1,191,248,244,-1,191,244,193,-1,214,249,250,-1,214,250,216,-1,216,250,251,-1,216,251,218,-1,218,251,252,-1,218,252,220,-1,220,252,245,-1,220,245,221,-1,206,253,254,-1,206,254,208,-1,208,254,255,-1,208,255,210,-1,210,255,256,-1,210,256,212,-1,212,256,249,-1,212,249,214,-1,199,241,257,-1,199,257,200,-1,200,257,258,-1,200,258,202,-1,202,258,259,-1,202,259,204,-1,204,259,253,-1,204,253,206,-1,
        ]
    }
}
Shape{
    appearance Appearance {
        material  Material 	{
            diffuseColor 0.25098039215686274 0.25098039215686274 0.25098039215686274
            specularColor 0.12549019607843137 0.12549019607843137 0.12549019607843137
            ambientIntensity 0.2
            transparency 0
            shininess 0.5
        }
    }
    geometry IndexedFaceSet {
        ccw TRUE
        solid FALSE
        coord DEF co Coordinate {
            point [
                0.3889 -2.0079 0.8657, 0.401 -2.0079 0.8741, 0.3507 -2.0079 1.0007, 0.3205 -2.0079 1.0007, 0.3205 -2.0079 0.8567, 0.3488 -2.0079 1.0007, 0.3477 -2.0079 0.8567, 0.3735 -2.0079 0.8598, 0.4032 -2.0079 0.8762, 0.4121 -2.0079 0.887, 0.4187 -2.0079 0.9008, 0.4232 -2.0079 0.9305, 0.4027 -2.0079 0.9831, 0.3905 -2.0079 0.9915, 0.4204 -2.0079 0.9538, 0.4151 -2.0079 0.9675, 0.4079 -2.0079 0.978, 0.4224 -2.0079 0.9177, 0.3746 -2.0079 0.9976, 0.3746 -2.0079 0.9976
            ]
        }
        coordIndex [
            0,1,2,-1,3,4,5,-1,5,4,6,-1,5,6,2,-1,2,6,7,-1,2,7,0,-1,1,8,2,-1,2,8,9,-1,2,9,10,-1,11,12,13,-1,14,15,11,-1,11,15,16,-1,11,16,12,-1,10,17,2,-1,2,17,11,-1,2,11,18,-1,18,11,13,-1,
        ]
    }
}
Shape{
    appearance Appearance {
        material  Material 	{
            diffuseColor 1.0 1.0 1.0
            specularColor 0.5019607843137255 0.5019607843137255 0.5019607843137255
            ambientIntensity 0.2
            transparency 0
            shininess 0.5
        }
    }
    geometry IndexedFaceSet {
        ccw TRUE
        solid FALSE
        coord DEF co Coordinate {
            point [
                0.5111 -2.0118 0.9076, 0.5035 -2.0118 0.8865, 0.5738 -2.0118 0.9076, 0.5813 -2.0118 0.8865, 0.5391 -2.0118 0.9852, 0.53 -2.0118 1.0222, 0.4589 -2.0118 0.8354, 0.4855 -2.0118 0.8354, 0.5407 -2.0118 0.9908, 0.5421 -2.0118 0.9983, 0.5558 -2.0118 1.0222, 0.5427 -2.0118 0.9983, 0.5442 -2.0118 0.9904, 0.5456 -2.0118 0.9852, 0.627 -2.0118 0.8354, 0.6003 -2.0118 0.8354, 0.5558 -2.0079 1.0222, 0.627 -2.0079 0.8354, 0.53 -2.0079 1.0222, 0.4589 -2.0079 0.8354, 0.5127 -2.0079 0.9768, 0.4855 -2.0079 0.8354, 0.5035 -2.0079 0.8865, 0.5813 -2.0079 0.8865, 0.5127 -2.0079 0.8865, 0.6003 -2.0079 0.8354, 0.5111 -2.0079 0.9076, 0.5738 -2.0079 0.9076, 0.5456 -2.0079 0.9852, 0.5427 -2.0079 0.9983, 0.5442 -2.0079 0.9904, 0.5421 -2.0079 0.9983, 0.5391 -2.0079 0.9852, 0.5407 -2.0079 0.9908, 0.5407 -2.0079 0.9908
            ]
        }
        coordIndex [
            0,1,2,-1,2,1,3,-1,4,5,0,-1,0,5,6,-1,0,6,1,-1,1,6,7,-1,4,8,5,-1,5,8,9,-1,5,9,10,-1,10,9,11,-1,10,11,12,-1,12,13,10,-1,10,13,2,-1,10,2,14,-1,14,2,3,-1,14,3,15,-1,10,14,16,-1,16,14,17,-1,5,10,18,-1,18,10,16,-1,19,6,20,-1,20,6,5,-1,20,5,18,-1,7,6,21,-1,21,6,19,-1,1,7,22,-1,22,7,21,-1,23,3,24,-1,24,3,1,-1,24,1,22,-1,15,3,25,-1,25,3,23,-1,14,15,17,-1,17,15,25,-1,0,2,26,-1,26,2,27,-1,2,13,27,-1,27,13,28,-1,11,29,30,-1,11,30,12,-1,12,30,28,-1,12,28,13,-1,11,9,29,-1,29,9,31,-1,4,32,33,-1,4,33,8,-1,8,33,31,-1,8,31,9,-1,4,0,32,-1,32,0,26,-1,
        ]
    }
}
Shape{
    appearance Appearance {
        material  Material 	{
            diffuseColor 0.25098039215686274 0.25098039215686274 0.25098039215686274
            specularColor 0.12549019607843137 0.12549019607843137 0.12549019607843137
            ambientIntensity 0.2
            transparency 0
            shininess 0.5
        }
    }
    geometry IndexedFaceSet {
        ccw TRUE
        solid FALSE
        coord DEF co Coordinate {
            point [
                0.5427 -2.0079 0.9983, 0.5421 -2.0079 0.9983, 0.5442 -2.0079 0.9904, 0.5407 -2.0079 0.9908, 0.5456 -2.0079 0.9852, 0.5391 -2.0079 0.9852, 0.5738 -2.0079 0.9076, 0.5111 -2.0079 0.9076, 0.5111 -2.0079 0.9076
            ]
        }
        coordIndex [
            0,1,2,-1,2,1,3,-1,2,3,4,-1,4,3,5,-1,4,5,6,-1,6,5,7,-1,
        ]
    }
}
Shape{
    appearance Appearance {
        material  Material 	{
            diffuseColor 1.0 1.0 1.0
            specularColor 0.5019607843137255 0.5019607843137255 0.5019607843137255
            ambientIntensity 0.2
            transparency 0
            shininess 0.5
        }
    }
    geometry IndexedFaceSet {
        ccw TRUE
        solid FALSE
        coord DEF co Coordinate {
            point [
                -0.0223 -2.0118 0.5603, -0.0223 -2.0118 0.539, -0.0223 -2.0079 0.5603, -0.0223 -2.0079 0.539, -0.0987 -2.0118 0.5603, -0.0987 -2.0079 0.5603, -0.0987 -2.0118 0.6231, -0.0987 -2.0079 0.6231, -0.0319 -2.0118 0.6231, -0.0319 -2.0079 0.6231, -0.0319 -2.0118 0.6445, -0.0319 -2.0079 0.6445, -0.0987 -2.0118 0.6445, -0.0987 -2.0079 0.6445, -0.0987 -2.0118 0.7043, -0.0987 -2.0079 0.7043, -0.0266 -2.0118 0.7043, -0.0266 -2.0079 0.7043, -0.0266 -2.0118 0.7258, -0.0266 -2.0079 0.7258, -0.1228 -2.0118 0.7258, -0.1228 -2.0079 0.7258, -0.1228 -2.0118 0.539, -0.1228 -2.0079 0.539, 0.0833 -2.0118 0.5596, 0.0839 -2.0118 0.5596, 0.0824 -2.0118 0.5812, 0.0839 -2.0118 0.5916, 0.1073 -2.0118 0.6249, 0.0839 -2.0118 0.5931, 0.0839 -2.0118 0.6059, 0.0839 -2.0118 0.539, 0.1073 -2.0118 0.539, 0.024 -2.0118 0.5803, 0.0252 -2.0118 0.5857, 0.0051 -2.0118 0.5964, 0.0789 -2.0118 0.5728, 0.0739 -2.0118 0.5659, 0.0772 -2.0118 0.5511, 0.0709 -2.0118 0.5631, 0.0695 -2.0118 0.544, 0.0643 -2.0118 0.5586, 0.065 -2.0118 0.5411, 0.0572 -2.0118 0.556, 0.0557 -2.0118 0.5375, 0.0485 -2.0118 0.555, 0.0424 -2.0118 0.5358, 0.0406 -2.0118 0.5559, 0.0284 -2.0118 0.5375, 0.0353 -2.0118 0.5579, 0.0194 -2.0118 0.5408, 0.0306 -2.0118 0.5611, 0.0115 -2.0118 0.5463, 0.0286 -2.0118 0.5631, 0.0099 -2.0118 0.603, 0.0272 -2.0118 0.5901, 0.0172 -2.0118 0.6092, 0.03 -2.0118 0.5935, 0.0275 -2.0118 0.6142, 0.0328 -2.0118 0.5957, 0.0382 -2.0118 0.5983, 0.0443 -2.0118 0.6183, 0.0527 -2.0118 0.6017, 0.0839 -2.0118 0.6238, 0.0018 -2.0118 0.5882, 0.0002 -2.0118 0.5782, 0.0238 -2.0118 0.5766, 0.0001 -2.0118 0.5747, 0.0244 -2.0118 0.5713, 0.0012 -2.0118 0.564, 0.0259 -2.0118 0.567, 0.0041 -2.0118 0.5561, 0.009 -2.0118 0.549, 0.0131 -2.0118 0.6631, 0.0131 -2.0118 0.6403, 0.018 -2.0118 0.6659, 0.0268 -2.0118 0.6493, 0.0354 -2.0118 0.6726, 0.0414 -2.0118 0.6547, 0.0591 -2.0118 0.6755, 0.0569 -2.0118 0.6565, 0.0736 -2.0118 0.6741, 0.0648 -2.0118 0.6556, 0.0833 -2.0118 0.6711, 0.0702 -2.0118 0.6537, 0.0911 -2.0118 0.6666, 0.0744 -2.0118 0.6511, 0.0973 -2.0118 0.6605, 0.0779 -2.0118 0.6473, 0.102 -2.0118 0.6529, 0.0807 -2.0118 0.6425, 0.1056 -2.0118 0.642, 0.0831 -2.0118 0.6342, 0.0591 -2.0079 0.6755, 0.0354 -2.0079 0.6726, 0.018 -2.0079 0.6659, 0.0131 -2.0079 0.6631, 0.0131 -2.0079 0.6403, 0.0268 -2.0079 0.6493, 0.0414 -2.0079 0.6547, 0.0569 -2.0079 0.6565, 0.0648 -2.0079 0.6556, 0.0702 -2.0079 0.6537, 0.0744 -2.0079 0.6511, 0.0779 -2.0079 0.6473, 0.0807 -2.0079 0.6425, 0.0831 -2.0079 0.6342, 0.0839 -2.0079 0.6238, 0.0443 -2.0079 0.6183, 0.0275 -2.0079 0.6142, 0.0172 -2.0079 0.6092, 0.0099 -2.0079 0.603, 0.0051 -2.0079 0.5964, 0.0018 -2.0079 0.5882, 0.0002 -2.0079 0.5782, 0.0001 -2.0079 0.5747, 0.0012 -2.0079 0.564, 0.0041 -2.0079 0.5561, 0.009 -2.0079 0.549, 0.0115 -2.0079 0.5463, 0.0424 -2.0079 0.5358, 0.0288 -2.0079 0.5374, 0.0284 -2.0079 0.5375, 0.0194 -2.0079 0.5408, 0.0552 -2.0079 0.5374, 0.0557 -2.0079 0.5375, 0.065 -2.0079 0.5411, 0.0695 -2.0079 0.544, 0.0772 -2.0079 0.5511, 0.0833 -2.0079 0.5596, 0.0839 -2.0079 0.5596, 0.0839 -2.0079 0.539, 0.1073 -2.0079 0.539, 0.1073 -2.0079 0.6249, 0.1056 -2.0079 0.642, 0.102 -2.0079 0.6529, 0.0973 -2.0079 0.6605, 0.0911 -2.0079 0.6666, 0.0833 -2.0079 0.6711, 0.0736 -2.0079 0.6741, 0.03 -2.0079 0.5935, 0.0328 -2.0079 0.5957, 0.0382 -2.0079 0.5983, 0.0527 -2.0079 0.6017, 0.0238 -2.0079 0.5766, 0.024 -2.0079 0.5803, 0.0252 -2.0079 0.5857, 0.0272 -2.0079 0.5901, 0.0306 -2.0079 0.5611, 0.0286 -2.0079 0.5631, 0.0259 -2.0079 0.567, 0.0244 -2.0079 0.5713, 0.0485 -2.0079 0.555, 0.0406 -2.0079 0.5559, 0.0353 -2.0079 0.5579, 0.0739 -2.0079 0.5659, 0.0709 -2.0079 0.5631, 0.0643 -2.0079 0.5586, 0.0572 -2.0079 0.556, 0.0839 -2.0079 0.5931, 0.0839 -2.0079 0.5916, 0.0824 -2.0079 0.5812, 0.0789 -2.0079 0.5728, 0.0839 -2.0079 0.6059, 0.0839 -2.0079 0.6059
            ]
        }
        coordIndex [
            0,1,2,-1,2,1,3,-1,4,0,5,-1,5,0,2,-1,6,4,7,-1,7,4,5,-1,8,6,9,-1,9,6,7,-1,10,8,11,-1,11,8,9,-1,12,10,13,-1,13,10,11,-1,14,12,15,-1,15,12,13,-1,16,14,17,-1,17,14,15,-1,18,16,19,-1,19,16,17,-1,20,18,21,-1,21,18,19,-1,22,20,23,-1,23,20,21,-1,1,22,3,-1,3,22,23,-1,22,1,0,-1,0,4,22,-1,22,4,6,-1,22,6,20,-1,16,18,14,-1,14,18,20,-1,14,20,12,-1,12,20,6,-1,12,6,10,-1,10,6,8,-1,24,25,26,-1,27,28,29,-1,29,28,30,-1,31,32,25,-1,25,32,28,-1,25,28,26,-1,26,28,27,-1,33,34,35,-1,26,36,24,-1,24,36,37,-1,24,37,38,-1,38,37,39,-1,38,39,40,-1,40,39,41,-1,40,41,42,-1,42,41,43,-1,42,43,44,-1,44,43,45,-1,44,45,46,-1,46,45,47,-1,46,47,48,-1,48,47,49,-1,48,49,50,-1,50,49,51,-1,50,51,52,-1,52,51,53,-1,35,34,54,-1,54,34,55,-1,54,55,56,-1,56,55,57,-1,56,57,58,-1,57,59,58,-1,58,59,60,-1,58,60,61,-1,61,60,62,-1,61,62,63,-1,35,64,33,-1,33,64,65,-1,33,65,66,-1,66,65,67,-1,66,67,68,-1,68,67,69,-1,68,69,70,-1,70,69,71,-1,70,71,53,-1,53,71,72,-1,53,72,52,-1,73,74,75,-1,75,74,76,-1,75,76,77,-1,77,76,78,-1,77,78,79,-1,79,78,80,-1,79,80,81,-1,81,80,82,-1,81,82,83,-1,83,82,84,-1,83,84,85,-1,85,84,86,-1,85,86,87,-1,87,86,88,-1,87,88,89,-1,89,88,90,-1,89,90,91,-1,91,90,92,-1,91,92,28,-1,28,92,63,-1,28,63,30,-1,30,63,62,-1,79,93,94,-1,79,94,77,-1,77,94,95,-1,77,95,75,-1,75,95,96,-1,75,96,73,-1,74,73,97,-1,97,73,96,-1,74,97,98,-1,74,98,76,-1,76,98,99,-1,76,99,78,-1,78,99,100,-1,78,100,80,-1,80,100,101,-1,80,101,82,-1,82,101,102,-1,82,102,84,-1,84,102,103,-1,84,103,86,-1,86,103,104,-1,86,104,88,-1,88,104,105,-1,88,105,90,-1,90,105,106,-1,90,106,92,-1,92,106,107,-1,92,107,63,-1,61,63,108,-1,108,63,107,-1,61,108,109,-1,61,109,58,-1,58,109,110,-1,58,110,56,-1,56,110,111,-1,56,111,54,-1,54,111,112,-1,54,112,35,-1,35,112,113,-1,35,113,64,-1,64,113,114,-1,64,114,65,-1,65,114,115,-1,65,115,67,-1,67,115,116,-1,67,116,69,-1,69,116,117,-1,69,117,71,-1,71,117,118,-1,71,118,72,-1,72,118,119,-1,72,119,52,-1,120,46,121,-1,121,46,48,-1,121,48,122,-1,122,48,50,-1,122,50,123,-1,123,50,52,-1,123,52,119,-1,120,124,46,-1,46,124,44,-1,124,125,44,-1,44,125,126,-1,44,126,42,-1,42,126,127,-1,42,127,40,-1,40,127,128,-1,40,128,38,-1,38,128,129,-1,38,129,24,-1,25,24,130,-1,130,24,129,-1,31,25,131,-1,131,25,130,-1,32,31,132,-1,132,31,131,-1,28,32,133,-1,133,32,132,-1,28,133,134,-1,28,134,91,-1,91,134,135,-1,91,135,89,-1,89,135,136,-1,89,136,87,-1,87,136,137,-1,87,137,85,-1,85,137,138,-1,85,138,83,-1,83,138,139,-1,83,139,81,-1,81,139,93,-1,81,93,79,-1,57,140,141,-1,57,141,59,-1,59,141,142,-1,59,142,60,-1,60,142,143,-1,60,143,62,-1,66,144,145,-1,66,145,33,-1,33,145,146,-1,33,146,34,-1,34,146,147,-1,34,147,55,-1,55,147,140,-1,55,140,57,-1,51,148,149,-1,51,149,53,-1,53,149,150,-1,53,150,70,-1,70,150,151,-1,70,151,68,-1,68,151,144,-1,68,144,66,-1,45,152,153,-1,45,153,47,-1,47,153,154,-1,47,154,49,-1,49,154,148,-1,49,148,51,-1,37,155,156,-1,37,156,39,-1,39,156,157,-1,39,157,41,-1,41,157,158,-1,41,158,43,-1,43,158,152,-1,43,152,45,-1,29,159,160,-1,29,160,27,-1,27,160,161,-1,27,161,26,-1,26,161,162,-1,26,162,36,-1,36,162,155,-1,36,155,37,-1,29,30,159,-1,159,30,163,-1,30,62,163,-1,163,62,143,-1,
        ]
    }
}
Shape{
    appearance Appearance {
        material  Material 	{
            diffuseColor 0.25098039215686274 0.25098039215686274 0.25098039215686274
            specularColor 0.12549019607843137 0.12549019607843137 0.12549019607843137
            ambientIntensity 0.2
            transparency 0
            shininess 0.5
        }
    }
    geometry IndexedFaceSet {
        ccw TRUE
        solid FALSE
        coord DEF co Coordinate {
            point [
                0.0839 -2.0079 0.5916, 0.0839 -2.0079 0.5931, 0.03 -2.0079 0.5935, 0.0839 -2.0079 0.6059, 0.0527 -2.0079 0.6017, 0.0382 -2.0079 0.5983, 0.0328 -2.0079 0.5957, 0.0824 -2.0079 0.5812, 0.0272 -2.0079 0.5901, 0.0789 -2.0079 0.5728, 0.0286 -2.0079 0.5631, 0.0306 -2.0079 0.5611, 0.0709 -2.0079 0.5631, 0.0259 -2.0079 0.567, 0.0643 -2.0079 0.5586, 0.0572 -2.0079 0.556, 0.0485 -2.0079 0.555, 0.0252 -2.0079 0.5857, 0.024 -2.0079 0.5803, 0.0739 -2.0079 0.5659, 0.0238 -2.0079 0.5766, 0.0244 -2.0079 0.5713, 0.0353 -2.0079 0.5579, 0.0406 -2.0079 0.5559, 0.0406 -2.0079 0.5559
            ]
        }
        coordIndex [
            0,1,2,-1,1,3,4,-1,4,5,1,-1,1,5,6,-1,1,6,2,-1,0,2,7,-1,7,2,8,-1,7,8,9,-1,10,11,12,-1,10,12,13,-1,14,12,15,-1,15,12,16,-1,8,17,9,-1,9,17,18,-1,9,18,19,-1,19,18,20,-1,19,20,12,-1,12,20,21,-1,12,21,13,-1,11,22,12,-1,12,22,23,-1,12,23,16,-1,
        ]
    }
}
Shape{
    appearance Appearance {
        material  Material 	{
            diffuseColor 1.0 1.0 1.0
            specularColor 0.5019607843137255 0.5019607843137255 0.5019607843137255
            ambientIntensity 0.2
            transparency 0
            shininess 0.5
        }
    }
    geometry IndexedFaceSet {
        ccw TRUE
        solid FALSE
        coord DEF co Coordinate {
            point [
                0.139 -2.0079 0.5678, 0.139 -2.0118 0.5678, 0.1484 -2.0118 0.562, 0.1775 -2.0118 0.5549, 0.1775 -2.0079 0.5549, 0.1631 -2.0079 0.5566, 0.1631 -2.0118 0.5566, 0.1498 -2.0079 0.5615, 0.1484 -2.0079 0.562, 0.139 -2.0118 0.5437, 0.139 -2.0079 0.5437, 0.1532 -2.0118 0.5384, 0.1498 -2.0079 0.5397, 0.1752 -2.0079 0.5358, 0.1752 -2.0118 0.5358, 0.1618 -2.0079 0.5374, 0.1532 -2.0079 0.5384, 0.1962 -2.0118 0.5383, 0.1886 -2.0079 0.5374, 0.1962 -2.0079 0.5383, 0.2085 -2.0079 0.543, 0.2085 -2.0118 0.543, 0.2141 -2.0079 0.5464, 0.2141 -2.0118 0.5464, 0.2208 -2.0079 0.5523, 0.2208 -2.0118 0.5523, 0.2251 -2.0079 0.5585, 0.2251 -2.0118 0.5585, 0.228 -2.0079 0.5659, 0.228 -2.0118 0.5659, 0.2291 -2.0079 0.5753, 0.2291 -2.0118 0.5753, 0.2282 -2.0079 0.584, 0.2282 -2.0118 0.584, 0.2257 -2.0079 0.5909, 0.2257 -2.0118 0.5909, 0.2213 -2.0079 0.5973, 0.2213 -2.0118 0.5973, 0.2157 -2.0079 0.6023, 0.2157 -2.0118 0.6023, 0.2002 -2.0079 0.611, 0.2002 -2.0118 0.611, 0.1911 -2.0079 0.6146, 0.1911 -2.0118 0.6146, 0.1766 -2.0079 0.6209, 0.1766 -2.0118 0.6209, 0.1684 -2.0079 0.6261, 0.1684 -2.0118 0.6261, 0.1661 -2.0079 0.6286, 0.1661 -2.0118 0.6286, 0.1644 -2.0079 0.6318, 0.1644 -2.0118 0.6318, 0.1635 -2.0079 0.6354, 0.1635 -2.0118 0.6354, 0.1633 -2.0079 0.6385, 0.1633 -2.0118 0.6385, 0.1637 -2.0079 0.6422, 0.1637 -2.0118 0.6422, 0.1648 -2.0079 0.6454, 0.1648 -2.0118 0.6454, 0.1669 -2.0079 0.6484, 0.1669 -2.0118 0.6484, 0.1704 -2.0079 0.6515, 0.1704 -2.0118 0.6515, 0.1756 -2.0079 0.6543, 0.1756 -2.0118 0.6543, 0.1819 -2.0079 0.656, 0.1819 -2.0118 0.656, 0.1888 -2.0079 0.6565, 0.1888 -2.0118 0.6565, 0.2038 -2.0079 0.6548, 0.2038 -2.0118 0.6548, 0.217 -2.0079 0.6501, 0.217 -2.0118 0.6501, 0.2227 -2.0079 0.6468, 0.2227 -2.0118 0.6468, 0.2227 -2.0118 0.6696, 0.2227 -2.0079 0.6696, 0.2075 -2.0079 0.674, 0.2075 -2.0118 0.674, 0.1911 -2.0079 0.6755, 0.1911 -2.0118 0.6755, 0.1748 -2.0079 0.6738, 0.1748 -2.0118 0.6738, 0.1618 -2.0079 0.6694, 0.1618 -2.0118 0.6694, 0.1541 -2.0079 0.6649, 0.1541 -2.0118 0.6649, 0.1472 -2.0118 0.6586, 0.1498 -2.0079 0.661, 0.1472 -2.0079 0.6586, 0.1429 -2.0079 0.6523, 0.1429 -2.0118 0.6523, 0.1401 -2.0079 0.6448, 0.1401 -2.0118 0.6448, 0.1391 -2.0079 0.6364, 0.1391 -2.0118 0.6364, 0.1402 -2.0079 0.6273, 0.1402 -2.0118 0.6273, 0.1427 -2.0079 0.6202, 0.1427 -2.0118 0.6202, 0.1458 -2.0079 0.6153, 0.1458 -2.0118 0.6153, 0.1746 -2.0079 0.5976, 0.1746 -2.0118 0.5976, 0.1606 -2.0118 0.604, 0.1496 -2.0079 0.6113, 0.1496 -2.0118 0.6113, 0.1498 -2.0079 0.6112, 0.1606 -2.0079 0.604, 0.1899 -2.0079 0.5912, 0.1899 -2.0118 0.5912, 0.1991 -2.0079 0.5857, 0.1991 -2.0118 0.5857, 0.202 -2.0079 0.5827, 0.202 -2.0118 0.5827, 0.2038 -2.0079 0.5796, 0.2038 -2.0118 0.5796, 0.2049 -2.0079 0.5759, 0.2049 -2.0118 0.5759, 0.2051 -2.0079 0.573, 0.2051 -2.0118 0.573, 0.2046 -2.0079 0.5685, 0.2046 -2.0118 0.5685, 0.2034 -2.0079 0.5652, 0.2034 -2.0118 0.5652, 0.2014 -2.0079 0.5622, 0.2014 -2.0118 0.5622, 0.1987 -2.0079 0.5598, 0.1987 -2.0118 0.5598, 0.1966 -2.0079 0.5585, 0.1966 -2.0118 0.5585, 0.1905 -2.0079 0.5563, 0.1905 -2.0118 0.5563, 0.1785 -2.0079 0.5549, 0.1785 -2.0118 0.5549, 0.3451 -2.0118 0.6724, 0.3694 -2.0118 0.6724, 0.3451 -2.0079 0.6724, 0.3694 -2.0079 0.6724, 0.3087 -2.0118 0.5719, 0.3087 -2.0079 0.5719, 0.3069 -2.0079 0.5657, 0.3069 -2.0118 0.5657, 0.3058 -2.0079 0.5611, 0.3058 -2.0118 0.5611, 0.3052 -2.0118 0.5611, 0.3052 -2.0079 0.5611, 0.3023 -2.0118 0.5721, 0.3023 -2.0079 0.5721, 0.2675 -2.0079 0.6724, 0.2675 -2.0118 0.6724, 0.2788 -2.0079 0.6399, 0.2413 -2.0118 0.6724, 0.2413 -2.0079 0.6724, 0.2936 -2.0079 0.5393, 0.2936 -2.0118 0.5393, 0.2788 -2.0079 0.5771, 0.2834 -2.0079 0.515, 0.2834 -2.0118 0.515, 0.2929 -2.0079 0.5374, 0.2788 -2.0079 0.5066, 0.2787 -2.0118 0.5065, 0.2787 -2.0079 0.5065, 0.2744 -2.0079 0.5017, 0.2744 -2.0118 0.5017, 0.2704 -2.0079 0.4989, 0.2704 -2.0118 0.4989, 0.2653 -2.0079 0.4969, 0.2653 -2.0118 0.4969, 0.2594 -2.0079 0.4962, 0.2594 -2.0118 0.4962, 0.2509 -2.0079 0.4973, 0.2509 -2.0118 0.4973, 0.2461 -2.0079 0.4989, 0.2461 -2.0118 0.4989, 0.2461 -2.0118 0.4781, 0.2461 -2.0079 0.4781, 0.2561 -2.0079 0.4763, 0.2561 -2.0118 0.4763, 0.2612 -2.0079 0.4761, 0.2612 -2.0118 0.4761, 0.2707 -2.0079 0.4772, 0.2707 -2.0118 0.4772, 0.2788 -2.0079 0.4803, 0.2799 -2.0118 0.4807, 0.2799 -2.0079 0.4807, 0.2881 -2.0079 0.4865, 0.2881 -2.0118 0.4865, 0.2897 -2.0079 0.4879, 0.2897 -2.0118 0.4879, 0.2982 -2.0079 0.4982, 0.2982 -2.0118 0.4982, 0.3088 -2.0079 0.5188, 0.3088 -2.0118 0.5188, 0.3162 -2.0079 0.5374, 0.4951 -2.0118 0.5603, 0.4951 -2.0118 0.539, 0.4951 -2.0079 0.5603, 0.4951 -2.0079 0.539, 0.4187 -2.0079 0.5603, 0.4187 -2.0118 0.5603, 0.4537 -2.0079 0.5603, 0.4187 -2.0118 0.6231, 0.4187 -2.0079 0.6231, 0.4855 -2.0079 0.6231, 0.4855 -2.0118 0.6231, 0.4537 -2.0079 0.6231, 0.4855 -2.0118 0.6445, 0.4855 -2.0079 0.6445, 0.4187 -2.0079 0.6445, 0.4187 -2.0118 0.6445, 0.4537 -2.0079 0.6445, 0.4187 -2.0118 0.7043, 0.4187 -2.0079 0.7043, 0.4908 -2.0079 0.7043, 0.4908 -2.0118 0.7043, 0.4537 -2.0079 0.7043, 0.4908 -2.0118 0.7258, 0.4908 -2.0079 0.7258, 0.3946 -2.0079 0.7258, 0.3946 -2.0118 0.7258, 0.4537 -2.0079 0.7258, 0.3946 -2.0118 0.539, 0.3946 -2.0079 0.539, 0.4537 -2.0079 0.539, 0.6543 -2.0118 0.5652, 0.635 -2.0118 0.5777, 0.6348 -2.0118 0.5512, 0.6229 -2.0118 0.5694, 0.6135 -2.0118 0.5428, 0.6075 -2.0118 0.5634, 0.5818 -2.0118 0.539, 0.5816 -2.0118 0.5603, 0.5304 -2.0118 0.539, 0.5545 -2.0118 0.5603, 0.5304 -2.0118 0.7258, 0.5545 -2.0118 0.7043, 0.5837 -2.0118 0.7258, 0.5827 -2.0118 0.7043, 0.5846 -2.0118 0.7043, 0.6122 -2.0118 0.7227, 0.6085 -2.0118 0.7012, 0.6348 -2.0118 0.7144, 0.6244 -2.0118 0.6951, 0.6543 -2.0118 0.7011, 0.6366 -2.0118 0.6868, 0.6609 -2.0118 0.6946, 0.6419 -2.0118 0.6816, 0.6725 -2.0118 0.6783, 0.6491 -2.0118 0.6711, 0.6794 -2.0118 0.6605, 0.6544 -2.0118 0.6575, 0.6825 -2.0118 0.6348, 0.6571 -2.0118 0.6341, 0.6819 -2.0118 0.6229, 0.6564 -2.0118 0.6213, 0.6774 -2.0118 0.601, 0.6526 -2.0118 0.6044, 0.6682 -2.0118 0.5817, 0.6461 -2.0118 0.5907, 0.6372 -2.0118 0.5798, 0.5818 -2.0079 0.539, 0.5304 -2.0079 0.539, 0.6135 -2.0079 0.5428, 0.6348 -2.0079 0.5512, 0.6543 -2.0079 0.5652, 0.6682 -2.0079 0.5817, 0.6774 -2.0079 0.601, 0.6819 -2.0079 0.6229, 0.6825 -2.0079 0.6348, 0.6794 -2.0079 0.6605, 0.6725 -2.0079 0.6783, 0.6609 -2.0079 0.6946, 0.6543 -2.0079 0.7011, 0.6348 -2.0079 0.7144, 0.6122 -2.0079 0.7227, 0.5837 -2.0079 0.7258, 0.5304 -2.0079 0.7258, 0.5827 -2.0079 0.7043, 0.5545 -2.0079 0.7043, 0.5545 -2.0079 0.5603, 0.5816 -2.0079 0.5603, 0.6372 -2.0079 0.5798, 0.635 -2.0079 0.5777, 0.6229 -2.0079 0.5694, 0.6075 -2.0079 0.5634, 0.6571 -2.0079 0.6341, 0.6564 -2.0079 0.6213, 0.6526 -2.0079 0.6044, 0.6461 -2.0079 0.5907, 0.6366 -2.0079 0.6868, 0.6419 -2.0079 0.6816, 0.6491 -2.0079 0.6711, 0.6544 -2.0079 0.6575, 0.5846 -2.0079 0.7043, 0.6085 -2.0079 0.7012, 0.6244 -2.0079 0.6951, 0.6244 -2.0079 0.6951
            ]
        }
        coordIndex [
            0,1,2,-1,3,4,5,-1,3,5,6,-1,6,5,7,-1,6,7,2,-1,2,7,8,-1,2,8,0,-1,9,1,10,-1,10,1,0,-1,9,10,11,-1,11,10,12,-1,13,14,15,-1,15,14,11,-1,15,11,16,-1,16,11,12,-1,14,13,17,-1,17,13,18,-1,18,19,17,-1,17,19,20,-1,17,20,21,-1,21,20,22,-1,21,22,23,-1,23,22,24,-1,23,24,25,-1,25,24,26,-1,25,26,27,-1,27,26,28,-1,27,28,29,-1,29,28,30,-1,29,30,31,-1,31,30,32,-1,31,32,33,-1,33,32,34,-1,33,34,35,-1,35,34,36,-1,35,36,37,-1,37,36,38,-1,37,38,39,-1,39,38,40,-1,39,40,41,-1,41,40,42,-1,41,42,43,-1,43,42,44,-1,43,44,45,-1,45,44,46,-1,45,46,47,-1,47,46,48,-1,47,48,49,-1,49,48,50,-1,49,50,51,-1,51,50,52,-1,51,52,53,-1,53,52,54,-1,53,54,55,-1,55,54,56,-1,55,56,57,-1,57,56,58,-1,57,58,59,-1,59,58,60,-1,59,60,61,-1,61,60,62,-1,61,62,63,-1,63,62,64,-1,63,64,65,-1,65,64,66,-1,65,66,67,-1,67,66,68,-1,67,68,69,-1,69,68,70,-1,69,70,71,-1,71,70,72,-1,71,72,73,-1,73,72,74,-1,73,74,75,-1,76,75,77,-1,77,75,74,-1,76,77,78,-1,76,78,79,-1,79,78,80,-1,79,80,81,-1,81,80,82,-1,81,82,83,-1,83,82,84,-1,83,84,85,-1,85,84,86,-1,85,86,87,-1,87,86,88,-1,88,86,89,-1,89,90,88,-1,88,90,91,-1,88,91,92,-1,92,91,93,-1,92,93,94,-1,94,93,95,-1,94,95,96,-1,96,95,97,-1,96,97,98,-1,98,97,99,-1,98,99,100,-1,100,99,101,-1,100,101,102,-1,103,104,105,-1,102,101,106,-1,102,106,107,-1,107,106,108,-1,107,108,105,-1,105,108,109,-1,105,109,103,-1,104,103,110,-1,104,110,111,-1,111,110,112,-1,111,112,113,-1,113,112,114,-1,113,114,115,-1,115,114,116,-1,115,116,117,-1,117,116,118,-1,117,118,119,-1,119,118,120,-1,119,120,121,-1,121,120,122,-1,121,122,123,-1,123,122,124,-1,123,124,125,-1,125,124,126,-1,125,126,127,-1,127,126,128,-1,127,128,129,-1,129,128,130,-1,129,130,131,-1,131,130,132,-1,131,132,133,-1,133,132,134,-1,133,134,135,-1,135,134,4,-1,135,4,3,-1,61,63,85,-1,85,63,83,-1,111,43,104,-1,104,43,45,-1,21,23,127,-1,127,23,25,-1,127,25,125,-1,125,25,27,-1,125,27,123,-1,123,27,29,-1,123,29,121,-1,121,29,31,-1,121,31,119,-1,119,31,33,-1,119,33,117,-1,117,33,35,-1,117,35,115,-1,115,35,37,-1,115,37,113,-1,113,37,39,-1,113,39,111,-1,111,39,41,-1,111,41,43,-1,14,3,11,-1,11,3,6,-1,11,6,9,-1,9,6,2,-1,9,2,1,-1,63,65,83,-1,83,65,67,-1,83,67,81,-1,81,67,69,-1,81,69,79,-1,79,69,71,-1,79,71,76,-1,76,71,73,-1,76,73,75,-1,127,129,21,-1,21,129,131,-1,21,131,17,-1,17,131,133,-1,17,133,14,-1,14,133,135,-1,14,135,3,-1,85,87,61,-1,61,87,88,-1,61,88,59,-1,59,88,92,-1,59,92,57,-1,57,92,94,-1,57,94,55,-1,55,94,96,-1,55,96,53,-1,53,96,98,-1,53,98,51,-1,51,98,100,-1,51,100,49,-1,49,100,102,-1,49,102,47,-1,47,102,107,-1,47,107,45,-1,45,107,105,-1,45,105,104,-1,136,137,138,-1,138,137,139,-1,140,136,141,-1,141,136,138,-1,140,141,142,-1,140,142,143,-1,143,142,144,-1,143,144,145,-1,146,145,147,-1,147,145,144,-1,148,146,149,-1,149,146,147,-1,150,151,152,-1,152,151,148,-1,152,148,149,-1,153,151,154,-1,154,151,150,-1,155,156,157,-1,157,156,153,-1,157,153,154,-1,158,159,160,-1,160,159,156,-1,160,156,155,-1,158,161,159,-1,159,161,162,-1,161,163,162,-1,162,163,164,-1,162,164,165,-1,165,164,166,-1,165,166,167,-1,167,166,168,-1,167,168,169,-1,169,168,170,-1,169,170,171,-1,171,170,172,-1,171,172,173,-1,173,172,174,-1,173,174,175,-1,176,175,177,-1,177,175,174,-1,176,177,178,-1,176,178,179,-1,179,178,180,-1,179,180,181,-1,181,180,182,-1,181,182,183,-1,183,182,184,-1,183,184,185,-1,184,186,185,-1,185,186,187,-1,185,187,188,-1,188,187,189,-1,188,189,190,-1,190,189,191,-1,190,191,192,-1,192,191,193,-1,192,193,194,-1,139,137,195,-1,195,137,194,-1,195,194,193,-1,143,145,194,-1,137,136,194,-1,194,136,140,-1,194,140,143,-1,151,153,148,-1,148,153,156,-1,148,156,146,-1,175,176,173,-1,173,176,179,-1,173,179,171,-1,171,179,181,-1,171,181,169,-1,169,181,183,-1,169,183,167,-1,167,183,185,-1,167,185,165,-1,145,146,194,-1,194,146,156,-1,194,156,192,-1,156,159,192,-1,192,159,162,-1,192,162,190,-1,190,162,165,-1,190,165,188,-1,188,165,185,-1,196,197,198,-1,198,197,199,-1,200,201,202,-1,202,201,196,-1,202,196,198,-1,203,201,204,-1,204,201,200,-1,205,206,207,-1,207,206,203,-1,207,203,204,-1,208,206,209,-1,209,206,205,-1,210,211,212,-1,212,211,208,-1,212,208,209,-1,213,211,214,-1,214,211,210,-1,215,216,217,-1,217,216,213,-1,217,213,214,-1,218,216,219,-1,219,216,215,-1,220,221,222,-1,222,221,218,-1,222,218,219,-1,223,221,224,-1,224,221,220,-1,199,197,225,-1,225,197,223,-1,225,223,224,-1,223,197,196,-1,196,201,223,-1,223,201,203,-1,223,203,221,-1,216,218,213,-1,213,218,221,-1,213,221,211,-1,211,221,203,-1,211,203,208,-1,208,203,206,-1,226,227,228,-1,228,227,229,-1,228,229,230,-1,230,229,231,-1,230,231,232,-1,232,231,233,-1,232,233,234,-1,234,233,235,-1,234,235,236,-1,236,235,237,-1,236,237,238,-1,237,239,238,-1,238,239,240,-1,238,240,241,-1,241,240,242,-1,241,242,243,-1,243,242,244,-1,243,244,245,-1,245,244,246,-1,245,246,247,-1,247,246,248,-1,247,248,249,-1,249,248,250,-1,249,250,251,-1,251,250,252,-1,251,252,253,-1,253,252,254,-1,253,254,255,-1,255,254,256,-1,255,256,257,-1,257,256,258,-1,257,258,259,-1,259,258,260,-1,259,260,226,-1,226,260,261,-1,226,261,227,-1,232,234,262,-1,262,234,263,-1,232,262,264,-1,232,264,230,-1,230,264,265,-1,230,265,228,-1,228,265,266,-1,228,266,226,-1,226,266,267,-1,226,267,259,-1,259,267,268,-1,259,268,257,-1,257,268,269,-1,257,269,255,-1,255,269,270,-1,255,270,253,-1,253,270,271,-1,253,271,251,-1,251,271,272,-1,251,272,249,-1,249,272,273,-1,249,273,247,-1,247,273,274,-1,247,274,245,-1,245,274,275,-1,245,275,243,-1,243,275,276,-1,243,276,241,-1,241,276,277,-1,241,277,238,-1,236,238,278,-1,278,238,277,-1,234,236,263,-1,263,236,278,-1,239,237,279,-1,279,237,280,-1,237,235,280,-1,280,235,281,-1,235,233,281,-1,281,233,282,-1,261,283,284,-1,261,284,227,-1,227,284,285,-1,227,285,229,-1,229,285,286,-1,229,286,231,-1,231,286,282,-1,231,282,233,-1,254,287,288,-1,254,288,256,-1,256,288,289,-1,256,289,258,-1,258,289,290,-1,258,290,260,-1,260,290,283,-1,260,283,261,-1,246,291,292,-1,246,292,248,-1,248,292,293,-1,248,293,250,-1,250,293,294,-1,250,294,252,-1,252,294,287,-1,252,287,254,-1,239,279,295,-1,239,295,240,-1,240,295,296,-1,240,296,242,-1,242,296,297,-1,242,297,244,-1,244,297,291,-1,244,291,246,-1,
        ]
    }
}
Shape{
    appearance Appearance {
        material  Material 	{
            diffuseColor 0.25098039215686274 0.25098039215686274 0.25098039215686274
            specularColor 0.12549019607843137 0.12549019607843137 0.12549019607843137
            ambientIntensity 0.2
            transparency 0
            shininess 0.5
        }
    }
    geometry IndexedFaceSet {
        ccw TRUE
        solid FALSE
        coord DEF co Coordinate {
            point [
                0.6229 -2.0079 0.5694, 0.635 -2.0079 0.5777, 0.5846 -2.0079 0.7043, 0.5545 -2.0079 0.7043, 0.5545 -2.0079 0.5603, 0.5827 -2.0079 0.7043, 0.5816 -2.0079 0.5603, 0.6075 -2.0079 0.5634, 0.6372 -2.0079 0.5798, 0.6461 -2.0079 0.5907, 0.6526 -2.0079 0.6044, 0.6571 -2.0079 0.6341, 0.6366 -2.0079 0.6868, 0.6244 -2.0079 0.6951, 0.6544 -2.0079 0.6575, 0.6491 -2.0079 0.6711, 0.6419 -2.0079 0.6816, 0.6564 -2.0079 0.6213, 0.6085 -2.0079 0.7012, 0.6085 -2.0079 0.7012
            ]
        }
        coordIndex [
            0,1,2,-1,3,4,5,-1,5,4,6,-1,5,6,2,-1,2,6,7,-1,2,7,0,-1,1,8,2,-1,2,8,9,-1,2,9,10,-1,11,12,13,-1,14,15,11,-1,11,15,16,-1,11,16,12,-1,10,17,2,-1,2,17,11,-1,2,11,18,-1,18,11,13,-1,
        ]
    }
}
Shape{
    appearance Appearance {
        material  Material 	{
            diffuseColor 1.0 1.0 1.0
            specularColor 0.5019607843137255 0.5019607843137255 0.5019607843137255
            ambientIntensity 0.2
            transparency 0
            shininess 0.5
        }
    }
    geometry IndexedFaceSet {
        ccw TRUE
        solid FALSE
        coord DEF co Coordinate {
            point [
                0.7451 -2.0118 0.6112, 0.7375 -2.0118 0.5901, 0.8078 -2.0118 0.6112, 0.8153 -2.0118 0.5901, 0.773 -2.0118 0.6889, 0.764 -2.0118 0.7258, 0.6929 -2.0118 0.539, 0.7195 -2.0118 0.539, 0.7747 -2.0118 0.6944, 0.7761 -2.0118 0.7019, 0.7898 -2.0118 0.7258, 0.7767 -2.0118 0.7019, 0.7782 -2.0118 0.694, 0.7796 -2.0118 0.6889, 0.861 -2.0118 0.539, 0.8343 -2.0118 0.539, 0.7898 -2.0079 0.7258, 0.861 -2.0079 0.539, 0.764 -2.0079 0.7258, 0.6929 -2.0079 0.539, 0.7195 -2.0079 0.539, 0.7375 -2.0079 0.5901, 0.8153 -2.0079 0.5901, 0.8343 -2.0079 0.539, 0.7451 -2.0079 0.6112, 0.8078 -2.0079 0.6112, 0.7796 -2.0079 0.6889, 0.7767 -2.0079 0.7019, 0.7782 -2.0079 0.694, 0.7761 -2.0079 0.7019, 0.773 -2.0079 0.6889, 0.7747 -2.0079 0.6944, 0.7747 -2.0079 0.6944
            ]
        }
        coordIndex [
            0,1,2,-1,2,1,3,-1,4,5,0,-1,0,5,6,-1,0,6,1,-1,1,6,7,-1,4,8,5,-1,5,8,9,-1,5,9,10,-1,10,9,11,-1,10,11,12,-1,12,13,10,-1,10,13,2,-1,10,2,14,-1,14,2,3,-1,14,3,15,-1,10,14,16,-1,16,14,17,-1,5,10,18,-1,18,10,16,-1,6,5,19,-1,19,5,18,-1,7,6,20,-1,20,6,19,-1,1,7,21,-1,21,7,20,-1,3,1,22,-1,22,1,21,-1,15,3,23,-1,23,3,22,-1,14,15,17,-1,17,15,23,-1,0,2,24,-1,24,2,25,-1,2,13,25,-1,25,13,26,-1,11,27,28,-1,11,28,12,-1,12,28,26,-1,12,26,13,-1,11,9,27,-1,27,9,29,-1,4,30,31,-1,4,31,8,-1,8,31,29,-1,8,29,9,-1,4,0,30,-1,30,0,24,-1,
        ]
    }
}
Shape{
    appearance Appearance {
        material  Material 	{
            diffuseColor 0.25098039215686274 0.25098039215686274 0.25098039215686274
            specularColor 0.12549019607843137 0.12549019607843137 0.12549019607843137
            ambientIntensity 0.2
            transparency 0
            shininess 0.5
        }
    }
    geometry IndexedFaceSet {
        ccw TRUE
        solid FALSE
        coord DEF co Coordinate {
            point [
                0.7767 -2.0079 0.7019, 0.7761 -2.0079 0.7019, 0.7782 -2.0079 0.694, 0.7747 -2.0079 0.6944, 0.7796 -2.0079 0.6889, 0.773 -2.0079 0.6889, 0.8078 -2.0079 0.6112, 0.7451 -2.0079 0.6112, 0.7451 -2.0079 0.6112
            ]
        }
        coordIndex [
            0,1,2,-1,2,1,3,-1,2,3,4,-1,4,3,5,-1,4,5,6,-1,6,5,7,-1,
        ]
    }
}
Shape{
    appearance Appearance {
        material  Material 	{
            diffuseColor 1.0 1.0 1.0
            specularColor 0.5019607843137255 0.5019607843137255 0.5019607843137255
            ambientIntensity 0.2
            transparency 0
            shininess 0.5
        }
    }
    geometry IndexedFaceSet {
        ccw TRUE
        solid FALSE
        coord DEF co Coordinate {
            point [
                -0.983 -2.0118 0.8608, -0.9534 -2.0118 0.8766, -0.9604 -2.0118 0.9583, -0.7264 -2.0118 0.5073, -0.7107 -2.0118 0.5369, -0.7029 -2.0118 0.5697, -0.8775 -2.0118 0.9621, -0.8364 -2.0118 0.8651, -0.8161 -2.0118 0.9071, -0.8852 -2.0118 0.5647, -0.8879 -2.0118 0.577, -0.9599 -2.0118 0.63, -0.9612 -2.0118 0.541, -0.978 -2.0118 0.546, -0.9888 -2.0118 0.6478, -0.9081 -2.0118 0.9647, -0.5162 -2.0118 0.6951, -0.5574 -2.0118 0.7655, -0.7022 -2.0118 0.5968, -0.7354 -2.0118 0.6725, -0.7022 -2.0118 0.5835, -0.7733 -2.0118 0.466, -0.7468 -2.0118 0.4844, -0.7887 -2.0118 0.6026, -0.7852 -2.0118 0.5905, -0.7848 -2.0118 0.5776, -0.7876 -2.0118 0.5648, -0.7935 -2.0118 0.5532, -0.8796 -2.0118 0.5537, -0.9282 -2.0118 0.4881, -0.9479 -2.0118 0.5125, -0.4724 -2.0118 0.8266, -0.4618 -2.0118 0.8266, -0.4073 -2.0118 0.8983, -0.4365 -2.0118 0.8235, -0.4008 -2.0118 0.8961, -0.4133 -2.0118 0.8145, -0.3612 -2.0118 0.8765, -0.3252 -2.0118 0.846, -0.8503 -2.0118 0.9938, -0.7863 -2.0118 0.9427, -0.8191 -2.0118 1.0205, -0.7507 -2.0118 0.9688, -0.7812 -2.0118 1.0434, -0.9206 -2.0118 0.8843, -0.9068 -2.0118 0.885, -0.8928 -2.0118 0.9639, -0.8757 -2.0118 0.8812, -0.8459 -2.0118 0.8703, -0.8019 -2.0118 0.5435, -0.8121 -2.0118 0.5364, -0.8029 -2.0118 0.4546, -0.8237 -2.0118 0.5319, -0.835 -2.0118 0.4507, -0.8364 -2.0118 0.5304, -0.8402 -2.0118 0.4508, -0.8386 -2.0118 0.5304, -0.8715 -2.0118 0.4557, -0.8506 -2.0118 0.5324, -0.9022 -2.0118 0.4685, -0.8626 -2.0118 0.5375, -0.8727 -2.0118 0.5453, -0.325 -2.0118 0.5981, -0.3869 -2.0118 0.6508, -0.3611 -2.0118 0.5675, -0.4065 -2.0118 0.6348, -0.4016 -2.0118 0.5477, -0.43 -2.0118 0.6239, -0.4458 -2.0118 0.5383, -0.4538 -2.0118 0.6194, -0.5242 -2.0118 0.5383, -0.5136 -2.0118 0.6194, -0.5317 -2.0118 0.5395, -0.3927 -2.0118 0.8002, -0.3774 -2.0118 0.783, -0.2981 -2.0118 0.8082, -0.3651 -2.0118 0.7601, -0.2819 -2.0118 0.7676, -0.3588 -2.0118 0.7346, -0.2758 -2.0118 0.7243, -0.3582 -2.0118 0.723, -0.2819 -2.0118 0.6769, -0.3614 -2.0118 0.6971, -0.2986 -2.0118 0.6348, -0.3705 -2.0118 0.6734, -0.3851 -2.0118 0.6527, -0.479 -2.0118 1.0033, -0.531 -2.0118 0.9422, -0.433 -2.0118 0.9493, -0.501 -2.0118 0.9064, -0.4805 -2.0118 0.8636, -1.0356 -2.0118 0.7844, -1.1229 -2.0118 0.7623, -1.0396 -2.0118 0.7522, -1.1233 -2.0118 0.7495, -1.038 -2.0118 0.7318, -1.1169 -2.0118 0.6976, -1.0285 -2.0118 0.6992, -1.0979 -2.0118 0.6481, -1.0127 -2.0118 0.6723, -1.0675 -2.0118 0.6048, -1.026 -2.0118 0.5694, -0.8876 -2.0118 0.59, -0.884 -2.0118 0.6026, -0.9452 -2.0118 0.6586, -0.8774 -2.0118 0.6138, -0.9233 -2.0118 0.6837, -0.871 -2.0118 0.6206, -0.8961 -2.0118 0.7025, -0.8606 -2.0118 0.6279, -0.8668 -2.0118 0.7138, -0.849 -2.0118 0.6324, -0.835 -2.0118 0.7177, -0.8364 -2.0118 0.634, -0.8189 -2.0118 0.7167, -0.8274 -2.0118 0.6332, -0.7868 -2.0118 0.7087, -0.8148 -2.0118 0.6293, -0.7586 -2.0118 0.6936, -0.8038 -2.0118 0.6225, -0.7949 -2.0118 0.6133, -0.7196 -2.0118 1.0656, -0.7073 -2.0118 0.9863, -0.6597 -2.0118 1.0723, -0.6584 -2.0118 0.9926, -0.5967 -2.0118 1.0647, -0.6133 -2.0118 0.9871, -0.5308 -2.0118 1.0392, -0.5717 -2.0118 0.9711, -0.5344 -2.0118 0.9452, -1.0096 -2.0118 0.9392, -1.0519 -2.0118 0.9095, -1.0059 -2.0118 0.8404, -1.0609 -2.0118 0.901, -1.0243 -2.0118 0.814, -1.0928 -2.0118 0.8601, -1.114 -2.0118 0.8122, -0.5203 -2.0118 0.6206, -0.5522 -2.0118 0.5523, -0.5491 -2.0118 0.5491, -0.5163 -2.0118 0.6197, -0.5405 -2.0118 0.543, -0.5627 -2.0118 0.5795, -0.5615 -2.0118 0.5696, -0.558 -2.0118 0.5606, -0.5318 -2.0118 0.6194, -0.541 -2.0118 0.6158, -0.5624 -2.0118 0.5848, -0.5491 -2.0118 0.61, -0.5546 -2.0118 0.6039, -0.5597 -2.0118 0.5949, -0.5216 -2.0118 0.6207, -0.2758 -2.0079 0.7243, -0.2819 -2.0079 0.7676, -0.3165 -2.0079 0.8338, -0.2864 -2.0079 0.779, -0.2981 -2.0079 0.8082, -0.3252 -2.0079 0.846, -0.3612 -2.0079 0.8765, -0.4008 -2.0079 0.8961, -0.4073 -2.0079 0.8983, -0.433 -2.0079 0.9493, -0.479 -2.0079 1.0033, -0.5086 -2.0079 1.0238, -0.5308 -2.0079 1.0392, -0.5967 -2.0079 1.0647, -0.6597 -2.0079 1.0723, -0.7196 -2.0079 1.0656, -0.7812 -2.0079 1.0434, -0.8137 -2.0079 1.0238, -0.8191 -2.0079 1.0205, -0.8503 -2.0079 0.9938, -0.8775 -2.0079 0.9621, -0.8928 -2.0079 0.9639, -0.9081 -2.0079 0.9647, -0.9604 -2.0079 0.9583, -1.0096 -2.0079 0.9392, -1.0519 -2.0079 0.9095, -1.0609 -2.0079 0.901, -1.1233 -2.0079 0.7495, -1.0928 -2.0079 0.8601, -1.1044 -2.0079 0.8338, -1.114 -2.0079 0.8122, -1.1199 -2.0079 0.779, -1.1229 -2.0079 0.7623, -1.1169 -2.0079 0.6976, -1.0979 -2.0079 0.6481, -1.0675 -2.0079 0.6048, -1.026 -2.0079 0.5694, -0.978 -2.0079 0.546, -0.9612 -2.0079 0.541, -0.9596 -2.0079 0.5374, -0.9479 -2.0079 0.5125, -0.9282 -2.0079 0.4881, -0.9022 -2.0079 0.4685, -0.89 -2.0079 0.4634, -0.8715 -2.0079 0.4557, -0.8402 -2.0079 0.4508, -0.835 -2.0079 0.4507, -0.7022 -2.0079 0.5835, -0.8029 -2.0079 0.4546, -0.78 -2.0079 0.4634, -0.7733 -2.0079 0.466, -0.7468 -2.0079 0.4844, -0.7264 -2.0079 0.5073, -0.7107 -2.0079 0.5369, -0.7106 -2.0079 0.5374, -0.7029 -2.0079 0.5697, -0.7022 -2.0079 0.5968, -0.5162 -2.0079 0.6951, -0.5574 -2.0079 0.7655, -0.7354 -2.0079 0.6725, -0.7586 -2.0079 0.6936, -0.7868 -2.0079 0.7087, -0.8189 -2.0079 0.7167, -0.835 -2.0079 0.7177, -0.8668 -2.0079 0.7138, -0.8961 -2.0079 0.7025, -0.9233 -2.0079 0.6837, -0.9452 -2.0079 0.6586, -0.9599 -2.0079 0.63, -0.9888 -2.0079 0.6478, -1.0127 -2.0079 0.6723, -1.0285 -2.0079 0.6992, -1.038 -2.0079 0.7318, -1.0396 -2.0079 0.7522, -1.0363 -2.0079 0.779, -1.0356 -2.0079 0.7844, -1.0243 -2.0079 0.814, -1.0105 -2.0079 0.8338, -1.0059 -2.0079 0.8404, -0.983 -2.0079 0.8608, -0.9534 -2.0079 0.8766, -0.9206 -2.0079 0.8843, -0.9068 -2.0079 0.885, -0.8757 -2.0079 0.8812, -0.8459 -2.0079 0.8703, -0.8364 -2.0079 0.8651, -0.8161 -2.0079 0.9071, -0.7863 -2.0079 0.9427, -0.7507 -2.0079 0.9688, -0.7073 -2.0079 0.9863, -0.6584 -2.0079 0.9926, -0.6133 -2.0079 0.9871, -0.5717 -2.0079 0.9711, -0.5344 -2.0079 0.9452, -0.531 -2.0079 0.9422, -0.501 -2.0079 0.9064, -0.4805 -2.0079 0.8636, -0.474 -2.0079 0.8338, -0.4724 -2.0079 0.8266, -0.4618 -2.0079 0.8266, -0.4365 -2.0079 0.8235, -0.4133 -2.0079 0.8145, -0.3927 -2.0079 0.8002, -0.3774 -2.0079 0.783, -0.3752 -2.0079 0.779, -0.3651 -2.0079 0.7601, -0.3588 -2.0079 0.7346, -0.3582 -2.0079 0.723, -0.3614 -2.0079 0.6971, -0.3705 -2.0079 0.6734, -0.3851 -2.0079 0.6527, -0.3869 -2.0079 0.6508, -0.4065 -2.0079 0.6348, -0.43 -2.0079 0.6239, -0.4538 -2.0079 0.6194, -0.5136 -2.0079 0.6194, -0.5163 -2.0079 0.6197, -0.5203 -2.0079 0.6206, -0.5216 -2.0079 0.6207, -0.5318 -2.0079 0.6194, -0.541 -2.0079 0.6158, -0.5491 -2.0079 0.61, -0.5546 -2.0079 0.6039, -0.5597 -2.0079 0.5949, -0.5624 -2.0079 0.5848, -0.5627 -2.0079 0.5795, -0.5615 -2.0079 0.5696, -0.558 -2.0079 0.5606, -0.5522 -2.0079 0.5523, -0.5491 -2.0079 0.5491, -0.5405 -2.0079 0.543, -0.5317 -2.0079 0.5395, -0.5242 -2.0079 0.5383, -0.4458 -2.0079 0.5383, -0.4016 -2.0079 0.5477, -0.3611 -2.0079 0.5675, -0.325 -2.0079 0.5981, -0.2986 -2.0079 0.6348, -0.2819 -2.0079 0.6769, -0.8364 -2.0079 0.634, -0.8274 -2.0079 0.6332, -0.8148 -2.0079 0.6293, -0.8038 -2.0079 0.6225, -0.7949 -2.0079 0.6133, -0.7887 -2.0079 0.6026, -0.7852 -2.0079 0.5905, -0.7848 -2.0079 0.5776, -0.7876 -2.0079 0.5648, -0.7935 -2.0079 0.5532, -0.8019 -2.0079 0.5435, -0.8121 -2.0079 0.5364, -0.8237 -2.0079 0.5319, -0.8364 -2.0079 0.5304, -0.8386 -2.0079 0.5304, -0.8506 -2.0079 0.5324, -0.8626 -2.0079 0.5375, -0.8727 -2.0079 0.5453, -0.8796 -2.0079 0.5537, -0.8852 -2.0079 0.5647, -0.8879 -2.0079 0.577, -0.8876 -2.0079 0.59, -0.884 -2.0079 0.6026, -0.8774 -2.0079 0.6138, -0.871 -2.0079 0.6206, -0.8606 -2.0079 0.6279, -0.849 -2.0079 0.6324, -0.849 -2.0079 0.6324
            ]
        }
        coordIndex [
            0,1,2,-1,3,4,5,-1,6,7,8,-1,9,10,11,-1,12,11,13,-1,13,11,14,-1,2,1,15,-1,16,17,18,-1,18,17,19,-1,18,19,20,-1,20,19,21,-1,20,21,5,-1,5,21,22,-1,5,22,3,-1,23,24,19,-1,19,24,25,-1,19,25,21,-1,21,25,26,-1,21,26,27,-1,28,9,29,-1,29,9,11,-1,29,11,30,-1,30,11,12,-1,31,32,33,-1,33,32,34,-1,33,34,35,-1,35,34,36,-1,35,36,37,-1,37,36,38,-1,6,8,39,-1,39,8,40,-1,39,40,41,-1,41,40,42,-1,41,42,43,-1,1,44,15,-1,15,44,45,-1,15,45,46,-1,46,45,47,-1,46,47,6,-1,6,47,48,-1,6,48,7,-1,27,49,21,-1,21,49,50,-1,21,50,51,-1,51,50,52,-1,51,52,53,-1,53,52,54,-1,53,54,55,-1,55,54,56,-1,55,56,57,-1,57,56,58,-1,57,58,59,-1,59,58,60,-1,59,60,29,-1,29,60,61,-1,29,61,28,-1,62,63,64,-1,64,63,65,-1,64,65,66,-1,66,65,67,-1,66,67,68,-1,68,67,69,-1,68,69,70,-1,70,69,71,-1,70,71,72,-1,36,73,38,-1,38,73,74,-1,38,74,75,-1,75,74,76,-1,75,76,77,-1,77,76,78,-1,77,78,79,-1,79,78,80,-1,79,80,81,-1,81,80,82,-1,81,82,83,-1,83,82,84,-1,83,84,62,-1,62,84,85,-1,62,85,63,-1,86,87,88,-1,88,87,89,-1,88,89,33,-1,33,89,90,-1,33,90,31,-1,91,92,93,-1,93,92,94,-1,93,94,95,-1,95,94,96,-1,95,96,97,-1,97,96,98,-1,97,98,99,-1,99,98,100,-1,99,100,14,-1,14,100,101,-1,14,101,13,-1,10,102,11,-1,11,102,103,-1,11,103,104,-1,104,103,105,-1,104,105,106,-1,106,105,107,-1,106,107,108,-1,108,107,109,-1,108,109,110,-1,110,109,111,-1,110,111,112,-1,112,111,113,-1,112,113,114,-1,114,113,115,-1,114,115,116,-1,116,115,117,-1,116,117,118,-1,118,117,119,-1,118,119,19,-1,19,119,120,-1,19,120,23,-1,43,42,121,-1,121,42,122,-1,121,122,123,-1,123,122,124,-1,123,124,125,-1,125,124,126,-1,125,126,127,-1,127,126,128,-1,127,128,86,-1,86,128,129,-1,86,129,87,-1,2,130,0,-1,0,130,131,-1,0,131,132,-1,132,131,133,-1,132,133,134,-1,134,133,135,-1,134,135,91,-1,91,135,136,-1,91,136,92,-1,137,138,139,-1,71,140,72,-1,72,140,137,-1,72,137,141,-1,141,137,139,-1,142,143,137,-1,137,143,144,-1,137,144,138,-1,145,146,147,-1,146,148,147,-1,147,148,149,-1,147,149,150,-1,142,137,147,-1,147,137,151,-1,147,151,145,-1,79,152,153,-1,154,38,75,-1,79,153,77,-1,77,153,155,-1,77,155,75,-1,75,155,156,-1,75,156,154,-1,154,157,38,-1,38,157,158,-1,38,158,37,-1,37,158,159,-1,37,159,35,-1,35,159,160,-1,35,160,33,-1,33,160,161,-1,33,161,88,-1,88,161,162,-1,88,162,86,-1,127,86,163,-1,163,86,162,-1,163,164,127,-1,127,164,165,-1,127,165,125,-1,125,165,166,-1,125,166,123,-1,123,166,167,-1,123,167,121,-1,121,167,168,-1,121,168,43,-1,43,168,41,-1,41,168,169,-1,41,169,170,-1,41,170,171,-1,41,171,39,-1,39,171,172,-1,39,172,6,-1,6,172,173,-1,6,173,46,-1,46,173,174,-1,46,174,15,-1,15,174,175,-1,15,175,2,-1,2,175,176,-1,2,176,130,-1,130,176,177,-1,130,177,131,-1,131,177,178,-1,131,178,133,-1,179,94,92,-1,133,178,180,-1,133,180,135,-1,135,180,181,-1,135,181,136,-1,181,182,136,-1,136,182,183,-1,136,183,92,-1,92,183,184,-1,92,184,179,-1,94,179,185,-1,94,185,96,-1,96,185,186,-1,96,186,98,-1,98,186,187,-1,98,187,100,-1,100,187,188,-1,100,188,101,-1,101,188,189,-1,101,189,13,-1,13,189,190,-1,13,190,12,-1,12,190,191,-1,12,191,30,-1,191,192,30,-1,30,192,193,-1,30,193,29,-1,29,193,194,-1,29,194,59,-1,59,194,195,-1,59,195,57,-1,195,196,57,-1,57,196,197,-1,57,197,55,-1,55,197,198,-1,55,198,53,-1,199,20,5,-1,53,198,200,-1,201,21,200,-1,200,21,51,-1,200,51,53,-1,201,202,21,-1,21,202,203,-1,21,203,22,-1,22,203,204,-1,22,204,3,-1,3,204,205,-1,3,205,4,-1,4,205,206,-1,4,206,5,-1,5,206,207,-1,5,207,199,-1,18,20,208,-1,208,20,199,-1,16,18,209,-1,209,18,208,-1,17,16,210,-1,210,16,209,-1,19,17,211,-1,211,17,210,-1,19,211,212,-1,19,212,118,-1,118,212,213,-1,118,213,116,-1,116,213,214,-1,116,214,114,-1,114,214,215,-1,114,215,112,-1,112,215,216,-1,112,216,110,-1,110,216,217,-1,110,217,108,-1,108,217,218,-1,108,218,106,-1,106,218,219,-1,106,219,104,-1,104,219,220,-1,104,220,11,-1,11,220,221,-1,11,221,14,-1,14,221,222,-1,14,222,99,-1,99,222,223,-1,99,223,97,-1,97,223,224,-1,97,224,95,-1,95,224,225,-1,95,225,93,-1,91,93,225,-1,225,226,91,-1,91,226,227,-1,91,227,228,-1,229,132,228,-1,228,132,134,-1,228,134,91,-1,229,230,132,-1,132,230,231,-1,132,231,0,-1,0,231,232,-1,0,232,1,-1,1,232,233,-1,1,233,44,-1,44,233,234,-1,44,234,45,-1,45,234,235,-1,45,235,47,-1,47,235,236,-1,47,236,48,-1,48,236,237,-1,48,237,7,-1,7,237,238,-1,7,238,8,-1,8,238,239,-1,8,239,40,-1,40,239,240,-1,40,240,42,-1,42,240,241,-1,42,241,122,-1,122,241,242,-1,122,242,124,-1,124,242,243,-1,124,243,126,-1,126,243,244,-1,126,244,128,-1,128,244,245,-1,128,245,129,-1,129,245,246,-1,129,246,87,-1,87,246,247,-1,87,247,89,-1,89,247,248,-1,89,248,90,-1,90,248,31,-1,31,248,249,-1,31,249,250,-1,32,31,251,-1,251,31,250,-1,32,251,252,-1,32,252,34,-1,34,252,253,-1,34,253,36,-1,36,253,254,-1,36,254,73,-1,73,254,255,-1,73,255,74,-1,74,255,256,-1,74,256,76,-1,256,257,76,-1,76,257,258,-1,76,258,78,-1,78,258,259,-1,78,259,80,-1,80,259,260,-1,80,260,82,-1,82,260,261,-1,82,261,84,-1,84,261,262,-1,84,262,85,-1,85,262,263,-1,85,263,63,-1,63,263,264,-1,63,264,65,-1,65,264,265,-1,65,265,67,-1,67,265,266,-1,67,266,69,-1,71,69,267,-1,267,69,266,-1,71,267,268,-1,71,268,140,-1,140,268,269,-1,140,269,137,-1,137,269,270,-1,137,270,151,-1,151,270,271,-1,151,271,145,-1,145,271,272,-1,145,272,146,-1,146,272,273,-1,146,273,148,-1,148,273,274,-1,148,274,149,-1,149,274,275,-1,149,275,150,-1,150,275,276,-1,150,276,147,-1,147,276,277,-1,147,277,142,-1,142,277,278,-1,142,278,143,-1,143,278,279,-1,143,279,144,-1,144,279,280,-1,144,280,138,-1,138,280,281,-1,138,281,139,-1,139,281,282,-1,139,282,141,-1,141,282,283,-1,141,283,72,-1,72,283,284,-1,72,284,70,-1,68,70,285,-1,285,70,284,-1,68,285,286,-1,68,286,66,-1,66,286,287,-1,66,287,64,-1,64,287,288,-1,64,288,62,-1,62,288,289,-1,62,289,83,-1,83,289,290,-1,83,290,81,-1,81,290,152,-1,81,152,79,-1,113,291,292,-1,113,292,115,-1,115,292,293,-1,115,293,117,-1,117,293,294,-1,117,294,119,-1,119,294,295,-1,119,295,120,-1,120,295,296,-1,120,296,23,-1,23,296,297,-1,23,297,24,-1,24,297,298,-1,24,298,25,-1,25,298,299,-1,25,299,26,-1,26,299,300,-1,26,300,27,-1,27,300,301,-1,27,301,49,-1,49,301,302,-1,49,302,50,-1,50,302,303,-1,50,303,52,-1,52,303,304,-1,52,304,54,-1,54,304,305,-1,54,305,56,-1,56,305,306,-1,56,306,58,-1,58,306,307,-1,58,307,60,-1,60,307,308,-1,60,308,61,-1,61,308,309,-1,61,309,28,-1,28,309,310,-1,28,310,9,-1,9,310,311,-1,9,311,10,-1,10,311,312,-1,10,312,102,-1,102,312,313,-1,102,313,103,-1,103,313,314,-1,103,314,105,-1,105,314,315,-1,105,315,107,-1,107,315,316,-1,107,316,109,-1,109,316,317,-1,109,317,111,-1,111,317,291,-1,111,291,113,-1,
        ]
    }
}
Shape{
    appearance Appearance {
        material  Material 	{
            diffuseColor 0.25098039215686274 0.25098039215686274 0.25098039215686274
            specularColor 0.12549019607843137 0.12549019607843137 0.12549019607843137
            ambientIntensity 0.2
            transparency 0
            shininess 0.5
        }
    }
    geometry IndexedFaceSet {
        ccw TRUE
        solid FALSE
        coord DEF co Coordinate {
            point [
                -0.849 -2.0079 0.6324, -0.8606 -2.0079 0.6279, -0.8386 -2.0079 0.5304, -0.871 -2.0079 0.6206, -0.8774 -2.0079 0.6138, -0.8274 -2.0079 0.6332, -0.8364 -2.0079 0.5304, -0.8237 -2.0079 0.5319, -0.8364 -2.0079 0.634, -0.8852 -2.0079 0.5647, -0.8796 -2.0079 0.5537, -0.8727 -2.0079 0.5453, -0.8019 -2.0079 0.5435, -0.7949 -2.0079 0.6133, -0.8038 -2.0079 0.6225, -0.8121 -2.0079 0.5364, -0.8148 -2.0079 0.6293, -0.884 -2.0079 0.6026, -0.8876 -2.0079 0.59, -0.8879 -2.0079 0.577, -0.8626 -2.0079 0.5375, -0.8506 -2.0079 0.5324, -0.7876 -2.0079 0.5648, -0.7848 -2.0079 0.5776, -0.7935 -2.0079 0.5532, -0.7852 -2.0079 0.5905, -0.7887 -2.0079 0.6026, -0.7887 -2.0079 0.6026
            ]
        }
        coordIndex [
            0,1,2,-1,2,1,3,-1,2,3,4,-1,5,6,7,-1,6,5,2,-1,2,5,8,-1,2,8,0,-1,9,10,4,-1,4,10,11,-1,12,13,14,-1,7,15,5,-1,5,15,12,-1,5,12,16,-1,16,12,14,-1,17,18,4,-1,4,18,19,-1,4,19,9,-1,11,20,4,-1,4,20,21,-1,4,21,2,-1,22,23,24,-1,24,23,25,-1,24,25,12,-1,12,25,26,-1,12,26,13,-1,
        ]
    }
}