#VRML V2.0 utf8
# 3D model generated by easyeda2kicad.py (https://github.com/uPesy/easyeda2kicad.py)

Shape{
    appearance Appearance {
        material  Material 	{
            diffuseColor 0.25098039215686274 0.25098039215686274 0.25098039215686274
            specularColor 0.12549019607843137 0.12549019607843137 0.12549019607843137
            ambientIntensity 0.2
            transparency 0
            shininess 0.5
        }
    }
    geometry IndexedFaceSet {
        ccw TRUE
        solid FALSE
        coord DEF co Coordinate {
            point [
                0.7504 -0.4059 0.4134, 0.7504 0.4059 0.4134, -0.4267 -0.4059 0.4134, -0.4267 0.4059 0.4134, -0.0524 0.4389 -0.4134, -0.0447 -0.0307 -0.4134, -0.0524 -0.0399 -0.4134, -0.0447 -0.0394 -0.4134, -0.0025 -0.0394 -0.4134, -0.0428 0.0307 -0.4134, -0.013 0.0307 -0.4134, -0.013 0.0048 -0.4134, 0.0129 -0.0353 -0.4134, 0.0129 -0.0267 -0.4134, -0.0025 0.0394 -0.4134, -0.013 -0.0039 -0.4134, -0.013 -0.0307 -0.4134, -0.0409 -0.0039 -0.4134, -0.0409 0.0048 -0.4134, 0.1185 -0.0394 -0.4134, 0.0392 -0.0399 -0.4134, 0.0782 -0.0394 -0.4134, 0.0443 -0.0393 -0.4134, 0.0519 -0.0367 -0.4134, -0.0428 0.0394 -0.4134, 0.0673 0.0186 -0.4134, 0.0627 0.026 -0.4134, 0.108 0.0394 -0.4134, 0.0391 0.0308 -0.4134, 0.045 0.0287 -0.4134, 0.0143 -0.0274 -0.4134, 0.0504 0.025 -0.4134, 0.0552 0.0198 -0.4134, 0.0609 -0.0009 -0.4134, 0.0601 -0.0094 -0.4134, 0.058 -0.0162 -0.4134, 0.0405 -0.0309 -0.4134, 0.0331 -0.0317 -0.4134, 0.0462 -0.0288 -0.4134, 0.051 -0.0255 -0.4134, 0.0547 -0.0216 -0.4134, 0.0227 -0.0305 -0.4134, 0.0584 0.0137 -0.4134, 0.0605 0.0053 -0.4134, 0.0582 -0.0327 -0.4134, 0.0642 -0.0264 -0.4134, 0.0782 -0.0307 -0.4134, 0.0684 -0.019 -0.4134, 0.108 -0.0307 -0.4134, 0.0707 -0.0106 -0.4134, 0.0715 -0.0015 -0.4134, 0.0704 0.0097 -0.4134, 0.0556 0.0328 -0.4134, 0.0481 0.0371 -0.4134, 0.0393 0.0397 -0.4134, 0.0314 0.0403 -0.4134, 0.022 0.0397 -0.4134, 0.0129 0.0372 -0.4134, 0.0129 0.0266 -0.4134, 0.0218 0.0304 -0.4134, 0.0313 0.0317 -0.4134, 0.0293 -0.0399 -0.4134, 0.0324 -0.0403 -0.4134, -0.0524 -0.4389 -0.4134, 0.0346 -0.0403 -0.4134, 0.1185 0.0394 -0.4134, 0.3897 0.4389 -0.4134, 0.3897 -0.0399 -0.4134, 0.3897 -0.4389 -0.4134, -0.3897 -0.4389 -0.4134, -0.3897 -0.0399 -0.4134, 0.0213 -0.0388 -0.4134, -0.1292 -0.0394 -0.4134, -0.1195 -0.0178 -0.4134, -0.115 -0.0248 -0.4134, -0.1887 -0.0394 -0.4134, -0.2003 -0.0394 -0.4134, -0.1695 0.0394 -0.4134, -0.3897 0.4389 -0.4134, -0.159 0.0394 -0.4134, -0.1085 -0.0311 -0.4134, -0.1003 -0.0358 -0.4134, -0.0912 -0.0385 -0.4134, -0.0815 -0.0394 -0.4134, -0.0601 -0.0394 -0.4134, -0.0601 0.0394 -0.4134, -0.0823 0.0394 -0.4134, -0.1115 0.0291 -0.4134, -0.1171 0.0229 -0.4134, -0.1208 0.0161 -0.4134, -0.0937 0.0381 -0.4134, -0.1029 0.0349 -0.4134, -0.1114 0.0292 -0.4134, -0.1407 -0.0394 -0.4134, -0.1482 -0.0173 -0.4134, -0.1808 -0.0173 -0.4134, -0.1229 0.0084 -0.4134, -0.1234 0.001 -0.4134, -0.1223 -0.0096 -0.4134, 0.8563 -0.2854 0.0, 0.8563 -0.473 0.0, 0.8389 -0.2854 -0.0984, 0.7903 -0.4071 -0.374, 0.8563 0.473 0.0, 0.8563 0.2854 0.0, 0.7903 0.4071 -0.374, 0.8389 0.2854 -0.0984, 0.7903 0.2854 -0.374, 0.7903 -0.2854 -0.374, 0.789 0.4172 -0.374, 0.7516 0.4459 -0.374, 0.3897 0.4459 -0.374, 0.5315 0.2854 -0.374, 0.3897 -0.4459 -0.374, 0.5315 -0.2854 -0.374, 0.7852 0.4266 -0.374, 0.7874 0.422 -0.374, 0.7665 0.4429 -0.374, 0.7516 -0.4459 -0.374, 0.7617 0.4446 -0.374, 0.789 -0.4172 -0.374, 0.7665 -0.4429 -0.374, 0.7617 -0.4446 -0.374, 0.7711 0.4407 -0.374, 0.7753 0.4379 -0.374, 0.7824 0.4308 -0.374, 0.7791 0.4346 -0.374, 0.7874 -0.422 -0.374, 0.7852 -0.4266 -0.374, 0.7711 -0.4407 -0.374, 0.7824 -0.4308 -0.374, 0.7753 -0.4379 -0.374, 0.7791 -0.4346 -0.374, -0.8563 0.2854 0.0, -0.8563 0.473 0.0, -0.8389 0.2854 -0.0984, -0.7903 0.4071 -0.374, -0.8563 -0.473 -0.0, -0.8563 -0.2854 -0.0, -0.7903 -0.4071 -0.374, -0.8389 -0.2854 -0.0984, -0.7903 -0.2854 -0.374, -0.7903 0.2854 -0.374, -0.5315 0.2854 -0.374, -0.3897 0.4459 -0.374, -0.5315 -0.2854 -0.374, -0.3897 -0.4459 -0.374, -0.7516 -0.4459 -0.374, -0.7516 0.4459 -0.374, -0.7617 -0.4446 -0.374, -0.7874 -0.422 -0.374, -0.789 -0.4172 -0.374, -0.7665 -0.4429 -0.374, -0.7711 -0.4407 -0.374, -0.7852 -0.4266 -0.374, -0.7711 0.4407 -0.374, -0.7665 0.4429 -0.374, -0.7874 0.422 -0.374, -0.789 0.4172 -0.374, -0.7617 0.4446 -0.374, -0.7824 -0.4308 -0.374, -0.7753 -0.4379 -0.374, -0.7791 -0.4346 -0.374, -0.7852 0.4266 -0.374, -0.7824 0.4308 -0.374, -0.7753 0.4379 -0.374, -0.7791 0.4346 -0.374, 0.8175 -0.5118 0.0, -0.8175 -0.5118 -0.0, -0.8175 0.5118 0.0, 0.8175 0.5118 0.0, 0.7891 0.4059 0.3809, 0.7891 -0.4059 0.3809, -0.7504 0.4447 0.3809, 0.7504 0.4447 0.3809, -0.7891 -0.4059 0.3809, -0.7891 0.4059 0.3809, -0.7504 -0.4447 0.3809, 0.7504 -0.4447 0.3809, -0.5901 -0.4059 0.4134, -0.5901 0.4059 0.4134, -0.7504 -0.4059 0.4134, -0.7504 0.4059 0.4134, -0.7504 0.4059 0.4134
            ]
        }
        coordIndex [
            0,1,2,-1,2,1,3,-1,4,5,6,-1,6,5,7,-1,6,7,8,-1,9,10,11,-1,12,8,13,-1,13,8,14,-1,15,16,17,-1,17,16,5,-1,17,5,18,-1,19,20,21,-1,21,20,22,-1,21,22,23,-1,11,18,9,-1,9,18,5,-1,9,5,24,-1,24,5,4,-1,24,4,14,-1,25,26,27,-1,28,29,30,-1,30,29,31,-1,30,31,32,-1,33,34,30,-1,30,34,35,-1,36,37,38,-1,38,37,39,-1,35,40,30,-1,30,40,39,-1,30,39,41,-1,41,39,37,-1,32,42,30,-1,30,42,43,-1,30,43,33,-1,23,44,21,-1,21,44,45,-1,21,45,46,-1,46,45,47,-1,46,47,48,-1,47,49,48,-1,48,49,50,-1,48,50,27,-1,27,50,51,-1,27,51,25,-1,52,53,4,-1,4,53,54,-1,4,54,55,-1,55,56,4,-1,4,56,57,-1,4,57,14,-1,14,57,58,-1,14,58,13,-1,13,58,59,-1,13,59,30,-1,30,59,60,-1,30,60,28,-1,61,62,63,-1,63,62,64,-1,63,64,20,-1,26,52,27,-1,27,52,4,-1,27,4,65,-1,65,4,66,-1,65,66,19,-1,19,66,67,-1,19,67,20,-1,20,67,68,-1,20,68,63,-1,69,70,63,-1,63,70,6,-1,63,6,61,-1,61,6,8,-1,61,8,71,-1,71,8,12,-1,72,73,74,-1,75,6,76,-1,76,6,70,-1,76,70,77,-1,77,70,78,-1,77,78,79,-1,79,78,4,-1,74,80,72,-1,72,80,81,-1,72,81,82,-1,83,84,6,-1,6,84,85,-1,6,85,4,-1,4,85,86,-1,87,88,79,-1,79,88,89,-1,86,90,4,-1,4,90,91,-1,4,91,79,-1,79,91,92,-1,79,92,87,-1,82,83,72,-1,72,83,6,-1,72,6,93,-1,93,6,75,-1,93,75,94,-1,94,75,95,-1,89,96,79,-1,79,96,97,-1,79,97,72,-1,72,97,98,-1,72,98,73,-1,99,100,101,-1,101,100,102,-1,103,104,105,-1,105,104,106,-1,105,106,107,-1,107,106,101,-1,107,101,108,-1,108,101,102,-1,109,105,110,-1,110,105,107,-1,110,107,111,-1,111,107,112,-1,111,112,113,-1,113,112,114,-1,115,116,117,-1,114,108,113,-1,113,108,102,-1,113,102,118,-1,109,110,116,-1,116,110,119,-1,116,119,117,-1,120,121,102,-1,102,121,122,-1,102,122,118,-1,117,123,115,-1,115,123,124,-1,115,124,125,-1,125,124,126,-1,120,127,121,-1,121,127,128,-1,121,128,129,-1,129,128,130,-1,129,130,131,-1,131,130,132,-1,133,134,135,-1,135,134,136,-1,137,138,139,-1,139,138,140,-1,139,140,141,-1,141,140,135,-1,141,135,142,-1,142,135,136,-1,143,144,145,-1,145,144,146,-1,145,146,141,-1,141,146,147,-1,141,147,139,-1,143,142,144,-1,144,142,136,-1,144,136,148,-1,149,150,147,-1,147,150,151,-1,147,151,139,-1,149,152,150,-1,150,152,153,-1,150,153,154,-1,155,156,157,-1,136,158,148,-1,148,158,157,-1,148,157,159,-1,159,157,156,-1,154,153,160,-1,160,153,161,-1,160,161,162,-1,157,163,155,-1,155,163,164,-1,155,164,165,-1,165,164,166,-1,113,118,167,-1,167,168,146,-1,146,168,147,-1,146,69,63,-1,167,146,113,-1,113,146,63,-1,113,63,68,-1,169,170,111,-1,111,170,110,-1,4,78,144,-1,148,169,144,-1,144,169,111,-1,144,111,4,-1,4,111,66,-1,103,171,104,-1,104,171,172,-1,104,172,99,-1,99,172,100,-1,173,174,169,-1,169,174,170,-1,138,137,175,-1,138,175,133,-1,133,175,176,-1,133,176,134,-1,168,167,177,-1,177,167,178,-1,179,180,181,-1,181,180,182,-1,69,146,70,-1,70,146,144,-1,70,144,78,-1,66,111,67,-1,67,111,113,-1,67,113,68,-1,
        ]
    }
}
Shape{
    appearance Appearance {
        material  Material 	{
            diffuseColor 1.0 1.0 1.0
            specularColor 0.5019607843137255 0.5019607843137255 0.5019607843137255
            ambientIntensity 0.2
            transparency 0
            shininess 0.5
        }
    }
    geometry IndexedFaceSet {
        ccw TRUE
        solid FALSE
        coord DEF co Coordinate {
            point [
                -0.8858 0.2854 0.0, -0.8858 -0.2854 0.0, -0.8563 0.2854 0.0, -0.8563 -0.2854 -0.0, -0.8858 0.2854 -0.374, -0.8858 -0.2854 -0.374, -0.7903 0.2854 -0.374, -0.7903 -0.2854 -0.374, -0.5315 0.2854 -0.4724, -0.5315 0.2854 -0.374, -0.5315 -0.2854 -0.4724, -0.5315 -0.2854 -0.374, -0.8858 0.2854 -0.4724, -0.8858 -0.2854 -0.4724, -0.9164 -0.2854 -0.4684, -0.9164 0.2854 -0.4684, -0.9449 -0.2854 -0.4566, -0.9449 0.2854 -0.4566, -0.9693 -0.2854 -0.4378, -0.9693 0.2854 -0.4378, -0.9881 -0.2854 -0.4134, -0.9881 0.2854 -0.4134, -0.9999 -0.2854 -0.3849, -0.9999 0.2854 -0.3849, -1.0039 -0.2854 -0.3543, -1.0039 0.2854 -0.3543, -1.0039 0.2854 -0.1181, -1.0039 -0.2854 -0.1181, -0.9999 -0.2854 -0.0875, -0.9999 0.2854 -0.0875, -0.9881 -0.2854 -0.0591, -0.9881 0.2854 -0.0591, -0.9693 -0.2854 -0.0346, -0.9693 0.2854 -0.0346, -0.9449 -0.2854 -0.0158, -0.9449 0.2854 -0.0158, -0.9164 -0.2854 -0.004, -0.9164 0.2854 -0.004, -0.8858 -0.2854 -0.0984, -0.8858 0.2854 -0.0984, -0.8389 -0.2854 -0.0984, -0.8389 0.2854 -0.0984, -0.8909 0.2854 -0.0991, -0.8909 -0.2854 -0.0991, -0.8957 0.2854 -0.1011, -0.8957 -0.2854 -0.1011, -0.8997 0.2854 -0.1042, -0.8997 -0.2854 -0.1042, -0.9029 0.2854 -0.1083, -0.9029 -0.2854 -0.1083, -0.9048 0.2854 -0.113, -0.9048 -0.2854 -0.113, -0.9055 0.2854 -0.1181, -0.9055 -0.2854 -0.1181, -0.9055 0.2854 -0.3543, -0.9055 -0.2854 -0.3543, -0.9048 0.2854 -0.3594, -0.9048 -0.2854 -0.3594, -0.9029 0.2854 -0.3642, -0.9029 -0.2854 -0.3642, -0.8997 0.2854 -0.3683, -0.8997 -0.2854 -0.3683, -0.8957 0.2854 -0.3714, -0.8957 -0.2854 -0.3714, -0.8909 0.2854 -0.3733, -0.8909 -0.2854 -0.3733, 0.8563 -0.2854 0.0, 0.8858 -0.2854 0.0, 0.8563 0.2854 0.0, 0.8858 0.2854 0.0, 0.7903 -0.2854 -0.374, 0.8858 -0.2854 -0.374, 0.7903 0.2854 -0.374, 0.8858 0.2854 -0.374, 0.8909 0.2854 -0.3733, 0.8909 -0.2854 -0.3733, 0.8957 0.2854 -0.3714, 0.8957 -0.2854 -0.3714, 0.8997 0.2854 -0.3683, 0.8997 -0.2854 -0.3683, 0.9029 0.2854 -0.3642, 0.9029 -0.2854 -0.3642, 0.9048 0.2854 -0.3594, 0.9048 -0.2854 -0.3594, 0.9055 0.2854 -0.3543, 0.9055 -0.2854 -0.3543, 0.9055 0.2854 -0.1181, 0.9055 -0.2854 -0.1181, 0.9048 0.2854 -0.113, 0.9048 -0.2854 -0.113, 0.9029 0.2854 -0.1083, 0.9029 -0.2854 -0.1083, 0.8997 0.2854 -0.1042, 0.8997 -0.2854 -0.1042, 0.8957 0.2854 -0.1011, 0.8957 -0.2854 -0.1011, 0.8909 0.2854 -0.0991, 0.8909 -0.2854 -0.0991, 0.8858 0.2854 -0.0984, 0.8858 -0.2854 -0.0984, 0.8389 0.2854 -0.0984, 0.8389 -0.2854 -0.0984, 0.9164 -0.2854 -0.004, 0.9164 0.2854 -0.004, 0.9449 -0.2854 -0.0158, 0.9449 0.2854 -0.0158, 0.9693 -0.2854 -0.0346, 0.9693 0.2854 -0.0346, 0.9881 -0.2854 -0.0591, 0.9881 0.2854 -0.0591, 0.9999 -0.2854 -0.0875, 0.9999 0.2854 -0.0875, 1.0039 -0.2854 -0.1181, 1.0039 0.2854 -0.1181, 1.0039 0.2854 -0.3543, 1.0039 -0.2854 -0.3543, 0.9999 -0.2854 -0.3849, 0.9999 0.2854 -0.3849, 0.9881 -0.2854 -0.4134, 0.9881 0.2854 -0.4134, 0.9693 -0.2854 -0.4378, 0.9693 0.2854 -0.4378, 0.9449 -0.2854 -0.4566, 0.9449 0.2854 -0.4566, 0.9164 -0.2854 -0.4684, 0.9164 0.2854 -0.4684, 0.8858 -0.2854 -0.4724, 0.8858 0.2854 -0.4724, 0.5315 0.2854 -0.4724, 0.5315 -0.2854 -0.4724, 0.5315 0.2854 -0.374, 0.5315 -0.2854 -0.374, 0.5315 -0.2854 -0.374
            ]
        }
        coordIndex [
            0,1,2,-1,2,1,3,-1,4,5,6,-1,6,5,7,-1,8,9,10,-1,10,9,11,-1,12,8,13,-1,13,8,10,-1,12,13,14,-1,12,14,15,-1,15,14,16,-1,15,16,17,-1,17,16,18,-1,17,18,19,-1,19,18,20,-1,19,20,21,-1,21,20,22,-1,21,22,23,-1,23,22,24,-1,23,24,25,-1,26,25,27,-1,27,25,24,-1,26,27,28,-1,26,28,29,-1,29,28,30,-1,29,30,31,-1,31,30,32,-1,31,32,33,-1,33,32,34,-1,33,34,35,-1,35,34,36,-1,35,36,37,-1,37,36,1,-1,37,1,0,-1,38,39,40,-1,40,39,41,-1,39,38,42,-1,42,38,43,-1,42,43,44,-1,44,43,45,-1,44,45,46,-1,46,45,47,-1,46,47,48,-1,48,47,49,-1,48,49,50,-1,50,49,51,-1,50,51,52,-1,52,51,53,-1,54,52,55,-1,55,52,53,-1,54,55,56,-1,56,55,57,-1,56,57,58,-1,58,57,59,-1,58,59,60,-1,60,59,61,-1,60,61,62,-1,62,61,63,-1,62,63,64,-1,64,63,65,-1,64,65,4,-1,4,65,5,-1,9,8,6,-1,6,8,12,-1,2,41,0,-1,0,41,39,-1,0,39,37,-1,37,39,42,-1,37,42,35,-1,35,42,44,-1,35,44,33,-1,33,44,46,-1,33,46,31,-1,31,46,48,-1,31,48,29,-1,29,48,50,-1,29,50,26,-1,26,50,52,-1,26,52,25,-1,25,52,54,-1,25,54,23,-1,23,54,56,-1,23,56,21,-1,21,56,58,-1,21,58,19,-1,19,58,60,-1,19,60,17,-1,17,60,62,-1,17,62,15,-1,15,62,64,-1,15,64,12,-1,12,64,4,-1,12,4,6,-1,13,10,11,-1,40,3,38,-1,38,3,1,-1,38,1,43,-1,43,1,36,-1,43,36,45,-1,45,36,34,-1,45,34,47,-1,47,34,32,-1,47,32,49,-1,49,32,30,-1,49,30,51,-1,51,30,28,-1,51,28,53,-1,53,28,27,-1,53,27,55,-1,55,27,24,-1,55,24,57,-1,57,24,22,-1,57,22,59,-1,59,22,20,-1,59,20,61,-1,61,20,18,-1,61,18,63,-1,63,18,16,-1,63,16,65,-1,65,16,14,-1,65,14,5,-1,5,14,13,-1,5,13,7,-1,7,13,11,-1,66,67,68,-1,68,67,69,-1,70,71,72,-1,72,71,73,-1,73,71,74,-1,74,71,75,-1,74,75,76,-1,76,75,77,-1,76,77,78,-1,78,77,79,-1,78,79,80,-1,80,79,81,-1,80,81,82,-1,82,81,83,-1,82,83,84,-1,84,83,85,-1,86,84,87,-1,87,84,85,-1,86,87,88,-1,88,87,89,-1,88,89,90,-1,90,89,91,-1,90,91,92,-1,92,91,93,-1,92,93,94,-1,94,93,95,-1,94,95,96,-1,96,95,97,-1,96,97,98,-1,98,97,99,-1,100,98,101,-1,101,98,99,-1,69,67,102,-1,69,102,103,-1,103,102,104,-1,103,104,105,-1,105,104,106,-1,105,106,107,-1,107,106,108,-1,107,108,109,-1,109,108,110,-1,109,110,111,-1,111,110,112,-1,111,112,113,-1,114,113,115,-1,115,113,112,-1,114,115,116,-1,114,116,117,-1,117,116,118,-1,117,118,119,-1,119,118,120,-1,119,120,121,-1,121,120,122,-1,121,122,123,-1,123,122,124,-1,123,124,125,-1,125,124,126,-1,125,126,127,-1,128,127,129,-1,129,127,126,-1,130,128,131,-1,131,128,129,-1,127,128,130,-1,100,68,98,-1,98,68,69,-1,98,69,96,-1,96,69,103,-1,96,103,94,-1,94,103,105,-1,94,105,92,-1,92,105,107,-1,92,107,90,-1,90,107,109,-1,90,109,88,-1,88,109,111,-1,88,111,86,-1,86,111,113,-1,86,113,84,-1,84,113,114,-1,84,114,82,-1,82,114,117,-1,82,117,80,-1,80,117,119,-1,80,119,78,-1,78,119,121,-1,78,121,76,-1,76,121,123,-1,76,123,74,-1,74,123,125,-1,74,125,73,-1,73,125,127,-1,73,127,72,-1,72,127,130,-1,131,129,70,-1,70,129,126,-1,66,101,67,-1,67,101,99,-1,67,99,102,-1,102,99,97,-1,102,97,104,-1,104,97,95,-1,104,95,106,-1,106,95,93,-1,106,93,108,-1,108,93,91,-1,108,91,110,-1,110,91,89,-1,110,89,112,-1,112,89,87,-1,112,87,115,-1,115,87,85,-1,115,85,116,-1,116,85,83,-1,116,83,118,-1,118,83,81,-1,118,81,120,-1,120,81,79,-1,120,79,122,-1,122,79,77,-1,122,77,124,-1,124,77,75,-1,124,75,126,-1,126,75,71,-1,126,71,70,-1,
        ]
    }
}
Shape{
    appearance Appearance {
        material  Material 	{
            diffuseColor 0.7529411764705882 0.7529411764705882 0.7529411764705882
            specularColor 0.3764705882352941 0.3764705882352941 0.3764705882352941
            ambientIntensity 0.2
            transparency 0
            shininess 0.5
        }
    }
    geometry IndexedFaceSet {
        ccw TRUE
        solid FALSE
        coord DEF co Coordinate {
            point [
                -0.1695 0.0394 -0.413, -0.2003 -0.0394 -0.413, -0.1695 0.0394 -0.4134, -0.2003 -0.0394 -0.4134, -0.1887 -0.0394 -0.413, -0.1887 -0.0394 -0.4134, -0.1808 -0.0173 -0.413, -0.1808 -0.0173 -0.4134, -0.1482 -0.0173 -0.413, -0.1482 -0.0173 -0.4134, -0.1407 -0.0394 -0.413, -0.1407 -0.0394 -0.4134, -0.1292 -0.0394 -0.413, -0.1292 -0.0394 -0.4134, -0.159 0.0394 -0.413, -0.159 0.0394 -0.4134, -0.1509 -0.0087 -0.413, -0.1772 -0.0087 -0.413, -0.1627 0.0242 -0.413, -0.1634 0.027 -0.413, -0.1639 0.0298 -0.413, -0.1642 0.0298 -0.413, -0.1647 0.027 -0.413, -0.1654 0.0242 -0.413, -0.1509 -0.0087 -0.4134, -0.1772 -0.0087 -0.4134, -0.1627 0.0242 -0.4134, -0.1634 0.027 -0.4134, -0.1639 0.0298 -0.4134, -0.1642 0.0298 -0.4134, -0.1647 0.027 -0.4134, -0.1654 0.0242 -0.4134, -0.0815 -0.0394 -0.413, -0.0601 -0.0394 -0.413, -0.0815 -0.0394 -0.4134, -0.0601 -0.0394 -0.4134, -0.0601 0.0394 -0.413, -0.0601 0.0394 -0.4134, -0.0823 0.0394 -0.413, -0.0823 0.0394 -0.4134, -0.1234 0.001 -0.413, -0.1234 0.001 -0.4134, -0.1229 0.0084 -0.4134, -0.1229 0.0084 -0.413, -0.1208 0.0161 -0.4134, -0.1208 0.0161 -0.413, -0.1171 0.0229 -0.4134, -0.1171 0.0229 -0.413, -0.1115 0.0291 -0.4134, -0.1115 0.0291 -0.413, -0.1114 0.0292 -0.4134, -0.1114 0.0292 -0.413, -0.1029 0.0349 -0.4134, -0.1029 0.0349 -0.413, -0.0937 0.0381 -0.4134, -0.0937 0.0381 -0.413, -0.0912 -0.0385 -0.4134, -0.0912 -0.0385 -0.413, -0.1003 -0.0358 -0.4134, -0.1003 -0.0358 -0.413, -0.1085 -0.0311 -0.4134, -0.1085 -0.0311 -0.413, -0.115 -0.0248 -0.4134, -0.115 -0.0248 -0.413, -0.1195 -0.0178 -0.4134, -0.1195 -0.0178 -0.413, -0.1223 -0.0096 -0.4134, -0.1223 -0.0096 -0.413, -0.1076 0.0197 -0.413, -0.1038 0.0237 -0.413, -0.0981 0.0274 -0.413, -0.0916 0.0297 -0.413, -0.0822 0.0307 -0.413, -0.0706 0.0307 -0.413, -0.0706 -0.0307 -0.413, -0.0818 -0.0307 -0.413, -0.0901 -0.03 -0.413, -0.0967 -0.0279 -0.413, -0.1021 -0.0247 -0.413, -0.1065 -0.0204 -0.413, -0.1099 -0.0149 -0.413, -0.1122 -0.0075 -0.413, -0.1129 0.0007 -0.413, -0.1122 0.0086 -0.413, -0.1104 0.0148 -0.413, -0.0822 0.0307 -0.4134, -0.0706 0.0307 -0.4134, -0.0916 0.0297 -0.4134, -0.0981 0.0274 -0.4134, -0.1038 0.0237 -0.4134, -0.1076 0.0197 -0.4134, -0.1104 0.0148 -0.4134, -0.1122 0.0086 -0.4134, -0.1129 0.0007 -0.4134, -0.1122 -0.0075 -0.4134, -0.1099 -0.0149 -0.4134, -0.1065 -0.0204 -0.4134, -0.1021 -0.0247 -0.4134, -0.0967 -0.0279 -0.4134, -0.0901 -0.03 -0.4134, -0.0818 -0.0307 -0.4134, -0.0706 -0.0307 -0.4134, -0.0447 -0.0307 -0.413, -0.0447 -0.0394 -0.413, -0.0447 -0.0307 -0.4134, -0.0447 -0.0394 -0.4134, -0.0025 -0.0394 -0.413, -0.0025 -0.0394 -0.4134, -0.0025 0.0394 -0.413, -0.0025 0.0394 -0.4134, -0.0428 0.0394 -0.413, -0.0428 0.0394 -0.4134, -0.0428 0.0307 -0.413, -0.0428 0.0307 -0.4134, -0.013 0.0307 -0.413, -0.013 0.0307 -0.4134, -0.013 0.0048 -0.413, -0.013 0.0048 -0.4134, -0.0409 0.0048 -0.413, -0.0409 0.0048 -0.4134, -0.0409 -0.0039 -0.413, -0.0409 -0.0039 -0.4134, -0.013 -0.0039 -0.413, -0.013 -0.0039 -0.4134, -0.013 -0.0307 -0.413, -0.013 -0.0307 -0.4134, 0.0129 -0.0267 -0.413, 0.0129 -0.0353 -0.413, 0.0129 -0.0267 -0.4134, 0.0129 -0.0353 -0.4134, 0.0213 -0.0388 -0.413, 0.0346 -0.0403 -0.413, 0.0346 -0.0403 -0.4134, 0.0324 -0.0403 -0.4134, 0.0324 -0.0403 -0.413, 0.0293 -0.0399 -0.4134, 0.0213 -0.0388 -0.4134, 0.0392 -0.0399 -0.4134, 0.0443 -0.0393 -0.413, 0.0443 -0.0393 -0.4134, 0.0519 -0.0367 -0.413, 0.0519 -0.0367 -0.4134, 0.0582 -0.0327 -0.413, 0.0582 -0.0327 -0.4134, 0.0642 -0.0264 -0.413, 0.0642 -0.0264 -0.4134, 0.0684 -0.019 -0.413, 0.0684 -0.019 -0.4134, 0.0707 -0.0106 -0.413, 0.0707 -0.0106 -0.4134, 0.0715 -0.0015 -0.413, 0.0715 -0.0015 -0.4134, 0.0314 0.0403 -0.413, 0.0314 0.0403 -0.4134, 0.0393 0.0397 -0.4134, 0.0393 0.0397 -0.413, 0.0481 0.0371 -0.4134, 0.0481 0.0371 -0.413, 0.0556 0.0328 -0.4134, 0.0556 0.0328 -0.413, 0.0627 0.026 -0.4134, 0.0627 0.026 -0.413, 0.0673 0.0186 -0.4134, 0.0673 0.0186 -0.413, 0.0704 0.0097 -0.4134, 0.0704 0.0097 -0.413, 0.0129 0.0372 -0.413, 0.0129 0.0372 -0.4134, 0.022 0.0397 -0.4134, 0.022 0.0397 -0.413, 0.0129 0.0266 -0.413, 0.0129 0.0266 -0.4134, 0.0313 0.0317 -0.413, 0.0313 0.0317 -0.4134, 0.0218 0.0304 -0.4134, 0.0218 0.0304 -0.413, 0.0609 -0.0009 -0.413, 0.0609 -0.0009 -0.4134, 0.0605 0.0053 -0.4134, 0.0605 0.0053 -0.413, 0.0584 0.0137 -0.4134, 0.0584 0.0137 -0.413, 0.0552 0.0198 -0.4134, 0.0552 0.0198 -0.413, 0.0504 0.025 -0.4134, 0.0504 0.025 -0.413, 0.045 0.0287 -0.4134, 0.045 0.0287 -0.413, 0.0391 0.0308 -0.4134, 0.0391 0.0308 -0.413, 0.0331 -0.0317 -0.413, 0.0331 -0.0317 -0.4134, 0.0405 -0.0309 -0.4134, 0.0405 -0.0309 -0.413, 0.0462 -0.0288 -0.4134, 0.0462 -0.0288 -0.413, 0.051 -0.0255 -0.4134, 0.051 -0.0255 -0.413, 0.0547 -0.0216 -0.4134, 0.0547 -0.0216 -0.413, 0.058 -0.0162 -0.4134, 0.058 -0.0162 -0.413, 0.0601 -0.0094 -0.4134, 0.0601 -0.0094 -0.413, 0.0143 -0.0274 -0.4134, 0.0143 -0.0274 -0.413, 0.0227 -0.0305 -0.4134, 0.0227 -0.0305 -0.413, 0.0782 -0.0307 -0.413, 0.0782 -0.0394 -0.413, 0.0782 -0.0307 -0.4134, 0.0782 -0.0394 -0.4134, 0.1185 -0.0394 -0.413, 0.1185 -0.0394 -0.4134, 0.1185 0.0394 -0.413, 0.1185 0.0394 -0.4134, 0.108 0.0394 -0.413, 0.108 0.0394 -0.4134, 0.108 -0.0307 -0.413, 0.108 -0.0307 -0.4134, 0.108 -0.0307 -0.4134
            ]
        }
        coordIndex [
            0,1,2,-1,2,1,3,-1,1,4,3,-1,3,4,5,-1,4,6,5,-1,5,6,7,-1,6,8,7,-1,7,8,9,-1,8,10,9,-1,9,10,11,-1,10,12,11,-1,11,12,13,-1,12,14,13,-1,13,14,15,-1,14,0,15,-1,15,0,2,-1,16,8,17,-1,17,8,6,-1,18,14,16,-1,16,14,12,-1,16,12,8,-1,8,12,10,-1,18,19,14,-1,14,19,20,-1,14,20,0,-1,0,20,21,-1,0,21,22,-1,22,23,0,-1,0,23,17,-1,0,17,1,-1,1,17,6,-1,1,6,4,-1,16,17,24,-1,24,17,25,-1,18,16,26,-1,26,16,24,-1,18,26,27,-1,18,27,19,-1,19,27,28,-1,19,28,20,-1,21,20,29,-1,29,20,28,-1,21,29,30,-1,21,30,22,-1,22,30,31,-1,22,31,23,-1,17,23,25,-1,25,23,31,-1,32,33,34,-1,34,33,35,-1,33,36,35,-1,35,36,37,-1,36,38,37,-1,37,38,39,-1,40,41,42,-1,40,42,43,-1,43,42,44,-1,43,44,45,-1,45,44,46,-1,45,46,47,-1,47,46,48,-1,47,48,49,-1,49,48,50,-1,49,50,51,-1,51,50,52,-1,51,52,53,-1,53,52,54,-1,53,54,55,-1,55,54,39,-1,55,39,38,-1,32,34,56,-1,32,56,57,-1,57,56,58,-1,57,58,59,-1,59,58,60,-1,59,60,61,-1,61,60,62,-1,61,62,63,-1,63,62,64,-1,63,64,65,-1,65,64,66,-1,65,66,67,-1,67,66,41,-1,67,41,40,-1,45,47,68,-1,68,47,49,-1,68,49,69,-1,69,49,51,-1,69,51,70,-1,70,51,53,-1,70,53,71,-1,71,53,55,-1,71,55,72,-1,72,55,38,-1,72,38,73,-1,73,38,36,-1,73,36,74,-1,74,36,33,-1,74,33,75,-1,75,33,32,-1,75,32,76,-1,76,32,57,-1,76,57,77,-1,77,57,59,-1,77,59,78,-1,78,59,61,-1,78,61,79,-1,79,61,63,-1,79,63,80,-1,80,63,65,-1,80,65,81,-1,81,65,67,-1,81,67,82,-1,82,67,40,-1,82,40,83,-1,83,40,43,-1,83,43,84,-1,84,43,45,-1,84,45,68,-1,72,73,85,-1,85,73,86,-1,72,85,87,-1,72,87,71,-1,71,87,88,-1,71,88,70,-1,70,88,89,-1,70,89,69,-1,69,89,90,-1,69,90,68,-1,68,90,91,-1,68,91,84,-1,84,91,92,-1,84,92,83,-1,83,92,93,-1,83,93,82,-1,82,93,94,-1,82,94,81,-1,81,94,95,-1,81,95,80,-1,80,95,96,-1,80,96,79,-1,79,96,97,-1,79,97,78,-1,78,97,98,-1,78,98,77,-1,77,98,99,-1,77,99,76,-1,76,99,100,-1,76,100,75,-1,74,75,101,-1,101,75,100,-1,73,74,86,-1,86,74,101,-1,102,103,104,-1,104,103,105,-1,103,106,105,-1,105,106,107,-1,106,108,107,-1,107,108,109,-1,108,110,109,-1,109,110,111,-1,110,112,111,-1,111,112,113,-1,112,114,113,-1,113,114,115,-1,114,116,115,-1,115,116,117,-1,116,118,117,-1,117,118,119,-1,118,120,119,-1,119,120,121,-1,120,122,121,-1,121,122,123,-1,122,124,123,-1,123,124,125,-1,124,102,125,-1,125,102,104,-1,106,103,102,-1,102,124,106,-1,106,124,122,-1,106,122,108,-1,112,110,114,-1,114,110,108,-1,114,108,116,-1,116,108,122,-1,116,122,118,-1,118,122,120,-1,126,127,128,-1,128,127,129,-1,129,127,130,-1,131,132,133,-1,131,133,134,-1,134,133,135,-1,134,135,130,-1,130,135,136,-1,130,136,129,-1,132,131,137,-1,137,131,138,-1,137,138,139,-1,139,138,140,-1,139,140,141,-1,141,140,142,-1,141,142,143,-1,143,142,144,-1,143,144,145,-1,145,144,146,-1,145,146,147,-1,147,146,148,-1,147,148,149,-1,149,148,150,-1,149,150,151,-1,152,153,154,-1,152,154,155,-1,155,154,156,-1,155,156,157,-1,157,156,158,-1,157,158,159,-1,159,158,160,-1,159,160,161,-1,161,160,162,-1,161,162,163,-1,163,162,164,-1,163,164,165,-1,165,164,151,-1,165,151,150,-1,166,167,168,-1,166,168,169,-1,169,168,153,-1,169,153,152,-1,166,170,167,-1,167,170,171,-1,172,173,174,-1,172,174,175,-1,175,174,171,-1,175,171,170,-1,176,177,178,-1,176,178,179,-1,179,178,180,-1,179,180,181,-1,181,180,182,-1,181,182,183,-1,183,182,184,-1,183,184,185,-1,185,184,186,-1,185,186,187,-1,187,186,188,-1,187,188,189,-1,189,188,173,-1,189,173,172,-1,190,191,192,-1,190,192,193,-1,193,192,194,-1,193,194,195,-1,195,194,196,-1,195,196,197,-1,197,196,198,-1,197,198,199,-1,199,198,200,-1,199,200,201,-1,201,200,202,-1,201,202,203,-1,203,202,177,-1,203,177,176,-1,126,128,204,-1,126,204,205,-1,205,204,206,-1,205,206,207,-1,207,206,191,-1,207,191,190,-1,193,131,190,-1,190,131,134,-1,190,134,207,-1,207,134,130,-1,207,130,205,-1,205,130,127,-1,205,127,126,-1,170,166,175,-1,175,166,169,-1,175,169,172,-1,172,169,152,-1,172,152,189,-1,189,152,155,-1,189,155,187,-1,187,155,157,-1,187,157,185,-1,185,157,159,-1,185,159,183,-1,183,159,161,-1,183,161,181,-1,181,161,163,-1,181,163,179,-1,179,163,165,-1,179,165,176,-1,176,165,150,-1,176,150,203,-1,203,150,148,-1,203,148,201,-1,201,148,146,-1,201,146,199,-1,199,146,144,-1,199,144,197,-1,197,144,142,-1,197,142,195,-1,195,142,140,-1,195,140,193,-1,193,140,138,-1,193,138,131,-1,208,209,210,-1,210,209,211,-1,209,212,211,-1,211,212,213,-1,212,214,213,-1,213,214,215,-1,214,216,215,-1,215,216,217,-1,216,218,217,-1,217,218,219,-1,218,208,219,-1,219,208,210,-1,216,214,218,-1,218,214,212,-1,218,212,208,-1,208,212,209,-1,
        ]
    }
}
Shape{
    appearance Appearance {
        material  Material 	{
            diffuseColor 0.25098039215686274 0.25098039215686274 0.25098039215686274
            specularColor 0.12549019607843137 0.12549019607843137 0.12549019607843137
            ambientIntensity 0.2
            transparency 0
            shininess 0.5
        }
    }
    geometry IndexedFaceSet {
        ccw TRUE
        solid FALSE
        coord DEF co Coordinate {
            point [
                -0.1509 -0.0087 -0.4134, -0.1772 -0.0087 -0.4134, -0.1627 0.0242 -0.4134, -0.1654 0.0242 -0.4134, -0.1634 0.027 -0.4134, -0.1647 0.027 -0.4134, -0.1639 0.0298 -0.4134, -0.1642 0.0298 -0.4134, -0.0706 0.0307 -0.4134, -0.0706 -0.0307 -0.4134, -0.0822 0.0307 -0.4134, -0.0818 -0.0307 -0.4134, -0.0901 -0.03 -0.4134, -0.1129 0.0007 -0.4134, -0.1122 0.0086 -0.4134, -0.1104 0.0148 -0.4134, -0.0916 0.0297 -0.4134, -0.0967 -0.0279 -0.4134, -0.1021 -0.0247 -0.4134, -0.1065 -0.0204 -0.4134, -0.1099 -0.0149 -0.4134, -0.1122 -0.0075 -0.4134, -0.1076 0.0197 -0.4134, -0.1038 0.0237 -0.4134, -0.0981 0.0274 -0.4134, -0.0981 0.0274 -0.4134
            ]
        }
        coordIndex [
            0,1,2,-1,2,1,3,-1,2,3,4,-1,4,3,5,-1,4,5,6,-1,6,5,7,-1,8,9,10,-1,10,9,11,-1,10,11,12,-1,13,14,10,-1,10,14,15,-1,10,15,16,-1,12,17,10,-1,10,17,18,-1,10,18,19,-1,19,20,10,-1,10,20,21,-1,10,21,13,-1,22,23,15,-1,15,23,24,-1,15,24,16,-1,
        ]
    }
}
Shape{
    appearance Appearance {
        material  Material 	{
            diffuseColor 0.7529411764705882 0.7529411764705882 0.7529411764705882
            specularColor 0.3764705882352941 0.3764705882352941 0.3764705882352941
            ambientIntensity 0.2
            transparency 0
            shininess 0.5
        }
    }
    geometry IndexedFaceSet {
        ccw TRUE
        solid FALSE
        coord DEF co Coordinate {
            point [
                -0.4267 -0.4114 0.413, -0.4267 0.4114 0.413, -0.5901 -0.4114 0.413, -0.5901 0.4114 0.413, -0.4267 0.4059 0.4134, -0.4267 -0.4059 0.4134, -0.5901 -0.4059 0.4134, -0.5901 0.4059 0.4134, -0.5901 0.4059 0.4134
            ]
        }
        coordIndex [
            0,1,2,-1,2,1,3,-1,4,1,5,-1,5,1,0,-1,2,3,6,-1,6,3,7,-1,
        ]
    }
}
Shape{
    appearance Appearance {
        material  Material 	{
            diffuseColor 0.25098039215686274 0.25098039215686274 0.25098039215686274
            specularColor 0.12549019607843137 0.12549019607843137 0.12549019607843137
            ambientIntensity 0.2
            transparency 0
            shininess 0.5
        }
    }
    geometry IndexedFaceSet {
        ccw TRUE
        solid FALSE
        coord DEF co Coordinate {
            point [
                0.8175 -0.5118 0.0, 0.7516 -0.4459 -0.374, 0.7617 -0.4446 -0.374, 0.8276 -0.5105 -0.0, 0.7665 -0.4429 -0.374, 0.8325 -0.5089 -0.0, 0.7711 -0.4407 -0.374, 0.837 -0.5067 -0.0, 0.7753 -0.4379 -0.374, 0.8412 -0.5039 -0.0, 0.7791 -0.4346 -0.374, 0.845 -0.5005 -0.0, 0.8483 -0.4967 -0.0, 0.7824 -0.4308 -0.374, 0.8511 -0.4925 -0.0, 0.7852 -0.4266 -0.374, 0.8534 -0.488 -0.0, 0.7874 -0.422 -0.374, 0.855 -0.4831 -0.0, 0.789 -0.4172 -0.374, 0.7903 -0.4071 -0.374, 0.8563 -0.473 0.0, 0.8563 0.473 0.0, 0.7903 0.4071 -0.374, 0.789 0.4172 -0.374, 0.855 0.4831 -0.0, 0.7874 0.422 -0.374, 0.8534 0.488 -0.0, 0.7852 0.4266 -0.374, 0.8511 0.4925 -0.0, 0.7824 0.4308 -0.374, 0.8483 0.4967 0.0, 0.7791 0.4346 -0.374, 0.845 0.5005 -0.0, 0.8412 0.5039 0.0, 0.7753 0.4379 -0.374, 0.837 0.5067 0.0, 0.7711 0.4407 -0.374, 0.8325 0.5089 -0.0, 0.7665 0.4429 -0.374, 0.8276 0.5105 0.0, 0.7617 0.4446 -0.374, 0.7516 0.4459 -0.374, 0.8175 0.5118 0.0, 0.7891 -0.4059 0.3809, 0.7878 -0.4144 0.3821, 0.7876 -0.4157 0.3823, 0.7847 -0.4224 0.383, 0.7836 -0.4249 0.3832, 0.78 -0.4295 0.3834, 0.7774 -0.4329 0.3835, 0.774 -0.4355 0.3834, 0.7694 -0.4391 0.3832, 0.7669 -0.4402 0.383, 0.7602 -0.4431 0.3823, 0.7589 -0.4433 0.3821, 0.7504 -0.4447 0.3809, 0.7504 0.4447 0.3809, 0.7589 0.4433 0.3821, 0.7602 0.4431 0.3823, 0.7669 0.4402 0.383, 0.7694 0.4391 0.3832, 0.774 0.4355 0.3834, 0.7774 0.4329 0.3835, 0.78 0.4295 0.3834, 0.7836 0.4249 0.3832, 0.7847 0.4224 0.383, 0.7876 0.4157 0.3823, 0.7878 0.4144 0.3821, 0.7891 0.4059 0.3809, 0.7866 -0.4059 0.3894, 0.7866 0.4059 0.3894, 0.7865 -0.4059 0.3896, 0.7865 0.4059 0.3896, 0.7821 -0.4059 0.3973, 0.7821 0.4059 0.3973, 0.7819 -0.4059 0.3975, 0.7819 0.4059 0.3975, 0.7758 -0.4059 0.4041, 0.7758 0.4059 0.4041, 0.7757 -0.4059 0.4042, 0.7757 0.4059 0.4042, 0.7681 -0.4059 0.4091, 0.7681 0.4059 0.4091, 0.768 -0.4059 0.4092, 0.768 0.4059 0.4092, 0.7595 -0.4059 0.4123, 0.7595 0.4059 0.4123, 0.7595 -0.4059 0.4123, 0.7595 0.4059 0.4123, 0.7504 0.4059 0.4134, 0.7504 -0.4059 0.4134, 0.7813 -0.4129 0.3973, 0.7752 -0.4115 0.4041, 0.7677 -0.4098 0.4091, 0.7593 -0.4079 0.4123, 0.7586 -0.4098 0.4123, 0.7543 -0.4141 0.4123, 0.7561 -0.413 0.4123, 0.7524 -0.4148 0.4123, 0.7857 -0.414 0.3894, 0.783 -0.4216 0.3894, 0.7787 -0.4285 0.3894, 0.773 -0.4342 0.3894, 0.7661 -0.4386 0.3894, 0.7584 -0.4412 0.3894, 0.7504 -0.4421 0.3894, 0.7504 -0.415 0.4123, 0.7643 -0.417 0.4091, 0.7615 -0.4198 0.4091, 0.7581 -0.4219 0.4091, 0.7543 -0.4232 0.4091, 0.7664 -0.4136 0.4091, 0.7575 -0.4116 0.4123, 0.7504 -0.415 0.4123, 0.7504 -0.4235 0.4092, 0.7504 -0.4237 0.4091, 0.7504 -0.4312 0.4042, 0.7733 -0.4169 0.4041, 0.7703 -0.4217 0.4041, 0.7662 -0.4258 0.4041, 0.7614 -0.4288 0.4041, 0.756 -0.4307 0.4041, 0.7789 -0.4196 0.3973, 0.7752 -0.4257 0.3973, 0.7701 -0.4307 0.3973, 0.7641 -0.4345 0.3973, 0.7574 -0.4368 0.3973, 0.7504 -0.4313 0.4041, 0.7504 -0.4374 0.3975, 0.7504 -0.4376 0.3973, 0.7504 -0.442 0.3896, -0.8563 -0.473 -0.0, -0.7903 -0.4071 -0.374, -0.789 -0.4172 -0.374, -0.855 -0.4831 -0.0, -0.7874 -0.422 -0.374, -0.8534 -0.488 -0.0, -0.7852 -0.4266 -0.374, -0.8511 -0.4925 -0.0, -0.7824 -0.4308 -0.374, -0.8483 -0.4967 -0.0, -0.7791 -0.4346 -0.374, -0.845 -0.5005 -0.0, -0.8412 -0.5039 -0.0, -0.7753 -0.4379 -0.374, -0.837 -0.5067 -0.0, -0.7711 -0.4407 -0.374, -0.8325 -0.5089 -0.0, -0.7665 -0.4429 -0.374, -0.8276 -0.5105 -0.0, -0.7617 -0.4446 -0.374, -0.7516 -0.4459 -0.374, -0.8175 -0.5118 -0.0, 0.7504 0.442 0.3896, 0.7504 0.4376 0.3973, 0.7574 0.4368 0.3973, 0.7504 0.4374 0.3975, 0.7504 0.4313 0.4041, 0.756 0.4307 0.4041, 0.7543 0.4232 0.4091, 0.7524 0.4148 0.4123, 0.7543 0.4141 0.4123, 0.7586 0.4098 0.4123, 0.7575 0.4116 0.4123, 0.7593 0.4079 0.4123, 0.7504 0.415 0.4123, 0.7584 0.4412 0.3894, 0.7661 0.4386 0.3894, 0.773 0.4342 0.3894, 0.7787 0.4285 0.3894, 0.783 0.4216 0.3894, 0.7857 0.414 0.3894, 0.7504 0.4312 0.4042, 0.7504 0.4237 0.4091, 0.7504 0.4235 0.4092, 0.7504 0.415 0.4123, 0.7615 0.4198 0.4091, 0.7643 0.417 0.4091, 0.7664 0.4136 0.4091, 0.7677 0.4098 0.4091, 0.7581 0.4219 0.4091, 0.7561 0.413 0.4123, 0.7614 0.4288 0.4041, 0.7662 0.4258 0.4041, 0.7703 0.4217 0.4041, 0.7733 0.4169 0.4041, 0.7752 0.4115 0.4041, 0.7641 0.4345 0.3973, 0.7701 0.4307 0.3973, 0.7752 0.4257 0.3973, 0.7789 0.4196 0.3973, 0.7813 0.4129 0.3973, 0.7504 0.4421 0.3894, -0.768 -0.4236 0.4092, -0.7734 -0.429 0.4059, -0.7715 -0.431 0.404, -0.7595 -0.415 0.4123, -0.5901 -0.4059 0.4134, -0.7504 -0.4059 0.4134, -0.5901 -0.4114 0.413, -0.4267 -0.4114 0.413, -0.4267 -0.4059 0.4134, -0.758 -0.4419 0.3896, -0.7504 -0.4447 0.3809, -0.7588 -0.4416 0.3905, -0.7652 -0.4373 0.3974, -0.7666 -0.4363 0.399, -0.7755 -0.427 0.404, -0.7808 -0.4222 0.399, -0.7818 -0.4207 0.3974, -0.7861 -0.4143 0.3905, -0.7864 -0.4135 0.3896, -0.7891 -0.4059 0.3809, -0.7715 0.431 0.404, -0.7734 0.429 0.4059, -0.768 0.4236 0.4092, -0.7652 0.4373 0.3974, -0.7666 0.4363 0.399, -0.7587 0.4415 0.3904, -0.758 0.442 0.3896, -0.7504 0.4447 0.3809, -0.7504 0.4059 0.4134, -0.5901 0.4059 0.4134, -0.7595 0.415 0.4123, -0.5901 0.4114 0.413, -0.4267 0.4059 0.4134, -0.4267 0.4114 0.413, -0.7755 0.427 0.404, -0.7808 0.4222 0.399, -0.7818 0.4207 0.3974, -0.7861 0.4143 0.3905, -0.7864 0.4135 0.3896, -0.7891 0.4059 0.3809, -0.855 0.4831 0.0, -0.8563 0.473 0.0, -0.8534 0.488 0.0, -0.8511 0.4925 0.0, -0.8483 0.4967 0.0, -0.845 0.5005 0.0, -0.8276 0.5105 0.0, -0.8325 0.5089 0.0, -0.837 0.5067 0.0, -0.8412 0.5039 0.0, -0.8175 0.5118 0.0, -0.7516 0.4459 -0.374, -0.7617 0.4446 -0.374, -0.7665 0.4429 -0.374, -0.7711 0.4407 -0.374, -0.7753 0.4379 -0.374, -0.7791 0.4346 -0.374, -0.7824 0.4308 -0.374, -0.7852 0.4266 -0.374, -0.7874 0.422 -0.374, -0.789 0.4172 -0.374, -0.7903 0.4071 -0.374, -0.7903 0.4071 -0.374
            ]
        }
        coordIndex [
            0,1,2,-1,0,2,3,-1,3,2,4,-1,3,4,5,-1,5,4,6,-1,5,6,7,-1,7,6,8,-1,7,8,9,-1,9,8,10,-1,9,10,11,-1,11,10,12,-1,12,10,13,-1,12,13,14,-1,14,13,15,-1,14,15,16,-1,16,15,17,-1,16,17,18,-1,17,19,18,-1,18,19,20,-1,18,20,21,-1,22,23,24,-1,22,24,25,-1,25,24,26,-1,25,26,27,-1,27,26,28,-1,27,28,29,-1,29,28,30,-1,29,30,31,-1,31,30,32,-1,31,32,33,-1,33,32,34,-1,34,32,35,-1,34,35,36,-1,36,35,37,-1,36,37,38,-1,38,37,39,-1,38,39,40,-1,39,41,40,-1,40,41,42,-1,40,42,43,-1,21,44,45,-1,21,45,18,-1,18,45,46,-1,18,46,16,-1,16,46,47,-1,16,47,14,-1,14,47,48,-1,14,48,12,-1,12,48,49,-1,12,49,11,-1,11,49,50,-1,11,50,9,-1,9,50,51,-1,9,51,7,-1,7,51,52,-1,7,52,5,-1,5,52,53,-1,5,53,3,-1,3,53,54,-1,3,54,0,-1,0,54,55,-1,0,55,56,-1,43,57,58,-1,43,58,40,-1,40,58,59,-1,40,59,38,-1,38,59,60,-1,38,60,36,-1,36,60,61,-1,36,61,34,-1,34,61,62,-1,34,62,33,-1,33,62,63,-1,33,63,31,-1,31,63,64,-1,31,64,29,-1,29,64,65,-1,29,65,27,-1,27,65,66,-1,27,66,25,-1,25,66,67,-1,25,67,22,-1,22,67,68,-1,22,68,69,-1,44,69,70,-1,70,69,71,-1,70,71,72,-1,72,71,73,-1,72,73,74,-1,74,73,75,-1,74,75,76,-1,76,75,77,-1,76,77,78,-1,78,77,79,-1,78,79,80,-1,80,79,81,-1,80,81,82,-1,82,81,83,-1,82,83,84,-1,84,83,85,-1,84,85,86,-1,86,85,87,-1,86,87,88,-1,87,89,88,-1,88,89,90,-1,88,90,91,-1,72,74,92,-1,76,78,93,-1,94,95,96,-1,91,97,98,-1,99,97,91,-1,96,95,91,-1,88,91,95,-1,45,100,46,-1,46,100,101,-1,46,101,47,-1,47,101,48,-1,48,101,102,-1,48,102,49,-1,49,102,50,-1,50,102,103,-1,50,103,51,-1,51,103,52,-1,52,103,104,-1,52,104,53,-1,53,104,54,-1,54,104,105,-1,54,105,55,-1,55,105,106,-1,55,106,56,-1,107,99,91,-1,80,82,94,-1,94,82,84,-1,94,84,95,-1,95,84,86,-1,95,86,88,-1,108,98,109,-1,109,98,97,-1,109,97,110,-1,110,97,99,-1,110,99,111,-1,78,80,93,-1,93,80,94,-1,93,94,112,-1,112,94,96,-1,112,96,113,-1,113,96,91,-1,107,114,99,-1,99,114,115,-1,99,115,111,-1,111,115,116,-1,111,116,117,-1,118,108,119,-1,119,108,109,-1,119,109,120,-1,120,109,110,-1,120,110,121,-1,121,110,111,-1,121,111,122,-1,122,111,117,-1,92,118,123,-1,123,118,119,-1,123,119,124,-1,124,119,120,-1,124,120,125,-1,125,120,121,-1,125,121,126,-1,126,121,122,-1,126,122,127,-1,74,76,92,-1,92,76,93,-1,92,93,118,-1,118,93,112,-1,118,112,108,-1,108,112,113,-1,108,113,98,-1,98,113,91,-1,45,44,100,-1,100,44,70,-1,100,70,72,-1,117,128,122,-1,122,128,129,-1,122,129,127,-1,127,129,130,-1,127,130,131,-1,72,92,100,-1,100,92,123,-1,100,123,101,-1,101,123,124,-1,101,124,102,-1,102,124,125,-1,102,125,103,-1,103,125,126,-1,103,126,104,-1,104,126,127,-1,104,127,105,-1,105,127,131,-1,105,131,106,-1,132,133,134,-1,132,134,135,-1,135,134,136,-1,135,136,137,-1,137,136,138,-1,137,138,139,-1,139,138,140,-1,139,140,141,-1,141,140,142,-1,141,142,143,-1,143,142,144,-1,144,142,145,-1,144,145,146,-1,146,145,147,-1,146,147,148,-1,148,147,149,-1,148,149,150,-1,149,151,150,-1,150,151,152,-1,150,152,153,-1,154,155,156,-1,157,158,159,-1,160,161,162,-1,90,163,164,-1,165,163,90,-1,162,161,90,-1,166,90,161,-1,58,167,59,-1,59,167,168,-1,63,62,169,-1,169,62,61,-1,169,61,168,-1,168,61,60,-1,168,60,59,-1,63,169,64,-1,64,169,170,-1,64,170,65,-1,65,170,171,-1,65,171,66,-1,66,171,67,-1,67,171,172,-1,67,172,68,-1,68,172,71,-1,68,71,69,-1,89,165,90,-1,173,174,160,-1,160,174,175,-1,160,175,161,-1,161,175,176,-1,161,176,166,-1,177,164,178,-1,178,164,163,-1,178,163,179,-1,179,163,165,-1,179,165,180,-1,158,173,159,-1,159,173,160,-1,159,160,181,-1,181,160,162,-1,181,162,182,-1,182,162,90,-1,89,87,165,-1,165,87,85,-1,165,85,180,-1,180,85,83,-1,180,83,81,-1,183,177,184,-1,184,177,178,-1,184,178,185,-1,185,178,179,-1,185,179,186,-1,186,179,180,-1,186,180,187,-1,187,180,81,-1,156,183,188,-1,188,183,184,-1,188,184,189,-1,189,184,185,-1,189,185,190,-1,190,185,186,-1,190,186,191,-1,191,186,187,-1,191,187,192,-1,155,157,156,-1,156,157,159,-1,156,159,183,-1,183,159,181,-1,183,181,177,-1,177,181,182,-1,177,182,164,-1,164,182,90,-1,58,57,167,-1,167,57,193,-1,167,193,154,-1,81,79,187,-1,187,79,77,-1,187,77,192,-1,192,77,75,-1,192,75,73,-1,154,156,167,-1,167,156,188,-1,167,188,168,-1,168,188,189,-1,168,189,169,-1,169,189,190,-1,169,190,170,-1,170,190,191,-1,170,191,171,-1,171,191,192,-1,171,192,172,-1,172,192,73,-1,172,73,71,-1,194,195,196,-1,194,115,197,-1,197,115,114,-1,197,114,107,-1,198,199,200,-1,200,199,197,-1,200,197,201,-1,201,197,107,-1,201,107,202,-1,202,107,91,-1,203,204,56,-1,56,106,203,-1,203,106,131,-1,203,131,205,-1,205,131,130,-1,205,130,206,-1,206,130,129,-1,206,129,207,-1,207,129,128,-1,207,128,196,-1,196,128,117,-1,196,117,194,-1,194,117,116,-1,194,116,115,-1,150,153,204,-1,204,203,150,-1,150,203,205,-1,150,205,148,-1,148,205,206,-1,148,206,146,-1,146,206,207,-1,146,207,144,-1,144,207,196,-1,144,196,143,-1,143,196,195,-1,143,195,208,-1,135,137,209,-1,209,137,139,-1,209,139,208,-1,208,139,141,-1,208,141,143,-1,209,210,135,-1,135,210,211,-1,135,211,132,-1,132,211,212,-1,132,212,213,-1,214,215,216,-1,217,218,173,-1,173,218,214,-1,173,214,174,-1,174,214,216,-1,174,216,175,-1,173,158,217,-1,217,158,157,-1,217,157,219,-1,219,157,220,-1,157,155,220,-1,220,155,154,-1,220,154,221,-1,221,154,193,-1,221,193,57,-1,222,223,224,-1,224,223,225,-1,226,90,227,-1,227,90,166,-1,225,227,224,-1,224,227,166,-1,224,166,216,-1,216,166,176,-1,216,176,175,-1,216,215,228,-1,228,194,216,-1,216,194,197,-1,216,197,224,-1,224,197,199,-1,224,199,222,-1,195,194,208,-1,208,194,228,-1,208,228,209,-1,209,228,229,-1,209,229,210,-1,210,229,230,-1,210,230,211,-1,211,230,231,-1,211,231,212,-1,231,232,212,-1,212,232,233,-1,212,233,213,-1,234,235,233,-1,233,232,234,-1,234,232,231,-1,234,231,236,-1,236,231,230,-1,236,230,237,-1,237,230,229,-1,237,229,238,-1,238,229,228,-1,238,228,239,-1,239,228,215,-1,239,215,214,-1,218,217,240,-1,240,241,218,-1,218,241,242,-1,218,242,214,-1,214,242,243,-1,214,243,239,-1,221,244,220,-1,220,244,240,-1,220,240,219,-1,219,240,217,-1,244,245,246,-1,244,246,240,-1,240,246,247,-1,240,247,241,-1,241,247,248,-1,241,248,242,-1,242,248,249,-1,242,249,243,-1,243,249,250,-1,243,250,239,-1,239,250,238,-1,238,250,251,-1,238,251,237,-1,237,251,252,-1,237,252,236,-1,236,252,253,-1,236,253,234,-1,253,254,234,-1,234,254,255,-1,234,255,235,-1,
        ]
    }
}