#VRML V2.0 utf8
# 3D model generated by easyeda2kicad.py (https://github.com/uPesy/easyeda2kicad.py)

Shape{
    appearance Appearance {
        material  Material 	{
            diffuseColor 0.9686274509803922 0.9686274509803922 0.9686274509803922
            specularColor 0.48627450980392156 0.48627450980392156 0.48627450980392156
            ambientIntensity 0.2
            transparency 0
            shininess 0.5
        }
    }
    geometry IndexedFaceSet {
        ccw TRUE
        solid FALSE
        coord DEF co Coordinate {
            point [
                -0.4232 0.5118 0.0551, -0.4232 0.3543 0.0551, -0.4232 0.5118 -0.0039, -0.4232 0.3543 -0.0039, -0.7874 0.5118 0.0551, -0.7874 0.5118 -0.0039, -0.7874 0.3543 0.0551, -0.7874 0.3543 -0.0039, 0.4232 0.3543 0.0551, 0.4232 0.5118 0.0551, 0.4232 0.3543 -0.0039, 0.4232 0.5118 -0.0039, 0.7874 0.3543 0.0551, 0.7874 0.3543 -0.0039, 0.7874 0.5118 0.0551, 0.7874 0.5118 -0.0039, -0.4232 -0.3543 0.0551, -0.4232 -0.5118 0.0551, -0.4232 -0.3543 -0.0039, -0.4232 -0.5118 -0.0039, -0.7874 -0.3543 0.0551, -0.7874 -0.3543 -0.0039, -0.7874 -0.5118 0.0551, -0.7874 -0.5118 -0.0039, 0.4232 -0.5118 0.0551, 0.4232 -0.3543 0.0551, 0.4232 -0.5118 -0.0039, 0.4232 -0.3543 -0.0039, 0.7874 -0.5118 0.0551, 0.7874 -0.5118 -0.0039, 0.7874 -0.3543 0.0551, 0.7874 -0.3543 -0.0039, 0.7874 -0.3543 -0.0039
            ]
        }
        coordIndex [
            0,1,2,-1,2,1,3,-1,4,0,5,-1,5,0,2,-1,6,4,7,-1,7,4,5,-1,1,6,3,-1,3,6,7,-1,4,6,0,-1,0,6,1,-1,7,5,3,-1,3,5,2,-1,8,9,10,-1,10,9,11,-1,12,8,13,-1,13,8,10,-1,14,12,15,-1,15,12,13,-1,9,14,11,-1,11,14,15,-1,12,14,8,-1,8,14,9,-1,15,13,11,-1,11,13,10,-1,16,17,18,-1,18,17,19,-1,20,16,21,-1,21,16,18,-1,22,20,23,-1,23,20,21,-1,17,22,19,-1,19,22,23,-1,20,22,16,-1,16,22,17,-1,23,21,19,-1,19,21,18,-1,24,25,26,-1,26,25,27,-1,28,24,29,-1,29,24,26,-1,30,28,31,-1,31,28,29,-1,25,30,27,-1,27,30,31,-1,28,30,24,-1,24,30,25,-1,31,29,27,-1,27,29,26,-1,
        ]
    }
}
Shape{
    appearance Appearance {
        material  Material 	{
            diffuseColor 0.19607843137254902 0.19607843137254902 0.19607843137254902
            specularColor 0.09803921568627451 0.09803921568627451 0.09803921568627451
            ambientIntensity 0.2
            transparency 0
            shininess 0.5
        }
    }
    geometry IndexedFaceSet {
        ccw TRUE
        solid FALSE
        coord DEF co Coordinate {
            point [
                0.555 0.4921 0.0, 0.555 0.6102 0.0, 0.5709 0.6102 0.0, 0.3735 0.6102 0.0, 0.4133 0.6102 0.0, 0.4047 0.6079 0.0, 0.3966 0.6041 0.0, 0.3966 0.5912 0.0, 0.3735 0.4921 0.0, 0.4674 0.5652 0.0, 0.4686 0.5524 0.0, 0.3987 0.5923 0.0, 0.4642 0.5754 0.0, 0.2538 0.4921 0.0, 0.2871 0.4921 0.0, 0.4244 0.4907 0.0, 0.4726 0.592 0.0, 0.4945 0.6102 0.0, 0.4791 0.5811 0.0, 0.4945 0.5973 0.0, 0.4637 0.6008 0.0, 0.454 0.6067 0.0, 0.4433 0.6102 0.0, 0.4827 0.5366 0.0, 0.4844 0.5534 0.0, 0.483 0.5686 0.0, 0.2871 0.6102 0.0, 0.3102 0.5973 0.0, 0.3102 0.6102 0.0, -0.6102 0.1996 0.0, 0.5392 0.4921 0.0, 0.6102 0.1996 0.0, 0.6102 0.5709 0.0, 0.4112 0.597 0.0, 0.4269 0.5987 0.0, 0.4538 0.5894 0.0, 0.4379 0.5975 0.0, 0.4465 0.5943 0.0, 0.4593 0.5836 0.0, 0.4681 0.5436 0.0, 0.465 0.5308 0.0, 0.4601 0.5217 0.0, 0.453 0.5137 0.0, 0.4447 0.5081 0.0, 0.4359 0.505 0.0, 0.4608 0.5021 0.0, 0.4711 0.512 0.0, 0.1834 0.6102 0.0, 0.255 0.6102 0.0, 0.24 0.6089 0.0, 0.2066 0.5107 0.0, 0.2112 0.5064 0.0, 0.1388 0.4921 0.0, 0.2229 0.4988 0.0, 0.2367 0.494 0.0, 0.3159 0.544 0.0, 0.3159 0.5569 0.0, 0.3577 0.5569 0.0, 0.3577 0.5973 0.0, 0.2264 0.6048 0.0, 0.2142 0.5976 0.0, 0.2046 0.5882 0.0, 0.5392 0.5973 0.0, 0.4782 0.5232 0.0, 0.1923 0.5439 0.0, 0.1946 0.5314 0.0, 0.1995 0.5199 0.0, -0.5709 0.6102 0.0, 0.0768 0.6102 0.0, -0.6102 0.5709 0.0, 0.1229 0.4921 0.0, 0.4368 0.4918 0.0, 0.4498 0.4956 0.0, 0.3966 0.4954 0.0, 0.3966 0.5112 0.0, 0.4099 0.5055 0.0, 0.4242 0.5036 0.0, 0.3577 0.544 0.0, 0.3577 0.5051 0.0, 0.313 0.5051 0.0, 0.313 0.4921 0.0, 0.4102 0.4917 0.0, 0.1979 0.5778 0.0, 0.1937 0.5655 0.0, 0.192 0.5497 0.0, 0.1548 0.5771 0.0, 0.1061 0.5771 0.0, 0.1661 0.6102 0.0, 0.0941 0.6102 0.0, 0.6102 0.1996 0.0787, 0.6102 0.5709 0.315, 0.6102 -0.1996 0.0787, 0.6102 -0.5709 0.315, 0.6102 -0.1996 0.0, 0.6102 -0.5709 0.0, 0.4133 0.6102 0.0039, 0.3735 0.6102 0.0039, 0.4945 0.6102 0.0039, 0.5709 0.6102 0.315, 0.555 0.6102 0.0039, 0.4433 0.6102 0.0039, -0.5709 0.6102 0.315, 0.3102 0.6102 0.0039, 0.255 0.6102 0.0039, 0.1834 0.6102 0.0039, 0.1661 0.6102 0.0039, 0.2871 0.6102 0.0039, 0.0768 0.6102 0.0039, 0.0941 0.6102 0.0039, -0.6102 -0.1996 0.0, -0.6102 -0.5709 0.0, -0.6102 -0.1996 0.0787, -0.6102 -0.5709 0.315, -0.6102 0.1996 0.0787, -0.6102 0.5709 0.315, 0.5709 -0.6102 0.315, -0.5709 -0.6102 0.315, 0.5709 -0.6102 0.0, -0.5709 -0.6102 0.0, -0.2094 -0.5522 0.315, -0.2744 -0.5229 0.315, -0.1413 -0.5734 0.315, 0.5862 -0.0712 0.315, 0.5906 0.0 0.315, 0.5862 0.0712 0.315, 0.5734 0.1413 0.315, 0.5734 -0.1413 0.315, 0.5522 -0.2094 0.315, 0.5229 -0.2744 0.315, 0.3355 -0.486 0.315, 0.2744 -0.5229 0.315, 0.2094 -0.5522 0.315, 0.1413 -0.5734 0.315, -0.3355 -0.486 0.315, -0.3916 -0.442 0.315, -0.442 -0.3916 0.315, -0.486 -0.3355 0.315, 0.0712 -0.5862 0.315, -0.0 -0.5906 0.315, -0.0712 -0.5862 0.315, -0.3355 0.486 0.315, -0.2744 0.5229 0.315, -0.2094 0.5522 0.315, -0.1413 0.5734 0.315, 0.2744 0.5229 0.315, 0.2094 0.5522 0.315, 0.1413 0.5734 0.315, 0.3355 0.486 0.315, 0.3916 0.442 0.315, 0.442 0.3916 0.315, 0.486 0.3355 0.315, 0.5229 0.2744 0.315, 0.5522 0.2094 0.315, 0.486 -0.3355 0.315, 0.442 -0.3916 0.315, 0.3916 -0.442 0.315, -0.5229 -0.2744 0.315, -0.5522 -0.2094 0.315, -0.5734 -0.1413 0.315, -0.5862 -0.0712 0.315, -0.5906 0.0 0.315, -0.5862 0.0712 0.315, -0.0712 0.5862 0.315, -0.0 0.5906 0.315, 0.0712 0.5862 0.315, -0.5734 0.1413 0.315, -0.5522 0.2094 0.315, -0.5229 0.2744 0.315, -0.486 0.3355 0.315, -0.442 0.3916 0.315, -0.3916 0.442 0.315, -0.4231 0.1996 0.0394, -0.4231 0.1996 0.0787, 0.4231 0.1996 0.0787, 0.4231 0.1996 0.0394, 0.4231 -0.1996 0.0787, 0.4231 -0.1996 0.0394, -0.4231 -0.1996 0.0394, -0.4231 -0.1996 0.0787, 0.0484 -0.1156 0.0394, -0.0484 -0.1156 0.0394, -0.0484 0.1156 0.0394, 0.0484 0.1156 0.0394, 0.0484 -0.1156 0.0787, 0.0484 0.1156 0.0787, -0.0484 0.1156 0.0787, -0.0484 -0.1156 0.0787, 0.4945 0.5973 0.0039, 0.5392 0.5973 0.0039, 0.5392 0.4921 0.0039, 0.555 0.4921 0.0039, 0.1548 0.5771 0.0039, 0.1509 0.5641 0.0039, 0.1061 0.5771 0.0039, 0.1114 0.5641 0.0039, 0.1291 0.5148 0.0039, 0.1229 0.4921 0.0039, 0.1302 0.5107 0.0039, 0.131 0.5065 0.0039, 0.1388 0.4921 0.0039, 0.1314 0.5065 0.0039, 0.1321 0.5107 0.0039, 0.1332 0.5148 0.0039, 0.1114 0.5641 -0.0, 0.1509 0.5641 -0.0, 0.1291 0.5148 -0.0, 0.1302 0.5107 -0.0, 0.131 0.5065 -0.0, 0.1314 0.5065 -0.0, 0.1321 0.5107 -0.0, 0.1332 0.5148 -0.0, 0.1995 0.5199 0.0039, 0.1946 0.5314 0.0039, 0.2089 0.5383 0.0039, 0.1923 0.5439 0.0039, 0.2079 0.55 0.0039, 0.192 0.5497 0.0039, 0.2094 0.5642 0.0039, 0.1937 0.5655 0.0039, 0.2125 0.5736 0.0039, 0.1979 0.5778 0.0039, 0.2174 0.5817 0.0039, 0.2046 0.5882 0.0039, 0.2241 0.5883 0.0039, 0.2142 0.5976 0.0039, 0.2321 0.593 0.0039, 0.2264 0.6048 0.0039, 0.242 0.5961 0.0039, 0.24 0.6089 0.0039, 0.2545 0.5973 0.0039, 0.2713 0.5973 0.0039, 0.2713 0.5051 0.0039, 0.2871 0.4921 0.0039, 0.2539 0.5051 0.0039, 0.2538 0.4921 0.0039, 0.2398 0.5066 0.0039, 0.2367 0.494 0.0039, 0.23 0.51 0.0039, 0.2229 0.4988 0.0039, 0.2214 0.5156 0.0039, 0.2112 0.5064 0.0039, 0.2157 0.5217 0.0039, 0.2066 0.5107 0.0039, 0.2117 0.5289 0.0039, 0.2713 0.5051 -0.0, 0.2539 0.5051 -0.0, 0.2713 0.5973 -0.0, 0.2545 0.5973 -0.0, 0.242 0.5961 -0.0, 0.2321 0.593 -0.0, 0.2241 0.5883 -0.0, 0.2174 0.5817 -0.0, 0.2125 0.5736 -0.0, 0.2094 0.5642 -0.0, 0.2079 0.55 -0.0, 0.2089 0.5383 -0.0, 0.2117 0.5289 -0.0, 0.2157 0.5217 -0.0, 0.2214 0.5156 -0.0, 0.23 0.51 -0.0, 0.2398 0.5066 -0.0, 0.3102 0.5973 0.0039, 0.3577 0.5973 0.0039, 0.3577 0.5569 0.0039, 0.3159 0.5569 0.0039, 0.3159 0.544 0.0039, 0.3577 0.544 0.0039, 0.3577 0.5051 0.0039, 0.313 0.5051 0.0039, 0.313 0.4921 0.0039, 0.3735 0.4921 0.0039, 0.454 0.6067 0.0039, 0.4637 0.6008 0.0039, 0.4726 0.592 0.0039, 0.4791 0.5811 0.0039, 0.483 0.5686 0.0039, 0.4844 0.5534 0.0039, 0.3966 0.6041 0.0039, 0.4047 0.6079 0.0039, 0.3966 0.4954 0.0039, 0.3966 0.5112 0.0039, 0.4102 0.4917 0.0039, 0.4099 0.5055 0.0039, 0.4244 0.4907 0.0039, 0.4242 0.5036 0.0039, 0.4368 0.4918 0.0039, 0.4359 0.505 0.0039, 0.4498 0.4956 0.0039, 0.4447 0.5081 0.0039, 0.4608 0.5021 0.0039, 0.453 0.5137 0.0039, 0.4711 0.512 0.0039, 0.4601 0.5217 0.0039, 0.4782 0.5232 0.0039, 0.465 0.5308 0.0039, 0.4827 0.5366 0.0039, 0.4681 0.5436 0.0039, 0.4686 0.5524 0.0039, 0.4674 0.5652 0.0039, 0.4642 0.5754 0.0039, 0.4593 0.5836 0.0039, 0.4538 0.5894 0.0039, 0.4465 0.5943 0.0039, 0.4379 0.5975 0.0039, 0.4269 0.5987 0.0039, 0.4112 0.597 0.0039, 0.3987 0.5923 0.0039, 0.3966 0.5912 0.0039, 0.5906 -0.0 0.311, 0.5862 0.0712 0.311, 0.5734 0.1413 0.311, 0.5522 0.2094 0.311, 0.5229 0.2744 0.311, 0.486 0.3355 0.311, 0.442 0.3916 0.311, 0.3916 0.442 0.311, 0.3355 0.486 0.311, 0.2744 0.5229 0.311, 0.2094 0.5522 0.311, 0.1413 0.5734 0.311, 0.0712 0.5862 0.311, -0.0 0.5906 0.311, -0.0712 0.5862 0.311, -0.1413 0.5734 0.311, -0.2094 0.5522 0.311, -0.2744 0.5229 0.311, -0.3355 0.486 0.311, -0.3916 0.442 0.311, -0.442 0.3916 0.311, -0.486 0.3355 0.311, -0.5229 0.2744 0.311, -0.5522 0.2094 0.311, -0.5734 0.1413 0.311, -0.5862 0.0712 0.311, -0.5906 0.0 0.311, -0.5862 -0.0712 0.311, -0.5734 -0.1413 0.311, -0.5522 -0.2094 0.311, -0.5229 -0.2744 0.311, -0.486 -0.3355 0.311, -0.442 -0.3916 0.311, -0.3916 -0.442 0.311, -0.3355 -0.486 0.311, -0.2744 -0.5229 0.311, -0.2094 -0.5522 0.311, -0.1413 -0.5734 0.311, -0.0712 -0.5862 0.311, -0.0 -0.5906 0.311, 0.0712 -0.5862 0.311, 0.1413 -0.5734 0.311, 0.2094 -0.5522 0.311, 0.2744 -0.5229 0.311, 0.3355 -0.486 0.311, 0.3916 -0.442 0.311, 0.442 -0.3916 0.311, 0.486 -0.3355 0.311, 0.5229 -0.2744 0.311, 0.5522 -0.2094 0.311, 0.5734 -0.1413 0.311, 0.5862 -0.0712 0.311, 0.2072 -0.468 0.311, 0.2653 -0.4377 0.311, 0.3191 -0.4002 0.311, 0.3677 -0.3561 0.311, 0.4102 -0.3061 0.311, 0.446 -0.2512 0.311, 0.4744 -0.1921 0.311, 0.4951 -0.1298 0.311, 0.5076 -0.0654 0.311, 0.5118 0.0 0.311, 0.5076 0.0654 0.311, 0.4951 0.1298 0.311, 0.4744 0.1921 0.311, 0.446 0.2512 0.311, 0.4102 0.3061 0.311, 0.3677 0.3561 0.311, 0.3191 0.4002 0.311, 0.2653 0.4377 0.311, 0.2072 0.468 0.311, 0.1456 0.4907 0.311, 0.0817 0.5053 0.311, 0.0164 0.5115 0.311, -0.0491 0.5094 0.311, -0.1139 0.499 0.311, -0.1768 0.4803 0.311, -0.2367 0.4538 0.311, -0.2928 0.4198 0.311, -0.3441 0.3789 0.311, -0.3897 0.3318 0.311, -0.4289 0.2792 0.311, -0.4611 0.2221 0.311, -0.4857 0.1613 0.311, -0.5024 0.0978 0.311, -0.5108 0.0328 0.311, -0.5108 -0.0328 0.311, -0.5024 -0.0978 0.311, -0.4857 -0.1613 0.311, -0.4611 -0.2221 0.311, -0.4289 -0.2792 0.311, -0.3897 -0.3318 0.311, -0.3441 -0.3789 0.311, -0.2928 -0.4198 0.311, -0.2367 -0.4538 0.311, -0.1768 -0.4803 0.311, -0.1139 -0.499 0.311, -0.0491 -0.5094 0.311, 0.0164 -0.5115 0.311, 0.0817 -0.5053 0.311, 0.1456 -0.4907 0.311, 0.5074 -0.0654 0.315, 0.5113 -0.0233 0.315, 0.507 -0.0697 0.315, 0.4986 -0.1155 0.315, 0.4946 -0.1297 0.315, 0.486 -0.1604 0.315, 0.449 -0.2457 0.315, 0.4694 -0.2039 0.315, 0.474 -0.1919 0.315, 0.4457 -0.251 0.315, 0.4247 -0.2856 0.315, 0.3676 -0.356 0.315, 0.397 -0.323 0.315, 0.4097 -0.3058 0.315, 0.366 -0.3578 0.315, 0.332 -0.3896 0.315, 0.3188 -0.3998 0.315, 0.2952 -0.4181 0.315, 0.2651 -0.4374 0.315, 0.2559 -0.4432 0.315, 0.2145 -0.4647 0.315, 0.2071 -0.4677 0.315, 0.1714 -0.4823 0.315, 0.0817 -0.5052 0.315, 0.1268 -0.4958 0.315, 0.1455 -0.4902 0.315, 0.0812 -0.5053 0.315, 0.0349 -0.5106 0.315, 0.0164 -0.511 0.315, -0.0117 -0.5117 0.315, -0.0491 -0.5091 0.315, -0.0581 -0.5085 0.315, -0.1041 -0.5011 0.315, -0.1138 -0.4986 0.315, -0.1493 -0.4896 0.315, -0.2355 -0.4544 0.315, -0.1932 -0.474 0.315, -0.1766 -0.4798 0.315, -0.2367 -0.4537 0.315, -0.2758 -0.4311 0.315, -0.2925 -0.4193 0.315, -0.3139 -0.4043 0.315, -0.3439 -0.3787 0.315, -0.3493 -0.374 0.315, -0.3819 -0.3407 0.315, -0.3894 -0.3315 0.315, -0.4113 -0.3046 0.315, -0.4597 -0.2251 0.315, -0.4373 -0.2659 0.315, -0.4285 -0.2789 0.315, -0.461 -0.222 0.315, -0.4782 -0.1823 0.315, -0.5022 -0.0978 0.315, -0.4928 -0.1381 0.315, -0.4852 -0.1611 0.315, -0.5033 -0.0927 0.315, -0.5097 -0.0465 0.315, -0.5103 -0.0328 0.315, -0.5118 0.0 0.315, -0.5033 0.0927 0.315, -0.5097 0.0465 0.315, -0.5103 0.0328 0.315, -0.5022 0.0978 0.315, -0.4928 0.1381 0.315, -0.461 0.222 0.315, -0.4782 0.1823 0.315, -0.4852 0.1611 0.315, -0.4597 0.2251 0.315, -0.4373 0.2659 0.315, -0.4285 0.2789 0.315, -0.4113 0.3046 0.315, -0.3894 0.3315 0.315, -0.3819 0.3407 0.315, -0.3493 0.374 0.315, -0.3439 0.3787 0.315, -0.3139 0.4043 0.315, -0.2367 0.4537 0.315, -0.2758 0.4311 0.315, -0.2925 0.4193 0.315, -0.2355 0.4544 0.315, -0.1932 0.474 0.315, -0.1766 0.4798 0.315, -0.1493 0.4896 0.315, -0.1138 0.4986 0.315, -0.1041 0.5011 0.315, -0.0581 0.5085 0.315, -0.0491 0.5091 0.315, -0.0117 0.5117 0.315, 0.0812 0.5053 0.315, 0.0349 0.5106 0.315, 0.0164 0.511 0.315, 0.0817 0.5052 0.315, 0.1268 0.4958 0.315, 0.1455 0.4902 0.315, 0.1714 0.4823 0.315, 0.2071 0.4677 0.315, 0.2145 0.4647 0.315, 0.2559 0.4432 0.315, 0.2651 0.4374 0.315, 0.2952 0.4181 0.315, 0.366 0.3578 0.315, 0.332 0.3896 0.315, 0.3188 0.3998 0.315, 0.3676 0.356 0.315, 0.397 0.323 0.315, 0.4457 0.251 0.315, 0.4247 0.2856 0.315, 0.4097 0.3058 0.315, 0.486 0.1604 0.315, 0.449 0.2457 0.315, 0.4694 0.2039 0.315, 0.474 0.1919 0.315, 0.507 0.0697 0.315, 0.4986 0.1155 0.315, 0.4946 0.1297 0.315, 0.5074 0.0654 0.315, 0.5113 0.0233 0.315, 0.5118 0.0 0.315, 0.5118 0.0 0.315
            ]
        }
        coordIndex [
            0,1,2,-1,3,4,5,-1,5,6,3,-1,3,6,7,-1,3,7,8,-1,9,10,11,-1,9,11,12,-1,13,14,15,-1,16,17,18,-1,18,17,19,-1,16,20,17,-1,17,20,21,-1,17,21,22,-1,23,24,19,-1,19,24,25,-1,19,25,18,-1,14,26,27,-1,27,26,28,-1,29,30,31,-1,31,30,0,-1,31,0,32,-1,32,0,2,-1,33,34,35,-1,35,34,36,-1,35,36,37,-1,33,35,11,-1,11,35,38,-1,11,38,12,-1,10,39,11,-1,11,39,40,-1,11,40,41,-1,41,42,11,-1,11,42,43,-1,11,43,44,-1,45,46,30,-1,47,48,49,-1,50,51,52,-1,52,51,53,-1,52,53,54,-1,55,14,56,-1,56,14,27,-1,56,27,57,-1,57,27,58,-1,49,59,47,-1,47,59,60,-1,47,60,61,-1,19,62,23,-1,23,62,30,-1,23,30,63,-1,63,30,46,-1,64,65,52,-1,52,65,66,-1,52,66,50,-1,67,68,69,-1,69,68,70,-1,69,70,29,-1,29,70,52,-1,54,13,52,-1,52,13,15,-1,52,15,29,-1,29,15,71,-1,29,71,30,-1,30,71,72,-1,30,72,45,-1,73,8,74,-1,74,8,7,-1,74,7,75,-1,75,7,11,-1,75,11,76,-1,76,11,44,-1,77,78,55,-1,55,78,79,-1,55,79,14,-1,14,79,80,-1,14,80,15,-1,15,80,8,-1,15,8,81,-1,81,8,73,-1,61,82,47,-1,47,82,83,-1,47,83,52,-1,52,83,84,-1,52,84,64,-1,85,86,87,-1,87,86,88,-1,31,32,89,-1,89,32,90,-1,89,90,91,-1,91,90,92,-1,91,92,93,-1,93,92,94,-1,4,3,95,-1,95,3,96,-1,97,98,99,-1,99,98,2,-1,99,2,1,-1,17,22,97,-1,97,22,100,-1,97,100,98,-1,98,100,95,-1,98,95,101,-1,101,95,96,-1,101,96,102,-1,103,48,47,-1,104,105,101,-1,47,104,103,-1,103,104,101,-1,103,101,106,-1,106,101,102,-1,106,102,26,-1,26,102,28,-1,68,67,107,-1,107,67,101,-1,107,101,108,-1,108,101,105,-1,108,105,88,-1,88,105,87,-1,109,110,111,-1,111,110,112,-1,111,112,113,-1,113,112,114,-1,113,114,29,-1,29,114,69,-1,115,116,117,-1,117,116,118,-1,119,120,116,-1,119,116,121,-1,122,92,123,-1,123,92,90,-1,123,90,124,-1,124,90,125,-1,122,126,92,-1,92,126,127,-1,92,127,128,-1,129,130,115,-1,115,130,131,-1,115,131,132,-1,120,133,116,-1,116,133,134,-1,116,134,112,-1,112,134,135,-1,112,135,136,-1,132,137,115,-1,115,137,138,-1,115,138,116,-1,116,138,139,-1,116,139,121,-1,140,141,101,-1,101,141,142,-1,101,142,143,-1,144,98,145,-1,145,98,146,-1,144,147,98,-1,98,147,148,-1,98,148,90,-1,90,148,149,-1,90,149,150,-1,150,151,90,-1,90,151,152,-1,90,152,125,-1,128,153,92,-1,92,153,154,-1,92,154,115,-1,115,154,155,-1,115,155,129,-1,136,156,112,-1,112,156,157,-1,112,157,158,-1,158,159,112,-1,112,159,160,-1,112,160,114,-1,114,160,161,-1,143,162,101,-1,101,162,163,-1,101,163,98,-1,98,163,164,-1,98,164,146,-1,161,165,114,-1,114,165,166,-1,114,166,167,-1,167,168,114,-1,114,168,169,-1,114,169,101,-1,101,169,170,-1,101,170,140,-1,117,118,94,-1,94,118,110,-1,94,110,93,-1,93,110,109,-1,67,69,101,-1,101,69,114,-1,32,2,90,-1,90,2,98,-1,117,94,115,-1,115,94,92,-1,110,118,112,-1,112,118,116,-1,171,172,113,-1,31,89,173,-1,173,174,31,-1,31,174,171,-1,31,171,29,-1,29,171,113,-1,175,91,176,-1,176,91,93,-1,176,93,177,-1,177,93,109,-1,177,109,178,-1,178,109,111,-1,179,176,180,-1,180,176,177,-1,180,177,181,-1,181,177,171,-1,181,171,182,-1,182,171,174,-1,182,174,179,-1,179,174,176,-1,183,184,179,-1,179,184,182,-1,184,185,182,-1,182,185,181,-1,185,186,181,-1,181,186,180,-1,186,183,180,-1,180,183,179,-1,186,185,183,-1,183,185,184,-1,173,175,174,-1,174,175,176,-1,175,173,91,-1,91,173,89,-1,178,172,177,-1,177,172,171,-1,172,178,113,-1,113,178,111,-1,97,187,17,-1,17,187,19,-1,187,188,19,-1,19,188,62,-1,188,189,62,-1,62,189,30,-1,189,190,30,-1,30,190,0,-1,190,99,0,-1,0,99,1,-1,187,97,188,-1,188,97,99,-1,188,99,189,-1,189,99,190,-1,191,192,193,-1,193,192,194,-1,195,196,194,-1,194,196,107,-1,194,107,193,-1,193,107,108,-1,195,197,196,-1,196,197,198,-1,196,198,199,-1,199,198,200,-1,199,200,201,-1,201,202,199,-1,199,202,192,-1,199,192,104,-1,104,192,191,-1,104,191,105,-1,107,196,68,-1,68,196,70,-1,196,199,70,-1,70,199,52,-1,199,104,52,-1,52,104,47,-1,105,191,87,-1,87,191,85,-1,191,193,85,-1,85,193,86,-1,193,108,86,-1,86,108,88,-1,194,192,203,-1,203,192,204,-1,195,194,205,-1,205,194,203,-1,195,205,206,-1,195,206,197,-1,197,206,207,-1,197,207,198,-1,200,198,208,-1,208,198,207,-1,200,208,209,-1,200,209,201,-1,201,209,210,-1,201,210,202,-1,192,202,204,-1,204,202,210,-1,211,212,213,-1,213,212,214,-1,213,214,215,-1,215,214,216,-1,215,216,217,-1,217,216,218,-1,217,218,219,-1,219,218,220,-1,219,220,221,-1,221,220,222,-1,221,222,223,-1,223,222,224,-1,223,224,225,-1,225,224,226,-1,225,226,227,-1,227,226,228,-1,227,228,229,-1,229,228,103,-1,229,103,230,-1,230,103,106,-1,230,106,231,-1,231,106,232,-1,231,232,233,-1,233,232,234,-1,233,234,235,-1,235,234,236,-1,235,236,237,-1,237,236,238,-1,237,238,239,-1,239,238,240,-1,239,240,241,-1,241,240,242,-1,241,242,243,-1,243,242,211,-1,243,211,213,-1,216,84,83,-1,216,83,218,-1,218,83,82,-1,218,82,220,-1,220,82,61,-1,220,61,222,-1,222,61,60,-1,222,60,224,-1,224,60,59,-1,224,59,226,-1,226,59,49,-1,226,49,228,-1,228,49,48,-1,228,48,103,-1,234,13,54,-1,234,54,236,-1,236,54,53,-1,236,53,238,-1,238,53,51,-1,238,51,240,-1,240,51,50,-1,240,50,242,-1,242,50,66,-1,242,66,211,-1,211,66,65,-1,211,65,212,-1,212,65,64,-1,212,64,214,-1,214,64,84,-1,214,84,216,-1,234,232,13,-1,13,232,14,-1,232,106,14,-1,14,106,26,-1,231,233,244,-1,244,233,245,-1,230,231,246,-1,246,231,244,-1,229,230,247,-1,247,230,246,-1,229,247,248,-1,229,248,227,-1,227,248,249,-1,227,249,225,-1,225,249,250,-1,225,250,223,-1,223,250,251,-1,223,251,221,-1,221,251,252,-1,221,252,219,-1,219,252,253,-1,219,253,217,-1,217,253,254,-1,217,254,215,-1,215,254,255,-1,215,255,213,-1,213,255,256,-1,213,256,243,-1,243,256,257,-1,243,257,241,-1,241,257,258,-1,241,258,239,-1,239,258,259,-1,239,259,237,-1,237,259,260,-1,237,260,235,-1,235,260,245,-1,235,245,233,-1,102,261,28,-1,28,261,27,-1,261,262,27,-1,27,262,58,-1,262,263,58,-1,58,263,57,-1,263,264,57,-1,57,264,56,-1,264,265,56,-1,56,265,55,-1,265,266,55,-1,55,266,77,-1,266,267,77,-1,77,267,78,-1,267,268,78,-1,78,268,79,-1,268,269,79,-1,79,269,80,-1,269,270,80,-1,80,270,8,-1,270,96,8,-1,8,96,3,-1,270,269,268,-1,268,267,270,-1,270,267,266,-1,270,266,96,-1,261,102,262,-1,262,102,96,-1,262,96,263,-1,263,96,266,-1,263,266,264,-1,264,266,265,-1,100,22,21,-1,100,21,271,-1,271,21,20,-1,271,20,272,-1,272,20,16,-1,272,16,273,-1,273,16,18,-1,273,18,274,-1,274,18,25,-1,274,25,275,-1,275,25,24,-1,275,24,276,-1,277,6,5,-1,277,5,278,-1,278,5,4,-1,278,4,95,-1,279,280,281,-1,281,280,282,-1,281,282,283,-1,283,282,284,-1,283,284,285,-1,285,284,286,-1,285,286,287,-1,287,286,288,-1,287,288,289,-1,289,288,290,-1,289,290,291,-1,291,290,292,-1,291,292,293,-1,293,292,294,-1,293,294,295,-1,295,294,296,-1,295,296,276,-1,276,296,297,-1,276,297,275,-1,275,297,298,-1,275,298,274,-1,274,298,299,-1,274,299,273,-1,273,299,300,-1,273,300,272,-1,272,300,301,-1,272,301,271,-1,271,301,302,-1,271,302,100,-1,100,302,303,-1,100,303,95,-1,95,303,304,-1,95,304,278,-1,278,304,305,-1,278,305,277,-1,277,305,306,-1,277,306,307,-1,277,307,6,-1,6,307,7,-1,304,34,33,-1,304,33,305,-1,305,33,11,-1,305,11,306,-1,306,11,7,-1,306,7,307,-1,297,10,9,-1,297,9,298,-1,298,9,12,-1,298,12,299,-1,299,12,38,-1,299,38,300,-1,300,38,35,-1,300,35,301,-1,301,35,37,-1,301,37,302,-1,302,37,36,-1,302,36,303,-1,303,36,34,-1,303,34,304,-1,284,76,44,-1,284,44,286,-1,286,44,43,-1,286,43,288,-1,288,43,42,-1,288,42,290,-1,290,42,41,-1,290,41,292,-1,292,41,40,-1,292,40,294,-1,294,40,39,-1,294,39,296,-1,296,39,10,-1,296,10,297,-1,280,74,75,-1,280,75,282,-1,282,75,76,-1,282,76,284,-1,280,279,74,-1,74,279,73,-1,283,15,81,-1,283,81,281,-1,281,81,73,-1,281,73,279,-1,276,24,23,-1,276,23,295,-1,295,23,63,-1,295,63,293,-1,293,63,46,-1,293,46,291,-1,291,46,45,-1,291,45,289,-1,289,45,72,-1,289,72,287,-1,287,72,71,-1,287,71,285,-1,285,71,15,-1,285,15,283,-1,208,207,209,-1,209,207,206,-1,209,206,210,-1,210,206,205,-1,210,205,204,-1,204,205,203,-1,246,244,247,-1,247,244,245,-1,247,245,248,-1,248,245,249,-1,255,245,256,-1,256,245,260,-1,255,254,245,-1,245,254,253,-1,245,253,252,-1,260,259,256,-1,256,259,258,-1,256,258,257,-1,252,251,245,-1,245,251,250,-1,245,250,249,-1,308,123,309,-1,309,123,124,-1,309,124,310,-1,310,124,125,-1,310,125,311,-1,311,125,152,-1,311,152,312,-1,312,152,151,-1,312,151,313,-1,313,151,150,-1,313,150,314,-1,314,150,149,-1,314,149,315,-1,315,149,148,-1,315,148,316,-1,316,148,147,-1,316,147,317,-1,317,147,144,-1,317,144,318,-1,318,144,145,-1,318,145,319,-1,319,145,146,-1,319,146,320,-1,320,146,164,-1,320,164,321,-1,321,164,163,-1,321,163,322,-1,322,163,162,-1,322,162,323,-1,323,162,143,-1,323,143,324,-1,324,143,142,-1,324,142,325,-1,325,142,141,-1,325,141,326,-1,326,141,140,-1,326,140,327,-1,327,140,170,-1,327,170,328,-1,328,170,169,-1,328,169,329,-1,329,169,168,-1,329,168,330,-1,330,168,167,-1,330,167,331,-1,331,167,166,-1,331,166,332,-1,332,166,165,-1,332,165,333,-1,333,165,161,-1,333,161,334,-1,334,161,160,-1,334,160,335,-1,335,160,159,-1,335,159,336,-1,336,159,158,-1,336,158,337,-1,337,158,157,-1,337,157,338,-1,338,157,156,-1,338,156,339,-1,339,156,136,-1,339,136,340,-1,340,136,135,-1,340,135,341,-1,341,135,134,-1,341,134,342,-1,342,134,133,-1,342,133,343,-1,343,133,120,-1,343,120,344,-1,344,120,119,-1,344,119,345,-1,345,119,121,-1,345,121,346,-1,346,121,139,-1,346,139,347,-1,347,139,138,-1,347,138,348,-1,348,138,137,-1,348,137,349,-1,349,137,132,-1,349,132,350,-1,350,132,131,-1,350,131,351,-1,351,131,130,-1,351,130,352,-1,352,130,129,-1,352,129,353,-1,353,129,155,-1,353,155,354,-1,354,155,154,-1,354,154,355,-1,355,154,153,-1,355,153,356,-1,356,153,128,-1,356,128,357,-1,357,128,127,-1,357,127,358,-1,358,127,126,-1,358,126,359,-1,359,126,122,-1,359,122,308,-1,308,122,123,-1,360,351,361,-1,361,351,352,-1,361,352,362,-1,362,352,353,-1,362,353,363,-1,363,353,354,-1,363,354,364,-1,364,354,355,-1,364,355,365,-1,365,355,356,-1,365,356,366,-1,366,356,357,-1,366,357,367,-1,367,357,358,-1,367,358,368,-1,368,358,359,-1,368,359,369,-1,369,359,308,-1,369,308,370,-1,370,308,309,-1,370,309,371,-1,371,309,310,-1,371,310,372,-1,372,310,311,-1,372,311,373,-1,373,311,312,-1,373,312,374,-1,374,312,313,-1,374,313,375,-1,375,313,314,-1,375,314,376,-1,376,314,315,-1,376,315,377,-1,315,316,377,-1,377,316,317,-1,377,317,378,-1,378,317,318,-1,378,318,379,-1,379,318,319,-1,379,319,380,-1,380,319,320,-1,380,320,381,-1,381,320,321,-1,381,321,382,-1,382,321,322,-1,382,322,383,-1,383,322,323,-1,383,323,384,-1,384,323,324,-1,384,324,385,-1,385,324,325,-1,385,325,386,-1,386,325,326,-1,386,326,387,-1,387,326,327,-1,387,327,388,-1,388,327,328,-1,388,328,389,-1,389,328,329,-1,389,329,390,-1,390,329,330,-1,390,330,391,-1,391,330,331,-1,391,331,392,-1,392,331,332,-1,392,332,393,-1,332,333,393,-1,393,333,334,-1,393,334,394,-1,394,334,335,-1,394,335,395,-1,395,335,336,-1,395,336,396,-1,396,336,337,-1,396,337,397,-1,397,337,338,-1,397,338,398,-1,398,338,339,-1,398,339,399,-1,399,339,340,-1,399,340,400,-1,400,340,341,-1,400,341,401,-1,401,341,342,-1,401,342,402,-1,402,342,343,-1,402,343,403,-1,403,343,344,-1,403,344,404,-1,404,344,345,-1,404,345,405,-1,405,345,346,-1,405,346,406,-1,406,346,347,-1,406,347,407,-1,407,347,348,-1,407,348,408,-1,408,348,349,-1,408,349,360,-1,360,349,350,-1,360,350,351,-1,409,368,410,-1,410,368,369,-1,409,411,368,-1,368,411,412,-1,368,412,367,-1,412,413,367,-1,367,413,414,-1,367,414,366,-1,415,365,416,-1,416,365,366,-1,416,366,417,-1,417,366,414,-1,415,418,365,-1,365,418,419,-1,365,419,364,-1,420,363,421,-1,421,363,364,-1,421,364,422,-1,422,364,419,-1,420,423,363,-1,363,423,424,-1,363,424,362,-1,424,425,362,-1,362,425,426,-1,362,426,361,-1,426,427,361,-1,361,427,428,-1,361,428,360,-1,360,428,429,-1,429,430,360,-1,360,430,431,-1,360,431,408,-1,432,407,433,-1,433,407,408,-1,433,408,434,-1,434,408,431,-1,432,435,407,-1,407,435,436,-1,407,436,406,-1,436,437,406,-1,406,437,438,-1,406,438,405,-1,438,439,405,-1,405,439,440,-1,405,440,404,-1,404,440,441,-1,441,442,404,-1,404,442,443,-1,404,443,403,-1,444,402,445,-1,445,402,403,-1,445,403,446,-1,446,403,443,-1,444,447,402,-1,402,447,448,-1,402,448,401,-1,448,449,401,-1,401,449,450,-1,401,450,400,-1,450,451,400,-1,400,451,452,-1,400,452,399,-1,399,452,453,-1,453,454,399,-1,399,454,455,-1,399,455,398,-1,456,397,457,-1,457,397,398,-1,457,398,458,-1,458,398,455,-1,456,459,397,-1,397,459,460,-1,397,460,396,-1,461,395,462,-1,462,395,396,-1,462,396,463,-1,463,396,460,-1,461,464,395,-1,395,464,465,-1,395,465,394,-1,465,466,394,-1,394,466,467,-1,394,467,393,-1,468,392,469,-1,469,392,393,-1,469,393,470,-1,470,393,467,-1,468,471,392,-1,392,471,472,-1,392,472,391,-1,473,390,474,-1,474,390,391,-1,474,391,475,-1,475,391,472,-1,473,476,390,-1,390,476,477,-1,390,477,389,-1,477,478,389,-1,389,478,479,-1,389,479,388,-1,479,480,388,-1,388,480,481,-1,388,481,387,-1,387,481,482,-1,482,483,387,-1,387,483,484,-1,387,484,386,-1,485,385,486,-1,486,385,386,-1,486,386,487,-1,487,386,484,-1,485,488,385,-1,385,488,489,-1,385,489,384,-1,489,490,384,-1,384,490,491,-1,384,491,383,-1,491,492,383,-1,383,492,493,-1,383,493,382,-1,382,493,494,-1,494,495,382,-1,382,495,496,-1,382,496,381,-1,497,380,498,-1,498,380,381,-1,498,381,499,-1,499,381,496,-1,497,500,380,-1,380,500,501,-1,380,501,379,-1,501,502,379,-1,379,502,503,-1,379,503,378,-1,503,504,378,-1,378,504,505,-1,378,505,377,-1,377,505,506,-1,506,507,377,-1,377,507,508,-1,377,508,376,-1,509,375,510,-1,510,375,376,-1,510,376,511,-1,511,376,508,-1,509,512,375,-1,375,512,513,-1,375,513,374,-1,514,373,515,-1,515,373,374,-1,515,374,516,-1,516,374,513,-1,517,371,372,-1,514,518,373,-1,373,518,519,-1,373,519,372,-1,372,519,520,-1,372,520,517,-1,521,370,522,-1,522,370,371,-1,522,371,523,-1,523,371,517,-1,521,524,370,-1,370,524,525,-1,370,525,369,-1,369,525,526,-1,369,526,410,-1,
        ]
    }
}
Shape{
    appearance Appearance {
        material  Material 	{
            diffuseColor 1.0 0.8 0.1843137254901961
            specularColor 0.5019607843137255 0.4 0.09411764705882353
            ambientIntensity 0.2
            transparency 0
            shininess 0.5
        }
    }
    geometry IndexedFaceSet {
        ccw TRUE
        solid FALSE
        coord DEF co Coordinate {
            point [
                -0.0543 0.01 0.1362, -0.0549 0.005 0.1362, -0.0 0.0 0.1334, -0.0531 0.0149 0.1362, -0.0516 0.0197 0.1362, -0.0496 0.0243 0.1362, -0.0471 0.0287 0.1362, -0.0443 0.0328 0.1362, -0.0412 0.0367 0.1362, -0.0377 0.0403 0.1362, -0.0338 0.0436 0.1362, -0.0297 0.0465 0.1362, -0.0254 0.049 0.1362, -0.0208 0.0511 0.1362, -0.0161 0.0528 0.1362, -0.0112 0.054 0.1362, -0.0063 0.0548 0.1362, -0.0013 0.0552 0.1362, 0.0038 0.055 0.1362, 0.0088 0.0545 0.1362, 0.0137 0.0535 0.1362, 0.0185 0.052 0.1362, 0.0231 0.0501 0.1362, 0.0276 0.0478 0.1362, 0.0318 0.0451 0.1362, 0.0358 0.042 0.1362, 0.0395 0.0386 0.1362, 0.0428 0.0348 0.1362, 0.0458 0.0308 0.1362, 0.0484 0.0265 0.1362, 0.0506 0.022 0.1362, 0.0524 0.0173 0.1362, 0.0538 0.0125 0.1362, 0.0547 0.0075 0.1362, 0.0551 0.0025 0.1362, 0.0551 -0.0025 0.1362, 0.0547 -0.0075 0.1362, 0.0538 -0.0125 0.1362, 0.0524 -0.0173 0.1362, 0.0506 -0.022 0.1362, 0.0484 -0.0265 0.1362, 0.0458 -0.0308 0.1362, 0.0428 -0.0348 0.1362, 0.0395 -0.0386 0.1362, 0.0358 -0.042 0.1362, 0.0318 -0.0451 0.1362, 0.0276 -0.0478 0.1362, 0.0231 -0.0501 0.1362, 0.0185 -0.052 0.1362, 0.0137 -0.0535 0.1362, 0.0088 -0.0545 0.1362, 0.0038 -0.055 0.1362, -0.0013 -0.0552 0.1362, -0.0063 -0.0548 0.1362, -0.0112 -0.054 0.1362, -0.0161 -0.0528 0.1362, -0.0208 -0.0511 0.1362, -0.0254 -0.049 0.1362, -0.0297 -0.0465 0.1362, -0.0338 -0.0436 0.1362, -0.0377 -0.0403 0.1362, -0.0412 -0.0367 0.1362, -0.0443 -0.0328 0.1362, -0.0471 -0.0287 0.1362, -0.0496 -0.0243 0.1362, -0.0516 -0.0197 0.1362, -0.0531 -0.0149 0.1362, -0.0543 -0.01 0.1362, -0.0549 -0.005 0.1362, -0.0552 0.0 0.1362, -0.4672 0.0 0.2824, -0.5103 -0.0328 0.315, -0.4653 -0.0425 0.2824, -0.5097 -0.0465 0.315, -0.4595 -0.0846 0.2824, -0.5033 -0.0927 0.315, -0.5022 -0.0978 0.315, -0.4499 -0.126 0.2824, -0.4928 -0.1381 0.315, -0.4852 -0.1611 0.315, -0.4365 -0.1664 0.2824, -0.4782 -0.1823 0.315, -0.461 -0.222 0.315, -0.4196 -0.2054 0.2824, -0.4597 -0.2251 0.315, -0.3992 -0.2427 0.2824, -0.4373 -0.2659 0.315, -0.4285 -0.2789 0.315, -0.3755 -0.278 0.2824, -0.4113 -0.3046 0.315, -0.3894 -0.3315 0.315, -0.3486 -0.311 0.2824, -0.3819 -0.3407 0.315, -0.3189 -0.3414 0.2824, -0.3493 -0.374 0.315, -0.3439 -0.3787 0.315, -0.2865 -0.369 0.2824, -0.3139 -0.4043 0.315, -0.2925 -0.4193 0.315, -0.2518 -0.3936 0.2824, -0.2758 -0.4311 0.315, -0.2367 -0.4537 0.315, -0.2149 -0.4148 0.2824, -0.2355 -0.4544 0.315, -0.1763 -0.4326 0.2824, -0.1932 -0.474 0.315, -0.1766 -0.4798 0.315, -0.1363 -0.4469 0.2824, -0.1493 -0.4896 0.315, -0.1138 -0.4986 0.315, -0.0951 -0.4574 0.2824, -0.1041 -0.5011 0.315, -0.0531 -0.4642 0.2824, -0.0581 -0.5085 0.315, -0.0491 -0.5091 0.315, -0.0106 -0.4671 0.2824, -0.0117 -0.5117 0.315, 0.0164 -0.511 0.315, 0.0319 -0.4661 0.2824, 0.0349 -0.5106 0.315, 0.0741 -0.4613 0.2824, 0.0812 -0.5053 0.315, 0.0817 -0.5052 0.315, 0.1158 -0.4526 0.2824, 0.1268 -0.4958 0.315, 0.1455 -0.4902 0.315, 0.1565 -0.4402 0.2824, 0.1714 -0.4823 0.315, 0.2071 -0.4677 0.315, 0.1958 -0.4242 0.2824, 0.2145 -0.4647 0.315, 0.2336 -0.4046 0.2824, 0.2559 -0.4432 0.315, 0.2651 -0.4374 0.315, 0.2694 -0.3817 0.2824, 0.2952 -0.4181 0.315, 0.3188 -0.3998 0.315, 0.303 -0.3556 0.2824, 0.332 -0.3896 0.315, 0.3341 -0.3266 0.2824, 0.366 -0.3578 0.315, 0.3676 -0.356 0.315, 0.3624 -0.2948 0.2824, 0.397 -0.323 0.315, 0.4097 -0.3058 0.315, 0.3877 -0.2607 0.2824, 0.4247 -0.2856 0.315, 0.4457 -0.251 0.315, 0.4098 -0.2243 0.2824, 0.449 -0.2457 0.315, 0.4285 -0.1861 0.2824, 0.4694 -0.2039 0.315, 0.474 -0.1919 0.315, 0.4437 -0.1464 0.2824, 0.486 -0.1604 0.315, 0.4946 -0.1297 0.315, 0.4551 -0.1054 0.2824, 0.4986 -0.1155 0.315, 0.4628 -0.0636 0.2824, 0.507 -0.0697 0.315, 0.5074 -0.0654 0.315, 0.4667 -0.0213 0.2824, 0.5113 -0.0233 0.315, 0.5118 0.0 0.315, 0.4667 0.0213 0.2824, 0.5113 0.0233 0.315, 0.5074 0.0654 0.315, 0.4628 0.0636 0.2824, 0.507 0.0697 0.315, 0.4551 0.1054 0.2824, 0.4986 0.1155 0.315, 0.4946 0.1297 0.315, 0.4437 0.1464 0.2824, 0.486 0.1604 0.315, 0.474 0.1919 0.315, 0.4285 0.1861 0.2824, 0.4694 0.2039 0.315, 0.4098 0.2243 0.2824, 0.449 0.2457 0.315, 0.4457 0.251 0.315, 0.3877 0.2607 0.2824, 0.4247 0.2856 0.315, 0.4097 0.3058 0.315, 0.3624 0.2948 0.2824, 0.397 0.323 0.315, 0.3676 0.356 0.315, 0.3341 0.3266 0.2824, 0.366 0.3578 0.315, 0.303 0.3556 0.2824, 0.332 0.3896 0.315, 0.3188 0.3998 0.315, 0.2694 0.3817 0.2824, 0.2952 0.4181 0.315, 0.2651 0.4374 0.315, 0.2336 0.4046 0.2824, 0.2559 0.4432 0.315, 0.1958 0.4242 0.2824, 0.2145 0.4647 0.315, 0.2071 0.4677 0.315, 0.1565 0.4402 0.2824, 0.1714 0.4823 0.315, 0.1455 0.4902 0.315, 0.1158 0.4526 0.2824, 0.1268 0.4958 0.315, 0.0817 0.5052 0.315, 0.0741 0.4613 0.2824, 0.0812 0.5053 0.315, 0.0319 0.4661 0.2824, 0.0349 0.5106 0.315, 0.0164 0.511 0.315, -0.0106 0.4671 0.2824, -0.0117 0.5117 0.315, -0.0491 0.5091 0.315, -0.0531 0.4642 0.2824, -0.0581 0.5085 0.315, -0.0951 0.4574 0.2824, -0.1041 0.5011 0.315, -0.1138 0.4986 0.315, -0.1363 0.4469 0.2824, -0.1493 0.4896 0.315, -0.1766 0.4798 0.315, -0.1763 0.4326 0.2824, -0.1932 0.474 0.315, -0.2149 0.4148 0.2824, -0.2355 0.4544 0.315, -0.2367 0.4537 0.315, -0.2518 0.3936 0.2824, -0.2758 0.4311 0.315, -0.2925 0.4193 0.315, -0.2865 0.369 0.2824, -0.3139 0.4043 0.315, -0.3439 0.3787 0.315, -0.3189 0.3414 0.2824, -0.3493 0.374 0.315, -0.3486 0.311 0.2824, -0.3819 0.3407 0.315, -0.3894 0.3315 0.315, -0.3755 0.278 0.2824, -0.4113 0.3046 0.315, -0.4285 0.2789 0.315, -0.3992 0.2427 0.2824, -0.4373 0.2659 0.315, -0.4196 0.2054 0.2824, -0.4597 0.2251 0.315, -0.461 0.222 0.315, -0.4365 0.1664 0.2824, -0.4782 0.1823 0.315, -0.4852 0.1611 0.315, -0.4499 0.126 0.2824, -0.4928 0.1381 0.315, -0.5022 0.0978 0.315, -0.4595 0.0846 0.2824, -0.5033 0.0927 0.315, -0.4653 0.0425 0.2824, -0.5097 0.0465 0.315, -0.5103 0.0328 0.315, -0.5118 0.0 0.315, -0.4188 0.0382 0.2527, -0.4136 0.0762 0.2527, -0.405 0.1135 0.2527, -0.393 0.1498 0.2527, -0.3777 0.1849 0.2527, -0.3593 0.2185 0.2527, -0.338 0.2503 0.2527, -0.3138 0.28 0.2527, -0.2871 0.3074 0.2527, -0.2579 0.3322 0.2527, -0.2266 0.3543 0.2527, -0.1935 0.3734 0.2527, -0.1587 0.3895 0.2527, -0.1227 0.4023 0.2527, -0.0856 0.4118 0.2527, -0.0478 0.4178 0.2527, -0.0096 0.4205 0.2527, 0.0287 0.4196 0.2527, 0.0667 0.4152 0.2527, 0.1042 0.4075 0.2527, 0.1408 0.3963 0.2527, 0.1763 0.3818 0.2527, 0.2103 0.3642 0.2527, 0.2425 0.3436 0.2527, 0.2728 0.3201 0.2527, 0.3008 0.294 0.2527, 0.3262 0.2654 0.2527, 0.349 0.2347 0.2527, 0.3689 0.2019 0.2527, 0.3858 0.1676 0.2527, 0.3994 0.1318 0.2527, 0.4097 0.0949 0.2527, 0.4167 0.0573 0.2527, 0.4201 0.0191 0.2527, 0.4201 -0.0191 0.2527, 0.4167 -0.0573 0.2527, 0.4097 -0.0949 0.2527, 0.3994 -0.1318 0.2527, 0.3858 -0.1676 0.2527, 0.3689 -0.2019 0.2527, 0.349 -0.2347 0.2527, 0.3262 -0.2654 0.2527, 0.3008 -0.294 0.2527, 0.2728 -0.3201 0.2527, 0.2425 -0.3436 0.2527, 0.2103 -0.3642 0.2527, 0.1763 -0.3818 0.2527, 0.1408 -0.3963 0.2527, 0.1042 -0.4075 0.2527, 0.0667 -0.4152 0.2527, 0.0287 -0.4196 0.2527, -0.0096 -0.4205 0.2527, -0.0478 -0.4178 0.2527, -0.0856 -0.4118 0.2527, -0.1227 -0.4023 0.2527, -0.1587 -0.3895 0.2527, -0.1935 -0.3734 0.2527, -0.2266 -0.3543 0.2527, -0.2579 -0.3322 0.2527, -0.2871 -0.3074 0.2527, -0.3138 -0.28 0.2527, -0.338 -0.2503 0.2527, -0.3593 -0.2185 0.2527, -0.3777 -0.1849 0.2527, -0.393 -0.1498 0.2527, -0.405 -0.1135 0.2527, -0.4136 -0.0762 0.2527, -0.4188 -0.0382 0.2527, -0.4206 0.0 0.2527, -0.3706 0.0338 0.2262, -0.366 0.0674 0.2262, -0.3583 0.1004 0.2262, -0.3477 0.1326 0.2262, -0.3342 0.1636 0.2262, -0.318 0.1934 0.2262, -0.2991 0.2215 0.2262, -0.2777 0.2477 0.2262, -0.254 0.272 0.2262, -0.2282 0.2939 0.2262, -0.2005 0.3135 0.2262, -0.1712 0.3304 0.2262, -0.1405 0.3446 0.2262, -0.1085 0.356 0.2262, -0.0757 0.3644 0.2262, -0.0423 0.3697 0.2262, -0.0085 0.372 0.2262, 0.0254 0.3713 0.2262, 0.0591 0.3674 0.2262, 0.0922 0.3605 0.2262, 0.1246 0.3507 0.2262, 0.156 0.3379 0.2262, 0.1861 0.3223 0.2262, 0.2146 0.304 0.2262, 0.2414 0.2833 0.2262, 0.2661 0.2601 0.2262, 0.2887 0.2349 0.2262, 0.3088 0.2076 0.2262, 0.3264 0.1787 0.2262, 0.3413 0.1483 0.2262, 0.3534 0.1166 0.2262, 0.3625 0.084 0.2262, 0.3687 0.0507 0.2262, 0.3718 0.0169 0.2262, 0.3718 -0.0169 0.2262, 0.3687 -0.0507 0.2262, 0.3625 -0.084 0.2262, 0.3534 -0.1166 0.2262, 0.3413 -0.1483 0.2262, 0.3264 -0.1787 0.2262, 0.3088 -0.2076 0.2262, 0.2887 -0.2349 0.2262, 0.2661 -0.2601 0.2262, 0.2414 -0.2833 0.2262, 0.2146 -0.304 0.2262, 0.1861 -0.3223 0.2262, 0.156 -0.3379 0.2262, 0.1246 -0.3507 0.2262, 0.0922 -0.3605 0.2262, 0.0591 -0.3674 0.2262, 0.0254 -0.3713 0.2262, -0.0085 -0.372 0.2262, -0.0423 -0.3697 0.2262, -0.0757 -0.3644 0.2262, -0.1085 -0.356 0.2262, -0.1405 -0.3446 0.2262, -0.1712 -0.3304 0.2262, -0.2005 -0.3135 0.2262, -0.2282 -0.2939 0.2262, -0.254 -0.272 0.2262, -0.2777 -0.2477 0.2262, -0.2991 -0.2215 0.2262, -0.318 -0.1934 0.2262, -0.3342 -0.1636 0.2262, -0.3477 -0.1326 0.2262, -0.3583 -0.1004 0.2262, -0.366 -0.0674 0.2262, -0.3706 -0.0338 0.2262, -0.3721 0.0 0.2262, -0.3208 0.0293 0.2027, -0.3168 0.0583 0.2027, -0.3102 0.0869 0.2027, -0.301 0.1147 0.2027, -0.2893 0.1416 0.2027, -0.2752 0.1674 0.2027, -0.2588 0.1917 0.2027, -0.2403 0.2144 0.2027, -0.2198 0.2354 0.2027, -0.1975 0.2544 0.2027, -0.1736 0.2713 0.2027, -0.1482 0.286 0.2027, -0.1216 0.2983 0.2027, -0.0939 0.3081 0.2027, -0.0655 0.3154 0.2027, -0.0366 0.32 0.2027, -0.0073 0.322 0.2027, 0.022 0.3213 0.2027, 0.0511 0.318 0.2027, 0.0798 0.312 0.2027, 0.1079 0.3035 0.2027, 0.135 0.2924 0.2027, 0.161 0.2789 0.2027, 0.1857 0.2631 0.2027, 0.2089 0.2452 0.2027, 0.2303 0.2251 0.2027, 0.2499 0.2033 0.2027, 0.2673 0.1797 0.2027, 0.2825 0.1547 0.2027, 0.2954 0.1283 0.2027, 0.3059 0.1009 0.2027, 0.3138 0.0727 0.2027, 0.3191 0.0439 0.2027, 0.3218 0.0147 0.2027, 0.3218 -0.0147 0.2027, 0.3191 -0.0439 0.2027, 0.3138 -0.0727 0.2027, 0.3059 -0.1009 0.2027, 0.2954 -0.1283 0.2027, 0.2825 -0.1547 0.2027, 0.2673 -0.1797 0.2027, 0.2499 -0.2033 0.2027, 0.2303 -0.2251 0.2027, 0.2089 -0.2452 0.2027, 0.1857 -0.2631 0.2027, 0.161 -0.2789 0.2027, 0.135 -0.2924 0.2027, 0.1079 -0.3035 0.2027, 0.0798 -0.312 0.2027, 0.0511 -0.318 0.2027, 0.022 -0.3213 0.2027, -0.0073 -0.322 0.2027, -0.0366 -0.32 0.2027, -0.0655 -0.3154 0.2027, -0.0939 -0.3081 0.2027, -0.1216 -0.2983 0.2027, -0.1482 -0.286 0.2027, -0.1736 -0.2713 0.2027, -0.1975 -0.2544 0.2027, -0.2198 -0.2354 0.2027, -0.2403 -0.2144 0.2027, -0.2588 -0.1917 0.2027, -0.2752 -0.1674 0.2027, -0.2893 -0.1416 0.2027, -0.301 -0.1147 0.2027, -0.3102 -0.0869 0.2027, -0.3168 -0.0583 0.2027, -0.3208 -0.0293 0.2027, -0.3221 0.0 0.2027, -0.2695 0.0246 0.1826, -0.2662 0.049 0.1826, -0.2606 0.073 0.1826, -0.2529 0.0964 0.1826, -0.2431 0.119 0.1826, -0.2312 0.1406 0.1826, -0.2175 0.1611 0.1826, -0.202 0.1802 0.1826, -0.1847 0.1978 0.1826, -0.166 0.2138 0.1826, -0.1459 0.228 0.1826, -0.1245 0.2403 0.1826, -0.1021 0.2506 0.1826, -0.0789 0.2589 0.1826, -0.0551 0.265 0.1826, -0.0307 0.2689 0.1826, -0.0062 0.2706 0.1826, 0.0185 0.27 0.1826, 0.0429 0.2672 0.1826, 0.0671 0.2622 0.1826, 0.0906 0.255 0.1826, 0.1135 0.2457 0.1826, 0.1353 0.2344 0.1826, 0.1561 0.2211 0.1826, 0.1755 0.206 0.1826, 0.1935 0.1892 0.1826, 0.2099 0.1708 0.1826, 0.2246 0.151 0.1826, 0.2374 0.13 0.1826, 0.2482 0.1078 0.1826, 0.257 0.0848 0.1826, 0.2637 0.0611 0.1826, 0.2681 0.0369 0.1826, 0.2704 0.0123 0.1826, 0.2704 -0.0123 0.1826, 0.2681 -0.0369 0.1826, 0.2637 -0.0611 0.1826, 0.257 -0.0848 0.1826, 0.2482 -0.1078 0.1826, 0.2374 -0.13 0.1826, 0.2246 -0.151 0.1826, 0.2099 -0.1708 0.1826, 0.1935 -0.1892 0.1826, 0.1755 -0.206 0.1826, 0.1561 -0.2211 0.1826, 0.1353 -0.2344 0.1826, 0.1135 -0.2457 0.1826, 0.0906 -0.255 0.1826, 0.0671 -0.2622 0.1826, 0.0429 -0.2672 0.1826, 0.0185 -0.27 0.1826, -0.0062 -0.2706 0.1826, -0.0307 -0.2689 0.1826, -0.0551 -0.265 0.1826, -0.0789 -0.2589 0.1826, -0.1021 -0.2506 0.1826, -0.1245 -0.2403 0.1826, -0.1459 -0.228 0.1826, -0.166 -0.2138 0.1826, -0.1847 -0.1978 0.1826, -0.202 -0.1802 0.1826, -0.2175 -0.1611 0.1826, -0.2312 -0.1406 0.1826, -0.2431 -0.119 0.1826, -0.2529 -0.0964 0.1826, -0.2606 -0.073 0.1826, -0.2662 -0.049 0.1826, -0.2695 -0.0246 0.1826, -0.2707 0.0 0.1826, -0.2171 0.0198 0.1658, -0.2144 0.0395 0.1658, -0.2099 0.0588 0.1658, -0.2037 0.0777 0.1658, -0.1958 0.0959 0.1658, -0.1863 0.1133 0.1658, -0.1752 0.1297 0.1658, -0.1627 0.1451 0.1658, -0.1488 0.1593 0.1658, -0.1337 0.1722 0.1658, -0.1175 0.1837 0.1658, -0.1003 0.1936 0.1658, -0.0823 0.2019 0.1658, -0.0636 0.2085 0.1658, -0.0444 0.2135 0.1658, -0.0248 0.2166 0.1658, -0.005 0.218 0.1658, 0.0149 0.2175 0.1658, 0.0346 0.2153 0.1658, 0.054 0.2112 0.1658, 0.073 0.2054 0.1658, 0.0914 0.1979 0.1658, 0.109 0.1888 0.1658, 0.1257 0.1781 0.1658, 0.1414 0.1659 0.1658, 0.1559 0.1524 0.1658, 0.1691 0.1376 0.1658, 0.1809 0.1216 0.1658, 0.1912 0.1047 0.1658, 0.2 0.0869 0.1658, 0.207 0.0683 0.1658, 0.2124 0.0492 0.1658, 0.216 0.0297 0.1658, 0.2178 0.0099 0.1658, 0.2178 -0.0099 0.1658, 0.216 -0.0297 0.1658, 0.2124 -0.0492 0.1658, 0.207 -0.0683 0.1658, 0.2 -0.0869 0.1658, 0.1912 -0.1047 0.1658, 0.1809 -0.1216 0.1658, 0.1691 -0.1376 0.1658, 0.1559 -0.1524 0.1658, 0.1414 -0.1659 0.1658, 0.1257 -0.1781 0.1658, 0.109 -0.1888 0.1658, 0.0914 -0.1979 0.1658, 0.073 -0.2054 0.1658, 0.054 -0.2112 0.1658, 0.0346 -0.2153 0.1658, 0.0149 -0.2175 0.1658, -0.005 -0.218 0.1658, -0.0248 -0.2166 0.1658, -0.0444 -0.2135 0.1658, -0.0636 -0.2085 0.1658, -0.0823 -0.2019 0.1658, -0.1003 -0.1936 0.1658, -0.1175 -0.1837 0.1658, -0.1337 -0.1722 0.1658, -0.1488 -0.1593 0.1658, -0.1627 -0.1451 0.1658, -0.1752 -0.1297 0.1658, -0.1863 -0.1133 0.1658, -0.1958 -0.0959 0.1658, -0.2037 -0.0777 0.1658, -0.2099 -0.0588 0.1658, -0.2144 -0.0395 0.1658, -0.2171 -0.0198 0.1658, -0.218 0.0 0.1658, -0.1637 0.015 0.1524, -0.1617 0.0298 0.1524, -0.1583 0.0444 0.1524, -0.1536 0.0586 0.1524, -0.1477 0.0723 0.1524, -0.1405 0.0854 0.1524, -0.1321 0.0978 0.1524, -0.1227 0.1095 0.1524, -0.1122 0.1202 0.1524, -0.1008 0.1299 0.1524, -0.0886 0.1385 0.1524, -0.0756 0.146 0.1524, -0.0621 0.1523 0.1524, -0.0479 0.1573 0.1524, -0.0335 0.161 0.1524, -0.0187 0.1633 0.1524, -0.0037 0.1644 0.1524, 0.0112 0.164 0.1524, 0.0261 0.1623 0.1524, 0.0407 0.1593 0.1524, 0.0551 0.1549 0.1524, 0.0689 0.1493 0.1524, 0.0822 0.1424 0.1524, 0.0948 0.1343 0.1524, 0.1066 0.1251 0.1524, 0.1176 0.1149 0.1524, 0.1275 0.1038 0.1524, 0.1364 0.0917 0.1524, 0.1442 0.0789 0.1524, 0.1508 0.0655 0.1524, 0.1561 0.0515 0.1524, 0.1602 0.0371 0.1524, 0.1629 0.0224 0.1524, 0.1642 0.0075 0.1524, 0.1642 -0.0075 0.1524, 0.1629 -0.0224 0.1524, 0.1602 -0.0371 0.1524, 0.1561 -0.0515 0.1524, 0.1508 -0.0655 0.1524, 0.1442 -0.0789 0.1524, 0.1364 -0.0917 0.1524, 0.1275 -0.1038 0.1524, 0.1176 -0.1149 0.1524, 0.1066 -0.1251 0.1524, 0.0948 -0.1343 0.1524, 0.0822 -0.1424 0.1524, 0.0689 -0.1493 0.1524, 0.0551 -0.1549 0.1524, 0.0407 -0.1593 0.1524, 0.0261 -0.1623 0.1524, 0.0112 -0.164 0.1524, -0.0037 -0.1644 0.1524, -0.0187 -0.1633 0.1524, -0.0335 -0.161 0.1524, -0.0479 -0.1573 0.1524, -0.0621 -0.1523 0.1524, -0.0756 -0.146 0.1524, -0.0886 -0.1385 0.1524, -0.1008 -0.1299 0.1524, -0.1122 -0.1202 0.1524, -0.1227 -0.1095 0.1524, -0.1321 -0.0978 0.1524, -0.1405 -0.0854 0.1524, -0.1477 -0.0723 0.1524, -0.1536 -0.0586 0.1524, -0.1583 -0.0444 0.1524, -0.1617 -0.0298 0.1524, -0.1637 -0.015 0.1524, -0.1644 0.0 0.1524, -0.1096 0.01 0.1426, -0.1082 0.0199 0.1426, -0.106 0.0297 0.1426, -0.1028 0.0392 0.1426, -0.0988 0.0484 0.1426, -0.094 0.0572 0.1426, -0.0884 0.0655 0.1426, -0.0821 0.0733 0.1426, -0.0751 0.0804 0.1426, -0.0675 0.0869 0.1426, -0.0593 0.0927 0.1426, -0.0506 0.0977 0.1426, -0.0415 0.1019 0.1426, -0.0321 0.1053 0.1426, -0.0224 0.1078 0.1426, -0.0125 0.1093 0.1426, -0.0025 0.11 0.1426, 0.0075 0.1098 0.1426, 0.0175 0.1087 0.1426, 0.0273 0.1066 0.1426, 0.0369 0.1037 0.1426, 0.0461 0.0999 0.1426, 0.055 0.0953 0.1426, 0.0635 0.0899 0.1426, 0.0714 0.0838 0.1426, 0.0787 0.0769 0.1426, 0.0854 0.0695 0.1426, 0.0913 0.0614 0.1426, 0.0965 0.0528 0.1426, 0.1009 0.0438 0.1426, 0.1045 0.0345 0.1426, 0.1072 0.0248 0.1426, 0.109 0.015 0.1426, 0.1099 0.005 0.1426, 0.1099 -0.005 0.1426, 0.109 -0.015 0.1426, 0.1072 -0.0248 0.1426, 0.1045 -0.0345 0.1426, 0.1009 -0.0438 0.1426, 0.0965 -0.0528 0.1426, 0.0913 -0.0614 0.1426, 0.0854 -0.0695 0.1426, 0.0787 -0.0769 0.1426, 0.0714 -0.0838 0.1426, 0.0635 -0.0899 0.1426, 0.055 -0.0953 0.1426, 0.0461 -0.0999 0.1426, 0.0369 -0.1037 0.1426, 0.0273 -0.1066 0.1426, 0.0175 -0.1087 0.1426, 0.0075 -0.1098 0.1426, -0.0025 -0.11 0.1426, -0.0125 -0.1093 0.1426, -0.0224 -0.1078 0.1426, -0.0321 -0.1053 0.1426, -0.0415 -0.1019 0.1426, -0.0506 -0.0977 0.1426, -0.0593 -0.0927 0.1426, -0.0675 -0.0869 0.1426, -0.0751 -0.0804 0.1426, -0.0821 -0.0733 0.1426, -0.0884 -0.0655 0.1426, -0.094 -0.0572 0.1426, -0.0988 -0.0484 0.1426, -0.1028 -0.0392 0.1426, -0.106 -0.0297 0.1426, -0.1082 -0.0199 0.1426, -0.1096 -0.01 0.1426, -0.1101 0.0 0.1426, -0.1101 0.0 0.1426
            ]
        }
        coordIndex [
            0,1,2,-1,0,2,3,-1,4,3,2,-1,5,4,2,-1,6,5,2,-1,7,6,2,-1,8,7,2,-1,9,8,2,-1,10,9,2,-1,11,10,2,-1,12,11,2,-1,13,12,2,-1,14,13,2,-1,15,14,2,-1,16,15,2,-1,17,16,2,-1,18,17,2,-1,19,18,2,-1,20,19,2,-1,21,20,2,-1,22,21,2,-1,23,22,2,-1,24,23,2,-1,25,24,2,-1,26,25,2,-1,27,26,2,-1,28,27,2,-1,29,28,2,-1,30,29,2,-1,31,30,2,-1,32,31,2,-1,33,32,2,-1,34,33,2,-1,35,34,2,-1,36,35,2,-1,37,36,2,-1,38,37,2,-1,39,38,2,-1,40,39,2,-1,41,40,2,-1,42,41,2,-1,43,42,2,-1,44,43,2,-1,45,44,2,-1,46,45,2,-1,47,46,2,-1,48,47,2,-1,49,48,2,-1,50,49,2,-1,51,50,2,-1,52,51,2,-1,53,52,2,-1,54,53,2,-1,55,54,2,-1,56,55,2,-1,57,56,2,-1,58,57,2,-1,59,58,2,-1,60,59,2,-1,61,60,2,-1,62,61,2,-1,63,62,2,-1,64,63,2,-1,65,64,2,-1,66,65,2,-1,67,66,2,-1,68,67,2,-1,69,68,2,-1,1,69,2,-1,70,71,72,-1,72,71,73,-1,72,73,74,-1,73,75,74,-1,74,75,76,-1,74,76,77,-1,76,78,77,-1,77,78,79,-1,77,79,80,-1,79,81,80,-1,80,81,82,-1,80,82,83,-1,83,82,84,-1,83,84,85,-1,84,86,85,-1,85,86,87,-1,85,87,88,-1,87,89,88,-1,88,89,90,-1,88,90,91,-1,91,90,92,-1,91,92,93,-1,92,94,93,-1,93,94,95,-1,93,95,96,-1,95,97,96,-1,96,97,98,-1,96,98,99,-1,98,100,99,-1,99,100,101,-1,99,101,102,-1,102,101,103,-1,102,103,104,-1,103,105,104,-1,104,105,106,-1,104,106,107,-1,106,108,107,-1,107,108,109,-1,107,109,110,-1,110,109,111,-1,110,111,112,-1,111,113,112,-1,112,113,114,-1,112,114,115,-1,114,116,115,-1,115,116,117,-1,115,117,118,-1,118,117,119,-1,118,119,120,-1,119,121,120,-1,120,121,122,-1,120,122,123,-1,122,124,123,-1,123,124,125,-1,123,125,126,-1,125,127,126,-1,126,127,128,-1,126,128,129,-1,129,128,130,-1,129,130,131,-1,130,132,131,-1,131,132,133,-1,131,133,134,-1,133,135,134,-1,134,135,136,-1,134,136,137,-1,137,136,138,-1,137,138,139,-1,138,140,139,-1,139,140,141,-1,139,141,142,-1,141,143,142,-1,142,143,144,-1,142,144,145,-1,144,146,145,-1,145,146,147,-1,145,147,148,-1,148,147,149,-1,148,149,150,-1,149,151,150,-1,150,151,152,-1,150,152,153,-1,152,154,153,-1,153,154,155,-1,153,155,156,-1,156,155,157,-1,156,157,158,-1,157,159,158,-1,158,159,160,-1,158,160,161,-1,160,162,161,-1,161,162,163,-1,161,163,164,-1,163,165,164,-1,164,165,166,-1,164,166,167,-1,167,166,168,-1,167,168,169,-1,168,170,169,-1,169,170,171,-1,169,171,172,-1,171,173,172,-1,172,173,174,-1,172,174,175,-1,175,174,176,-1,175,176,177,-1,176,178,177,-1,177,178,179,-1,177,179,180,-1,179,181,180,-1,180,181,182,-1,180,182,183,-1,182,184,183,-1,183,184,185,-1,183,185,186,-1,186,185,187,-1,186,187,188,-1,187,189,188,-1,188,189,190,-1,188,190,191,-1,190,192,191,-1,191,192,193,-1,191,193,194,-1,194,193,195,-1,194,195,196,-1,195,197,196,-1,196,197,198,-1,196,198,199,-1,198,200,199,-1,199,200,201,-1,199,201,202,-1,201,203,202,-1,202,203,204,-1,202,204,205,-1,205,204,206,-1,205,206,207,-1,206,208,207,-1,207,208,209,-1,207,209,210,-1,209,211,210,-1,210,211,212,-1,210,212,213,-1,213,212,214,-1,213,214,215,-1,214,216,215,-1,215,216,217,-1,215,217,218,-1,217,219,218,-1,218,219,220,-1,218,220,221,-1,221,220,222,-1,221,222,223,-1,222,224,223,-1,223,224,225,-1,223,225,226,-1,225,227,226,-1,226,227,228,-1,226,228,229,-1,228,230,229,-1,229,230,231,-1,229,231,232,-1,232,231,233,-1,232,233,234,-1,233,235,234,-1,234,235,236,-1,234,236,237,-1,236,238,237,-1,237,238,239,-1,237,239,240,-1,240,239,241,-1,240,241,242,-1,241,243,242,-1,242,243,244,-1,242,244,245,-1,244,246,245,-1,245,246,247,-1,245,247,248,-1,247,249,248,-1,248,249,250,-1,248,250,251,-1,251,250,252,-1,251,252,253,-1,252,254,253,-1,253,254,255,-1,253,255,70,-1,70,255,256,-1,70,256,71,-1,253,257,251,-1,251,257,258,-1,251,258,248,-1,248,258,259,-1,248,259,245,-1,245,259,260,-1,245,260,242,-1,242,260,261,-1,242,261,240,-1,240,261,262,-1,240,262,237,-1,237,262,263,-1,237,263,234,-1,234,263,264,-1,234,264,232,-1,232,264,265,-1,232,265,229,-1,229,265,266,-1,229,266,226,-1,226,266,267,-1,226,267,223,-1,223,267,268,-1,223,268,221,-1,221,268,269,-1,221,269,218,-1,218,269,270,-1,218,270,215,-1,215,270,271,-1,215,271,213,-1,213,271,272,-1,213,272,210,-1,210,272,273,-1,210,273,207,-1,207,273,274,-1,207,274,205,-1,205,274,275,-1,205,275,202,-1,202,275,276,-1,202,276,199,-1,199,276,277,-1,199,277,196,-1,196,277,278,-1,196,278,194,-1,194,278,279,-1,194,279,191,-1,191,279,280,-1,191,280,188,-1,188,280,281,-1,188,281,186,-1,186,281,282,-1,186,282,183,-1,183,282,283,-1,183,283,180,-1,180,283,284,-1,180,284,177,-1,177,284,285,-1,177,285,175,-1,175,285,286,-1,175,286,172,-1,172,286,287,-1,172,287,169,-1,169,287,288,-1,169,288,167,-1,167,288,289,-1,167,289,164,-1,164,289,290,-1,164,290,161,-1,161,290,291,-1,161,291,158,-1,158,291,292,-1,158,292,156,-1,156,292,293,-1,156,293,153,-1,153,293,294,-1,153,294,150,-1,150,294,295,-1,150,295,148,-1,148,295,296,-1,148,296,145,-1,145,296,297,-1,145,297,142,-1,142,297,298,-1,142,298,139,-1,139,298,299,-1,139,299,137,-1,137,299,300,-1,137,300,134,-1,134,300,301,-1,134,301,131,-1,131,301,302,-1,131,302,129,-1,129,302,303,-1,129,303,126,-1,126,303,304,-1,126,304,123,-1,123,304,305,-1,123,305,120,-1,120,305,306,-1,120,306,118,-1,118,306,307,-1,118,307,115,-1,115,307,308,-1,115,308,112,-1,112,308,309,-1,112,309,110,-1,110,309,310,-1,110,310,107,-1,107,310,311,-1,107,311,104,-1,104,311,312,-1,104,312,102,-1,102,312,313,-1,102,313,99,-1,99,313,314,-1,99,314,96,-1,96,314,315,-1,96,315,93,-1,93,315,316,-1,93,316,91,-1,91,316,317,-1,91,317,88,-1,88,317,318,-1,88,318,85,-1,85,318,319,-1,85,319,83,-1,83,319,320,-1,83,320,80,-1,80,320,321,-1,80,321,77,-1,77,321,322,-1,77,322,74,-1,74,322,323,-1,74,323,72,-1,72,323,324,-1,72,324,70,-1,70,324,325,-1,70,325,253,-1,253,325,257,-1,257,326,258,-1,258,326,327,-1,258,327,259,-1,259,327,328,-1,259,328,260,-1,260,328,329,-1,260,329,261,-1,261,329,330,-1,261,330,262,-1,262,330,331,-1,262,331,263,-1,263,331,332,-1,263,332,264,-1,264,332,333,-1,264,333,265,-1,265,333,334,-1,265,334,266,-1,266,334,335,-1,266,335,267,-1,267,335,336,-1,267,336,268,-1,268,336,337,-1,268,337,269,-1,269,337,338,-1,269,338,270,-1,270,338,339,-1,270,339,271,-1,271,339,340,-1,271,340,272,-1,272,340,341,-1,272,341,273,-1,273,341,342,-1,273,342,274,-1,274,342,343,-1,274,343,275,-1,275,343,344,-1,275,344,276,-1,276,344,345,-1,276,345,277,-1,277,345,346,-1,277,346,278,-1,278,346,347,-1,278,347,279,-1,279,347,348,-1,279,348,280,-1,280,348,349,-1,280,349,281,-1,281,349,350,-1,281,350,282,-1,282,350,351,-1,282,351,283,-1,283,351,352,-1,283,352,284,-1,284,352,353,-1,284,353,285,-1,285,353,354,-1,285,354,286,-1,286,354,355,-1,286,355,287,-1,287,355,356,-1,287,356,288,-1,288,356,357,-1,288,357,289,-1,289,357,358,-1,289,358,290,-1,290,358,359,-1,290,359,291,-1,291,359,360,-1,291,360,292,-1,292,360,361,-1,292,361,293,-1,293,361,362,-1,293,362,294,-1,294,362,363,-1,294,363,295,-1,295,363,364,-1,295,364,296,-1,296,364,365,-1,296,365,297,-1,297,365,366,-1,297,366,298,-1,298,366,367,-1,298,367,299,-1,299,367,368,-1,299,368,300,-1,300,368,369,-1,300,369,301,-1,301,369,370,-1,301,370,302,-1,302,370,371,-1,302,371,303,-1,303,371,372,-1,303,372,304,-1,304,372,373,-1,304,373,305,-1,305,373,374,-1,305,374,306,-1,306,374,375,-1,306,375,307,-1,307,375,376,-1,307,376,308,-1,308,376,377,-1,308,377,309,-1,309,377,378,-1,309,378,310,-1,310,378,379,-1,310,379,311,-1,311,379,380,-1,311,380,312,-1,312,380,381,-1,312,381,313,-1,313,381,382,-1,313,382,314,-1,314,382,383,-1,314,383,315,-1,315,383,384,-1,315,384,316,-1,316,384,385,-1,316,385,317,-1,317,385,386,-1,317,386,318,-1,318,386,387,-1,318,387,319,-1,319,387,388,-1,319,388,320,-1,320,388,389,-1,320,389,321,-1,321,389,390,-1,321,390,322,-1,322,390,391,-1,322,391,323,-1,323,391,392,-1,323,392,324,-1,324,392,393,-1,324,393,325,-1,325,393,394,-1,325,394,257,-1,257,394,326,-1,326,395,327,-1,327,395,396,-1,327,396,328,-1,328,396,397,-1,328,397,329,-1,329,397,398,-1,329,398,330,-1,330,398,399,-1,330,399,331,-1,331,399,400,-1,331,400,332,-1,332,400,401,-1,332,401,333,-1,333,401,402,-1,333,402,334,-1,334,402,403,-1,334,403,335,-1,335,403,404,-1,335,404,336,-1,336,404,405,-1,336,405,337,-1,337,405,406,-1,337,406,338,-1,338,406,407,-1,338,407,339,-1,339,407,408,-1,339,408,340,-1,340,408,409,-1,340,409,341,-1,341,409,410,-1,341,410,342,-1,342,410,411,-1,342,411,343,-1,343,411,412,-1,343,412,344,-1,344,412,413,-1,344,413,345,-1,345,413,414,-1,345,414,346,-1,346,414,415,-1,346,415,347,-1,347,415,416,-1,347,416,348,-1,348,416,417,-1,348,417,349,-1,349,417,418,-1,349,418,350,-1,350,418,419,-1,350,419,351,-1,351,419,420,-1,351,420,352,-1,352,420,421,-1,352,421,353,-1,353,421,422,-1,353,422,354,-1,354,422,423,-1,354,423,355,-1,355,423,424,-1,355,424,356,-1,356,424,425,-1,356,425,357,-1,357,425,426,-1,357,426,358,-1,358,426,427,-1,358,427,359,-1,359,427,428,-1,359,428,360,-1,360,428,429,-1,360,429,361,-1,361,429,430,-1,361,430,362,-1,362,430,431,-1,362,431,363,-1,363,431,432,-1,363,432,364,-1,364,432,433,-1,364,433,365,-1,365,433,434,-1,365,434,366,-1,366,434,435,-1,366,435,367,-1,367,435,436,-1,367,436,368,-1,368,436,437,-1,368,437,369,-1,369,437,438,-1,369,438,370,-1,370,438,439,-1,370,439,371,-1,371,439,440,-1,371,440,372,-1,372,440,441,-1,372,441,373,-1,373,441,442,-1,373,442,374,-1,374,442,443,-1,374,443,375,-1,375,443,444,-1,375,444,376,-1,376,444,445,-1,376,445,377,-1,377,445,446,-1,377,446,378,-1,378,446,447,-1,378,447,379,-1,379,447,448,-1,379,448,380,-1,380,448,449,-1,380,449,381,-1,381,449,450,-1,381,450,382,-1,382,450,451,-1,382,451,383,-1,383,451,452,-1,383,452,384,-1,384,452,453,-1,384,453,385,-1,385,453,454,-1,385,454,386,-1,386,454,455,-1,386,455,387,-1,387,455,456,-1,387,456,388,-1,388,456,457,-1,388,457,389,-1,389,457,458,-1,389,458,390,-1,390,458,459,-1,390,459,391,-1,391,459,460,-1,391,460,392,-1,392,460,461,-1,392,461,393,-1,393,461,462,-1,393,462,394,-1,394,462,463,-1,394,463,326,-1,326,463,395,-1,395,464,396,-1,396,464,465,-1,396,465,397,-1,397,465,466,-1,397,466,398,-1,398,466,467,-1,398,467,399,-1,399,467,468,-1,399,468,400,-1,400,468,469,-1,400,469,401,-1,401,469,470,-1,401,470,402,-1,402,470,471,-1,402,471,403,-1,403,471,472,-1,403,472,404,-1,404,472,473,-1,404,473,405,-1,405,473,474,-1,405,474,406,-1,406,474,475,-1,406,475,407,-1,407,475,476,-1,407,476,408,-1,408,476,477,-1,408,477,409,-1,409,477,478,-1,409,478,410,-1,410,478,479,-1,410,479,411,-1,411,479,480,-1,411,480,412,-1,412,480,481,-1,412,481,413,-1,413,481,482,-1,413,482,414,-1,414,482,483,-1,414,483,415,-1,415,483,484,-1,415,484,416,-1,416,484,485,-1,416,485,417,-1,417,485,486,-1,417,486,418,-1,418,486,487,-1,418,487,419,-1,419,487,488,-1,419,488,420,-1,420,488,489,-1,420,489,421,-1,421,489,490,-1,421,490,422,-1,422,490,491,-1,422,491,423,-1,423,491,492,-1,423,492,424,-1,424,492,493,-1,424,493,425,-1,425,493,494,-1,425,494,426,-1,426,494,495,-1,426,495,427,-1,427,495,496,-1,427,496,428,-1,428,496,497,-1,428,497,429,-1,429,497,498,-1,429,498,430,-1,430,498,499,-1,430,499,431,-1,431,499,500,-1,431,500,432,-1,432,500,501,-1,432,501,433,-1,433,501,502,-1,433,502,434,-1,434,502,503,-1,434,503,435,-1,435,503,504,-1,435,504,436,-1,436,504,505,-1,436,505,437,-1,437,505,506,-1,437,506,438,-1,438,506,507,-1,438,507,439,-1,439,507,508,-1,439,508,440,-1,440,508,509,-1,440,509,441,-1,441,509,510,-1,441,510,442,-1,442,510,511,-1,442,511,443,-1,443,511,512,-1,443,512,444,-1,444,512,513,-1,444,513,445,-1,445,513,514,-1,445,514,446,-1,446,514,515,-1,446,515,447,-1,447,515,516,-1,447,516,448,-1,448,516,517,-1,448,517,449,-1,449,517,518,-1,449,518,450,-1,450,518,519,-1,450,519,451,-1,451,519,520,-1,451,520,452,-1,452,520,521,-1,452,521,453,-1,453,521,522,-1,453,522,454,-1,454,522,523,-1,454,523,455,-1,455,523,524,-1,455,524,456,-1,456,524,525,-1,456,525,457,-1,457,525,526,-1,457,526,458,-1,458,526,527,-1,458,527,459,-1,459,527,528,-1,459,528,460,-1,460,528,529,-1,460,529,461,-1,461,529,530,-1,461,530,462,-1,462,530,531,-1,462,531,463,-1,463,531,532,-1,463,532,395,-1,395,532,464,-1,464,533,465,-1,465,533,534,-1,465,534,466,-1,466,534,535,-1,466,535,467,-1,467,535,536,-1,467,536,468,-1,468,536,537,-1,468,537,469,-1,469,537,538,-1,469,538,470,-1,470,538,539,-1,470,539,471,-1,471,539,540,-1,471,540,472,-1,472,540,541,-1,472,541,473,-1,473,541,542,-1,473,542,474,-1,474,542,543,-1,474,543,475,-1,475,543,544,-1,475,544,476,-1,476,544,545,-1,476,545,477,-1,477,545,546,-1,477,546,478,-1,478,546,547,-1,478,547,479,-1,479,547,548,-1,479,548,480,-1,480,548,549,-1,480,549,481,-1,481,549,550,-1,481,550,482,-1,482,550,551,-1,482,551,483,-1,483,551,552,-1,483,552,484,-1,484,552,553,-1,484,553,485,-1,485,553,554,-1,485,554,486,-1,486,554,555,-1,486,555,487,-1,487,555,556,-1,487,556,488,-1,488,556,557,-1,488,557,489,-1,489,557,558,-1,489,558,490,-1,490,558,559,-1,490,559,491,-1,491,559,560,-1,491,560,492,-1,492,560,561,-1,492,561,493,-1,493,561,562,-1,493,562,494,-1,494,562,563,-1,494,563,495,-1,495,563,564,-1,495,564,496,-1,496,564,565,-1,496,565,497,-1,497,565,566,-1,497,566,498,-1,498,566,567,-1,498,567,499,-1,499,567,568,-1,499,568,500,-1,500,568,569,-1,500,569,501,-1,501,569,570,-1,501,570,502,-1,502,570,571,-1,502,571,503,-1,503,571,572,-1,503,572,504,-1,504,572,573,-1,504,573,505,-1,505,573,574,-1,505,574,506,-1,506,574,575,-1,506,575,507,-1,507,575,576,-1,507,576,508,-1,508,576,577,-1,508,577,509,-1,509,577,578,-1,509,578,510,-1,510,578,579,-1,510,579,511,-1,511,579,580,-1,511,580,512,-1,512,580,581,-1,512,581,513,-1,513,581,582,-1,513,582,514,-1,514,582,583,-1,514,583,515,-1,515,583,584,-1,515,584,516,-1,516,584,585,-1,516,585,517,-1,517,585,586,-1,517,586,518,-1,518,586,587,-1,518,587,519,-1,519,587,588,-1,519,588,520,-1,520,588,589,-1,520,589,521,-1,521,589,590,-1,521,590,522,-1,522,590,591,-1,522,591,523,-1,523,591,592,-1,523,592,524,-1,524,592,593,-1,524,593,525,-1,525,593,594,-1,525,594,526,-1,526,594,595,-1,526,595,527,-1,527,595,596,-1,527,596,528,-1,528,596,597,-1,528,597,529,-1,529,597,598,-1,529,598,530,-1,530,598,599,-1,530,599,531,-1,531,599,600,-1,531,600,532,-1,532,600,601,-1,532,601,464,-1,464,601,533,-1,533,602,534,-1,534,602,603,-1,534,603,535,-1,535,603,604,-1,535,604,536,-1,536,604,605,-1,536,605,537,-1,537,605,606,-1,537,606,538,-1,538,606,607,-1,538,607,539,-1,539,607,608,-1,539,608,540,-1,540,608,609,-1,540,609,541,-1,541,609,610,-1,541,610,542,-1,542,610,611,-1,542,611,543,-1,543,611,612,-1,543,612,544,-1,544,612,613,-1,544,613,545,-1,545,613,614,-1,545,614,546,-1,546,614,615,-1,546,615,547,-1,547,615,616,-1,547,616,548,-1,548,616,617,-1,548,617,549,-1,549,617,618,-1,549,618,550,-1,550,618,619,-1,550,619,551,-1,551,619,620,-1,551,620,552,-1,552,620,621,-1,552,621,553,-1,553,621,622,-1,553,622,554,-1,554,622,623,-1,554,623,555,-1,555,623,624,-1,555,624,556,-1,556,624,625,-1,556,625,557,-1,557,625,626,-1,557,626,558,-1,558,626,627,-1,558,627,559,-1,559,627,628,-1,559,628,560,-1,560,628,629,-1,560,629,561,-1,561,629,630,-1,561,630,562,-1,562,630,631,-1,562,631,563,-1,563,631,632,-1,563,632,564,-1,564,632,633,-1,564,633,565,-1,565,633,634,-1,565,634,566,-1,566,634,635,-1,566,635,567,-1,567,635,636,-1,567,636,568,-1,568,636,637,-1,568,637,569,-1,569,637,638,-1,569,638,570,-1,570,638,639,-1,570,639,571,-1,571,639,640,-1,571,640,572,-1,572,640,641,-1,572,641,573,-1,573,641,642,-1,573,642,574,-1,574,642,643,-1,574,643,575,-1,575,643,644,-1,575,644,576,-1,576,644,645,-1,576,645,577,-1,577,645,646,-1,577,646,578,-1,578,646,647,-1,578,647,579,-1,579,647,648,-1,579,648,580,-1,580,648,649,-1,580,649,581,-1,581,649,650,-1,581,650,582,-1,582,650,651,-1,582,651,583,-1,583,651,652,-1,583,652,584,-1,584,652,653,-1,584,653,585,-1,585,653,654,-1,585,654,586,-1,586,654,655,-1,586,655,587,-1,587,655,656,-1,587,656,588,-1,588,656,657,-1,588,657,589,-1,589,657,658,-1,589,658,590,-1,590,658,659,-1,590,659,591,-1,591,659,660,-1,591,660,592,-1,592,660,661,-1,592,661,593,-1,593,661,662,-1,593,662,594,-1,594,662,663,-1,594,663,595,-1,595,663,664,-1,595,664,596,-1,596,664,665,-1,596,665,597,-1,597,665,666,-1,597,666,598,-1,598,666,667,-1,598,667,599,-1,599,667,668,-1,599,668,600,-1,600,668,669,-1,600,669,601,-1,601,669,670,-1,601,670,533,-1,533,670,602,-1,602,671,603,-1,603,671,672,-1,603,672,604,-1,604,672,673,-1,604,673,605,-1,605,673,674,-1,605,674,606,-1,606,674,675,-1,606,675,607,-1,607,675,676,-1,607,676,608,-1,608,676,677,-1,608,677,609,-1,609,677,678,-1,609,678,610,-1,610,678,679,-1,610,679,611,-1,611,679,680,-1,611,680,612,-1,612,680,681,-1,612,681,613,-1,613,681,682,-1,613,682,614,-1,614,682,683,-1,614,683,615,-1,615,683,684,-1,615,684,616,-1,616,684,685,-1,616,685,617,-1,617,685,686,-1,617,686,618,-1,618,686,687,-1,618,687,619,-1,619,687,688,-1,619,688,620,-1,620,688,689,-1,620,689,621,-1,621,689,690,-1,621,690,622,-1,622,690,691,-1,622,691,623,-1,623,691,692,-1,623,692,624,-1,624,692,693,-1,624,693,625,-1,625,693,694,-1,625,694,626,-1,626,694,695,-1,626,695,627,-1,627,695,696,-1,627,696,628,-1,628,696,697,-1,628,697,629,-1,629,697,698,-1,629,698,630,-1,630,698,699,-1,630,699,631,-1,631,699,700,-1,631,700,632,-1,632,700,701,-1,632,701,633,-1,633,701,702,-1,633,702,634,-1,634,702,703,-1,634,703,635,-1,635,703,704,-1,635,704,636,-1,636,704,705,-1,636,705,637,-1,637,705,706,-1,637,706,638,-1,638,706,707,-1,638,707,639,-1,639,707,708,-1,639,708,640,-1,640,708,709,-1,640,709,641,-1,641,709,710,-1,641,710,642,-1,642,710,711,-1,642,711,643,-1,643,711,712,-1,643,712,644,-1,644,712,713,-1,644,713,645,-1,645,713,714,-1,645,714,646,-1,646,714,715,-1,646,715,647,-1,647,715,716,-1,647,716,648,-1,648,716,717,-1,648,717,649,-1,649,717,718,-1,649,718,650,-1,650,718,719,-1,650,719,651,-1,651,719,720,-1,651,720,652,-1,652,720,721,-1,652,721,653,-1,653,721,722,-1,653,722,654,-1,654,722,723,-1,654,723,655,-1,655,723,724,-1,655,724,656,-1,656,724,725,-1,656,725,657,-1,657,725,726,-1,657,726,658,-1,658,726,727,-1,658,727,659,-1,659,727,728,-1,659,728,660,-1,660,728,729,-1,660,729,661,-1,661,729,730,-1,661,730,662,-1,662,730,731,-1,662,731,663,-1,663,731,732,-1,663,732,664,-1,664,732,733,-1,664,733,665,-1,665,733,734,-1,665,734,666,-1,666,734,735,-1,666,735,667,-1,667,735,736,-1,667,736,668,-1,668,736,737,-1,668,737,669,-1,669,737,738,-1,669,738,670,-1,670,738,739,-1,670,739,602,-1,602,739,671,-1,671,1,672,-1,672,1,0,-1,672,0,673,-1,673,0,3,-1,673,3,674,-1,674,3,4,-1,674,4,675,-1,675,4,5,-1,675,5,676,-1,676,5,6,-1,676,6,677,-1,677,6,7,-1,677,7,678,-1,678,7,8,-1,678,8,679,-1,679,8,9,-1,679,9,680,-1,680,9,10,-1,680,10,681,-1,681,10,11,-1,681,11,682,-1,682,11,12,-1,682,12,683,-1,683,12,13,-1,683,13,684,-1,684,13,14,-1,684,14,685,-1,685,14,15,-1,685,15,686,-1,686,15,16,-1,686,16,687,-1,687,16,17,-1,687,17,688,-1,688,17,18,-1,688,18,689,-1,689,18,19,-1,689,19,690,-1,690,19,20,-1,690,20,691,-1,691,20,21,-1,691,21,692,-1,692,21,22,-1,692,22,693,-1,693,22,23,-1,693,23,694,-1,694,23,24,-1,694,24,695,-1,695,24,25,-1,695,25,696,-1,696,25,26,-1,696,26,697,-1,697,26,27,-1,697,27,698,-1,698,27,28,-1,698,28,699,-1,699,28,29,-1,699,29,700,-1,700,29,30,-1,700,30,701,-1,701,30,31,-1,701,31,702,-1,702,31,32,-1,702,32,703,-1,703,32,33,-1,703,33,704,-1,704,33,34,-1,704,34,705,-1,705,34,35,-1,705,35,706,-1,706,35,36,-1,706,36,707,-1,707,36,37,-1,707,37,708,-1,708,37,38,-1,708,38,709,-1,709,38,39,-1,709,39,710,-1,710,39,40,-1,710,40,711,-1,711,40,41,-1,711,41,712,-1,712,41,42,-1,712,42,713,-1,713,42,43,-1,713,43,714,-1,714,43,44,-1,714,44,715,-1,715,44,45,-1,715,45,716,-1,716,45,46,-1,716,46,717,-1,717,46,47,-1,717,47,718,-1,718,47,48,-1,718,48,719,-1,719,48,49,-1,719,49,720,-1,720,49,50,-1,720,50,721,-1,721,50,51,-1,721,51,722,-1,722,51,52,-1,722,52,723,-1,723,52,53,-1,723,53,724,-1,724,53,54,-1,724,54,725,-1,725,54,55,-1,725,55,726,-1,726,55,56,-1,726,56,727,-1,727,56,57,-1,727,57,728,-1,728,57,58,-1,728,58,729,-1,729,58,59,-1,729,59,730,-1,730,59,60,-1,730,60,731,-1,731,60,61,-1,731,61,732,-1,732,61,62,-1,732,62,733,-1,733,62,63,-1,733,63,734,-1,734,63,64,-1,734,64,735,-1,735,64,65,-1,735,65,736,-1,736,65,66,-1,736,66,737,-1,737,66,67,-1,737,67,738,-1,738,67,68,-1,738,68,739,-1,739,68,69,-1,739,69,671,-1,671,69,1,-1,
        ]
    }
}